<?xml version="1.0" standalone="yes"?>

<svg version="1.1" viewBox="0.0 0.0 725.5590551181102 486.56692913385825" fill="none" stroke="none" stroke-linecap="square" stroke-miterlimit="10" xmlns="http://www.w3.org/2000/svg" xmlns:xlink="http://www.w3.org/1999/xlink"><clipPath id="p.0"><path d="m0 0l725.5591 0l0 486.56693l-725.5591 0l0 -486.56693z" clip-rule="nonzero"></path></clipPath><g clip-path="url(#p.0)"><path fill="#000000" fill-opacity="0.0" d="m0 0l725.5591 0l0 486.56693l-725.5591 0z" fill-rule="nonzero"></path><path fill="#000000" fill-opacity="0.0" d="m407.23044 217.61096c2.8692932 -4.3388367 4.4475403 -20.826477 17.21576 -26.033035c12.768219 -5.206543 46.912323 -2.776474 59.393555 -5.2062836c12.481232 -2.4298096 12.911499 -7.810486 15.493805 -9.372589" fill-rule="nonzero"></path><path stroke="#000000" stroke-width="1.0" stroke-linejoin="round" stroke-linecap="butt" d="m407.23044 217.61096c2.8692932 -4.3388367 4.4475403 -20.826477 17.21576 -26.033035c12.768219 -5.206543 46.912323 -2.776474 59.393555 -5.2062836c12.481232 -2.4298096 12.911499 -7.810486 15.493805 -9.372589" fill-rule="nonzero"></path><path fill="#000000" fill-opacity="0.0" d="m591.4372 217.61096c-2.8693237 -4.3388367 -4.447571 -20.826477 -17.21582 -26.033035c-12.768188 -5.206543 -46.912292 -2.776474 -59.393555 -5.2062836c-12.481201 -2.4298096 -12.9114685 -7.810486 -15.493774 -9.372589" fill-rule="nonzero"></path><path stroke="#000000" stroke-width="1.0" stroke-linejoin="round" stroke-linecap="butt" d="m591.4372 217.61096c-2.8693237 -4.3388367 -4.447571 -20.826477 -17.21582 -26.033035c-12.768188 -5.206543 -46.912292 -2.776474 -59.393555 -5.2062836c-12.481201 -2.4298096 -12.9114685 -7.810486 -15.493774 -9.372589" fill-rule="nonzero"></path><path fill="#cfe2f3" d="m308.55905 28.488388l0 0c0 -5.4881687 4.4490356 -9.937206 9.937225 -9.937206l84.62952 0c2.635498 0 5.1630554 1.0469513 7.0266724 2.9105396c1.8635864 1.8635883 2.9105225 4.3911552 2.9105225 7.0266666l0 39.747635c0 5.488167 -4.4490356 9.937202 -9.937195 9.937202l-84.62952 0c-5.4881897 0 -9.937225 -4.4490356 -9.937225 -9.937202z" fill-rule="nonzero"></path><path stroke="#000000" stroke-width="1.0" stroke-linejoin="round" stroke-linecap="butt" d="m308.55905 28.488388l0 0c0 -5.4881687 4.4490356 -9.937206 9.937225 -9.937206l84.62952 0c2.635498 0 5.1630554 1.0469513 7.0266724 2.9105396c1.8635864 1.8635883 2.9105225 4.3911552 2.9105225 7.0266666l0 39.747635c0 5.488167 -4.4490356 9.937202 -9.937195 9.937202l-84.62952 0c-5.4881897 0 -9.937225 -4.4490356 -9.937225 -9.937202z" fill-rule="nonzero"></path><path fill="#000000" d="m321.7352 45.82169l0 -11.453125l5.078125 0q1.53125 0 2.328125 0.3125q0.796875 0.296875 1.265625 1.078125q0.484375 0.78125 0.484375 1.734375q0 1.21875 -0.796875 2.0625q-0.78125 0.828125 -2.4375 1.046875q0.609375 0.296875 0.921875 0.578125q0.65625 0.609375 1.25 1.515625l2.0 3.125l-1.90625 0l-1.515625 -2.390625q-0.671875 -1.03125 -1.109375 -1.578125q-0.421875 -0.546875 -0.765625 -0.765625q-0.328125 -0.21875 -0.6875 -0.296875q-0.25 -0.0625 -0.84375 -0.0625l-1.75 0l0 5.09375l-1.515625 0zm1.515625 -6.40625l3.25 0q1.046875 0 1.625 -0.203125q0.59375 -0.21875 0.890625 -0.6875q0.3125 -0.484375 0.3125 -1.03125q0 -0.8125 -0.59375 -1.328125q-0.59375 -0.53125 -1.859375 -0.53125l-3.625 0l0 3.78125zm9.3046875 2.25q0 -2.296875 1.28125 -3.40625q1.078125 -0.921875 2.609375 -0.921875q1.71875 0 2.796875 1.125q1.09375 1.109375 1.09375 3.09375q0 1.59375 -0.484375 2.515625q-0.484375 0.921875 -1.40625 1.4375q-0.90625 0.5 -2.0 0.5q-1.734375 0 -2.8125 -1.109375q-1.078125 -1.125 -1.078125 -3.234375zm1.453125 0q0 1.59375 0.6875 2.390625q0.703125 0.796875 1.75 0.796875q1.046875 0 1.734375 -0.796875q0.703125 -0.796875 0.703125 -2.4375q0 -1.53125 -0.703125 -2.328125q-0.6875 -0.796875 -1.734375 -0.796875q-1.046875 0 -1.75 0.796875q-0.6875 0.78125 -0.6875 2.375zm7.4453125 0q0 -2.296875 1.28125 -3.40625q1.078125 -0.921875 2.609375 -0.921875q1.71875 0 2.796875 1.125q1.09375 1.109375 1.09375 3.09375q0 1.59375 -0.484375 2.515625q-0.484375 0.921875 -1.40625 1.4375q-0.90625 0.5 -2.0 0.5q-1.734375 0 -2.8125 -1.109375q-1.078125 -1.125 -1.078125 -3.234375zm1.453125 0q0 1.59375 0.6875 2.390625q0.703125 0.796875 1.75 0.796875q1.046875 0 1.734375 -0.796875q0.703125 -0.796875 0.703125 -2.4375q0 -1.53125 -0.703125 -2.328125q-0.6875 -0.796875 -1.734375 -0.796875q-1.046875 0 -1.75 0.796875q-0.6875 0.78125 -0.6875 2.375zm11.0390625 2.890625l0.203125 1.25q-0.59375 0.125 -1.0625 0.125q-0.765625 0 -1.1875 -0.234375q-0.421875 -0.25 -0.59375 -0.640625q-0.171875 -0.40625 -0.171875 -1.671875l0 -4.765625l-1.03125 0l0 -1.09375l1.03125 0l0 -2.0625l1.40625 -0.84375l0 2.90625l1.40625 0l0 1.09375l-1.40625 0l0 4.84375q0 0.609375 0.0625 0.78125q0.078125 0.171875 0.25 0.28125q0.171875 0.09375 0.484375 0.09375q0.234375 0 0.609375 -0.0625z" fill-rule="nonzero"></path><path fill="#000000" fill-opacity="0.0" d="m361.12598 38.96063l51.93701 0l0 39.212597l-51.93701 0z" fill-rule="nonzero"></path><path fill="#cc4125" d="m381.29785 61.115l1.796875 0.453125q-0.5625 2.21875 -2.03125 3.3906288q-1.46875 1.15625 -3.59375 1.15625q-2.203125 0 -3.578125 -0.890625q-1.375 -0.90625 -2.09375 -2.5937538q-0.71875 -1.703125 -0.71875 -3.65625q0 -2.125 0.796875 -3.703125q0.8125 -1.578125 2.3125 -2.390625q1.5 -0.828125 3.296875 -0.828125q2.046875 0 3.4375 1.046875q1.390625 1.03125 1.9375 2.90625l-1.765625 0.421875q-0.46875 -1.484375 -1.375 -2.15625q-0.90625 -0.6875 -2.265625 -0.6875q-1.5625 0 -2.625 0.75q-1.046875 0.75 -1.484375 2.03125q-0.421875 1.265625 -0.421875 2.609375q0 1.734375 0.5 3.03125q0.515625 1.28125 1.578125 1.921875q1.078125 0.6406288 2.3125 0.6406288q1.515625 0 2.5625 -0.8593788q1.046875 -0.875 1.421875 -2.59375zm3.7698364 4.765629l0 -13.593754l4.6875 0q1.578125 0 2.421875 0.1875q1.15625 0.265625 1.984375 0.96875q1.078125 0.921875 1.609375 2.34375q0.53125 1.40625 0.53125 3.21875q0 1.546875 -0.359375 2.75q-0.359375 1.1875 -0.921875 1.984375q-0.5625 0.7812538 -1.234375 1.2343788q-0.671875 0.4375 -1.625 0.671875q-0.953125 0.234375 -2.1875 0.234375l-4.90625 0zm1.796875 -1.609375l2.90625 0q1.34375 0 2.109375 -0.25q0.765625 -0.2500038 1.21875 -0.7031288q0.640625 -0.640625 1.0 -1.71875q0.359375 -1.078125 0.359375 -2.625q0 -2.125 -0.703125 -3.265625q-0.703125 -1.15625 -1.703125 -1.546875q-0.71875 -0.28125 -2.328125 -0.28125l-2.859375 0l0 10.390629z" fill-rule="nonzero"></path><path fill="#cfe2f3" d="m447.08136 127.31516l0 0c0 -5.4881744 4.4490356 -9.93721 9.937225 -9.93721l84.629486 0c2.635559 0 5.163086 1.0469513 7.0266724 2.9105377c1.8635864 1.863594 2.9105835 4.391159 2.9105835 7.0266724l0 39.747627c0 5.4881744 -4.4490356 9.93721 -9.937256 9.93721l-84.629486 0c-5.4881897 0 -9.937225 -4.4490356 -9.937225 -9.93721z" fill-rule="nonzero"></path><path stroke="#000000" stroke-width="1.0" stroke-linejoin="round" stroke-linecap="butt" d="m447.08136 127.31516l0 0c0 -5.4881744 4.4490356 -9.93721 9.937225 -9.93721l84.629486 0c2.635559 0 5.163086 1.0469513 7.0266724 2.9105377c1.8635864 1.863594 2.9105835 4.391159 2.9105835 7.0266724l0 39.747627c0 5.4881744 -4.4490356 9.93721 -9.937256 9.93721l-84.629486 0c-5.4881897 0 -9.937225 -4.4490356 -9.937225 -9.93721z" fill-rule="nonzero"></path><path fill="#000000" d="m468.39813 140.63284l1.515625 0.375q-0.46875 1.875 -1.71875 2.859375q-1.234375 0.984375 -3.015625 0.984375q-1.859375 0 -3.015625 -0.75q-1.15625 -0.765625 -1.765625 -2.1875q-0.609375 -1.4375 -0.609375 -3.078125q0 -1.796875 0.6875 -3.125q0.6875 -1.328125 1.9375 -2.015625q1.265625 -0.703125 2.78125 -0.703125q1.71875 0 2.890625 0.875q1.171875 0.875 1.640625 2.46875l-1.5 0.34375q-0.390625 -1.25 -1.15625 -1.8125q-0.75 -0.578125 -1.90625 -0.578125q-1.3125 0 -2.203125 0.640625q-0.890625 0.625 -1.25 1.703125q-0.359375 1.0625 -0.359375 2.1875q0 1.46875 0.421875 2.5625q0.4375 1.078125 1.328125 1.625q0.90625 0.53125 1.953125 0.53125q1.265625 0 2.140625 -0.734375q0.890625 -0.734375 1.203125 -2.171875zm3.2109375 4.015625l0 -11.453125l1.40625 0l0 4.109375q0.984375 -1.140625 2.484375 -1.140625q0.921875 0 1.59375 0.359375q0.6875 0.359375 0.96875 1.0q0.296875 0.640625 0.296875 1.859375l0 5.265625l-1.40625 0l0 -5.265625q0 -1.046875 -0.453125 -1.53125q-0.453125 -0.484375 -1.296875 -0.484375q-0.625 0 -1.171875 0.328125q-0.546875 0.328125 -0.78125 0.890625q-0.234375 0.546875 -0.234375 1.515625l0 4.546875l-1.40625 0zm8.8984375 -9.84375l0 -1.609375l1.40625 0l0 1.609375l-1.40625 0zm0 9.84375l0 -8.296875l1.40625 0l0 8.296875l-1.40625 0zm3.5234375 0l0 -11.453125l1.40625 0l0 11.453125l-1.40625 0zm8.9609375 0l0 -1.046875q-0.78125 1.234375 -2.3125 1.234375q-1.0 0 -1.828125 -0.546875q-0.828125 -0.546875 -1.296875 -1.53125q-0.453125 -0.984375 -0.453125 -2.25q0 -1.25 0.40625 -2.25q0.421875 -1.015625 1.25 -1.546875q0.828125 -0.546875 1.859375 -0.546875q0.75 0 1.328125 0.3125q0.59375 0.3125 0.953125 0.828125l0 -4.109375l1.40625 0l0 11.453125l-1.3125 0zm-4.4375 -4.140625q0 1.59375 0.671875 2.390625q0.671875 0.78125 1.578125 0.78125q0.921875 0 1.5625 -0.75q0.65625 -0.765625 0.65625 -2.3125q0 -1.703125 -0.65625 -2.5q-0.65625 -0.796875 -1.625 -0.796875q-0.9375 0 -1.5625 0.765625q-0.625 0.765625 -0.625 2.421875zm12.8671875 4.140625l-1.40625 0l0 -8.96875q-0.515625 0.484375 -1.34375 0.96875q-0.8125 0.484375 -1.46875 0.734375l0 -1.359375q1.171875 -0.5625 2.046875 -1.34375q0.890625 -0.796875 1.265625 -1.53125l0.90625 0l0 11.5z" fill-rule="nonzero"></path><path fill="#000000" fill-opacity="0.0" d="m499.6483 137.7874l51.937042 0l0 39.2126l-51.937042 0z" fill-rule="nonzero"></path><path fill="#cc4125" d="m519.8202 159.94177l1.796875 0.453125q-0.5625 2.21875 -2.03125 3.390625q-1.46875 1.15625 -3.59375 1.15625q-2.203125 0 -3.578125 -0.890625q-1.3750305 -0.90625 -2.0937805 -2.59375q-0.71875 -1.703125 -0.71875 -3.65625q0 -2.125 0.796875 -3.703125q0.8125 -1.578125 2.3125305 -2.390625q1.5 -0.828125 3.296875 -0.828125q2.046875 0 3.4375 1.046875q1.390625 1.03125 1.9375 2.90625l-1.765625 0.421875q-0.46875 -1.484375 -1.375 -2.15625q-0.90625 -0.6875 -2.265625 -0.6875q-1.5625 0 -2.625 0.75q-1.046875 0.75 -1.4844055 2.03125q-0.421875 1.265625 -0.421875 2.609375q0 1.734375 0.5 3.03125q0.5156555 1.28125 1.5781555 1.921875q1.078125 0.640625 2.3125 0.640625q1.515625 0 2.5625 -0.859375q1.046875 -0.875 1.421875 -2.59375zm3.7697754 4.765625l0 -13.59375l4.6875 0q1.578125 0 2.421875 0.1875q1.15625 0.265625 1.984375 0.96875q1.078125 0.921875 1.609375 2.34375q0.53125 1.40625 0.53125 3.21875q0 1.546875 -0.359375 2.75q-0.359375 1.1875 -0.921875 1.984375q-0.5625 0.78125 -1.234375 1.234375q-0.671875 0.4375 -1.625 0.671875q-0.953125 0.234375 -2.1875 0.234375l-4.90625 0zm1.796875 -1.609375l2.90625 0q1.34375 0 2.109375 -0.25q0.765625 -0.25 1.21875 -0.703125q0.640625 -0.640625 1.0 -1.71875q0.359375 -1.078125 0.359375 -2.625q0 -2.125 -0.703125 -3.265625q-0.703125 -1.15625 -1.703125 -1.546875q-0.71875 -0.28125 -2.328125 -0.28125l-2.859375 0l0 10.390625z" fill-rule="nonzero"></path><path fill="#cfe2f3" d="m351.96588 227.54875l0 0c0 -5.488159 4.4490356 -9.93721 9.937195 -9.93721l84.62955 0c2.635498 0 5.1630554 1.0469666 7.026642 2.910553c1.8635864 1.8635864 2.910553 4.391144 2.910553 7.026657l0 39.747635c0 5.488159 -4.4490356 9.937195 -9.937195 9.937195l-84.62955 0c-5.488159 0 -9.937195 -4.4490356 -9.937195 -9.937195z" fill-rule="nonzero"></path><path stroke="#000000" stroke-width="1.0" stroke-linejoin="round" stroke-linecap="butt" d="m351.96588 227.54875l0 0c0 -5.488159 4.4490356 -9.93721 9.937195 -9.93721l84.62955 0c2.635498 0 5.1630554 1.0469666 7.026642 2.910553c1.8635864 1.8635864 2.910553 4.391144 2.910553 7.026657l0 39.747635c0 5.488159 -4.4490356 9.937195 -9.937195 9.937195l-84.62955 0c-5.488159 0 -9.937195 -4.4490356 -9.937195 -9.937195z" fill-rule="nonzero"></path><path fill="#000000" d="m373.28262 240.86644l1.515625 0.375q-0.46875 1.875 -1.71875 2.859375q-1.234375 0.984375 -3.015625 0.984375q-1.859375 0 -3.015625 -0.75q-1.15625 -0.765625 -1.765625 -2.1875q-0.609375 -1.4375 -0.609375 -3.078125q0 -1.796875 0.6875 -3.125q0.6875 -1.328125 1.9375 -2.015625q1.265625 -0.703125 2.78125 -0.703125q1.71875 0 2.890625 0.875q1.171875 0.875 1.640625 2.46875l-1.5 0.34375q-0.390625 -1.25 -1.15625 -1.8125q-0.75 -0.578125 -1.90625 -0.578125q-1.3125 0 -2.203125 0.640625q-0.890625 0.625 -1.25 1.703125q-0.359375 1.0625 -0.359375 2.1875q0 1.46875 0.421875 2.5625q0.4375 1.078125 1.328125 1.625q0.90625 0.53125 1.953125 0.53125q1.265625 0 2.140625 -0.734375q0.890625 -0.734375 1.203125 -2.171875zm3.2109375 4.015625l0 -11.453125l1.40625 0l0 4.109375q0.984375 -1.140625 2.484375 -1.140625q0.921875 0 1.59375 0.359375q0.6875 0.359375 0.96875 1.0q0.296875 0.640625 0.296875 1.859375l0 5.265625l-1.40625 0l0 -5.265625q0 -1.046875 -0.453125 -1.53125q-0.453125 -0.484375 -1.296875 -0.484375q-0.625 0 -1.171875 0.328125q-0.546875 0.328125 -0.78125 0.890625q-0.234375 0.546875 -0.234375 1.515625l0 4.546875l-1.40625 0zm8.8984375 -9.84375l0 -1.609375l1.40625 0l0 1.609375l-1.40625 0zm0 9.84375l0 -8.296875l1.40625 0l0 8.296875l-1.40625 0zm3.5234375 0l0 -11.453125l1.40625 0l0 11.453125l-1.40625 0zm8.9609375 0l0 -1.046875q-0.78125 1.234375 -2.3125 1.234375q-1.0 0 -1.828125 -0.546875q-0.828125 -0.546875 -1.296875 -1.53125q-0.453125 -0.984375 -0.453125 -2.25q0 -1.25 0.40625 -2.25q0.421875 -1.015625 1.25 -1.546875q0.828125 -0.546875 1.859375 -0.546875q0.75 0 1.328125 0.3125q0.59375 0.3125 0.953125 0.828125l0 -4.109375l1.40625 0l0 11.453125l-1.3125 0zm-4.4375 -4.140625q0 1.59375 0.671875 2.390625q0.671875 0.78125 1.578125 0.78125q0.921875 0 1.5625 -0.75q0.65625 -0.765625 0.65625 -2.3125q0 -1.703125 -0.65625 -2.5q-0.65625 -0.796875 -1.625 -0.796875q-0.9375 0 -1.5625 0.765625q-0.625 0.765625 -0.625 2.421875zm14.9609375 2.78125l0 1.359375l-7.578125 0q-0.015625 -0.515625 0.171875 -0.984375q0.28125 -0.765625 0.921875 -1.515625q0.640625 -0.75 1.84375 -1.734375q1.859375 -1.53125 2.515625 -2.421875q0.65625 -0.90625 0.65625 -1.703125q0 -0.828125 -0.59375 -1.40625q-0.59375 -0.578125 -1.5625 -0.578125q-1.015625 0 -1.625 0.609375q-0.609375 0.609375 -0.609375 1.6875l-1.453125 -0.140625q0.15625 -1.625 1.125 -2.46875q0.96875 -0.84375 2.59375 -0.84375q1.65625 0 2.609375 0.921875q0.96875 0.90625 0.96875 2.25q0 0.6875 -0.28125 1.359375q-0.28125 0.65625 -0.9375 1.390625q-0.65625 0.734375 -2.171875 2.015625q-1.265625 1.0625 -1.625 1.453125q-0.359375 0.375 -0.59375 0.75l5.625 0z" fill-rule="nonzero"></path><path fill="#000000" fill-opacity="0.0" d="m404.5328 238.021l51.93701 0l0 39.212585l-51.93701 0z" fill-rule="nonzero"></path><path fill="#cc4125" d="m424.70468 260.17538l1.796875 0.453125q-0.5625 2.21875 -2.03125 3.390625q-1.46875 1.15625 -3.59375 1.15625q-2.203125 0 -3.578125 -0.890625q-1.375 -0.90625 -2.09375 -2.59375q-0.71875 -1.703125 -0.71875 -3.65625q0 -2.1250153 0.796875 -3.7031403q0.8125 -1.578125 2.3125 -2.390625q1.5 -0.828125 3.296875 -0.828125q2.046875 0 3.4375 1.046875q1.390625 1.03125 1.9375 2.90625l-1.765625 0.421875q-0.46875 -1.484375 -1.375 -2.15625q-0.90625 -0.6875 -2.265625 -0.6875q-1.5625 0 -2.625 0.75q-1.046875 0.75 -1.484375 2.03125q-0.421875 1.2656403 -0.421875 2.6093903q0 1.734375 0.5 3.03125q0.515625 1.28125 1.578125 1.921875q1.078125 0.640625 2.3125 0.640625q1.515625 0 2.5625 -0.859375q1.046875 -0.875 1.421875 -2.59375zm3.7698364 4.765625l0 -13.593765l4.6875 0q1.578125 0 2.421875 0.1875q1.15625 0.265625 1.984375 0.96875q1.078125 0.921875 1.609375 2.34375q0.53125 1.4062653 0.53125 3.2187653q0 1.546875 -0.359375 2.75q-0.359375 1.1875 -0.921875 1.984375q-0.5625 0.78125 -1.234375 1.234375q-0.671875 0.4375 -1.625 0.671875q-0.953125 0.234375 -2.1875 0.234375l-4.90625 0zm1.796875 -1.609375l2.90625 0q1.34375 0 2.109375 -0.25q0.765625 -0.25 1.21875 -0.703125q0.640625 -0.640625 1.0 -1.71875q0.359375 -1.078125 0.359375 -2.625q0 -2.1250153 -0.703125 -3.2656403q-0.703125 -1.15625 -1.703125 -1.546875q-0.71875 -0.28125 -2.328125 -0.28125l-2.859375 0l0 10.39064z" fill-rule="nonzero"></path><path fill="#cfe2f3" d="m539.3333 227.54875l0 0c0 -5.488159 4.4490356 -9.93721 9.937256 -9.93721l84.62952 0c2.635498 0 5.163086 1.0469666 7.0266724 2.910553c1.8635864 1.8635864 2.9105225 4.391144 2.9105225 7.026657l0 39.747635c0 5.488159 -4.4490356 9.937195 -9.937195 9.937195l-84.62952 0c-5.48822 0 -9.937256 -4.4490356 -9.937256 -9.937195z" fill-rule="nonzero"></path><path stroke="#000000" stroke-width="1.0" stroke-linejoin="round" stroke-linecap="butt" d="m539.3333 227.54875l0 0c0 -5.488159 4.4490356 -9.93721 9.937256 -9.93721l84.62952 0c2.635498 0 5.163086 1.0469666 7.0266724 2.910553c1.8635864 1.8635864 2.9105225 4.391144 2.9105225 7.026657l0 39.747635c0 5.488159 -4.4490356 9.937195 -9.937195 9.937195l-84.62952 0c-5.48822 0 -9.937256 -4.4490356 -9.937256 -9.937195z" fill-rule="nonzero"></path><path fill="#000000" d="m560.6501 240.86644l1.515625 0.375q-0.46875 1.875 -1.71875 2.859375q-1.234375 0.984375 -3.015625 0.984375q-1.859375 0 -3.015625 -0.75q-1.15625 -0.765625 -1.765625 -2.1875q-0.609375 -1.4375 -0.609375 -3.078125q0 -1.796875 0.6875 -3.125q0.6875 -1.328125 1.9375 -2.015625q1.265625 -0.703125 2.78125 -0.703125q1.71875 0 2.890625 0.875q1.171875 0.875 1.640625 2.46875l-1.5 0.34375q-0.390625 -1.25 -1.15625 -1.8125q-0.75 -0.578125 -1.90625 -0.578125q-1.3125 0 -2.203125 0.640625q-0.890625 0.625 -1.25 1.703125q-0.359375 1.0625 -0.359375 2.1875q0 1.46875 0.421875 2.5625q0.4375 1.078125 1.328125 1.625q0.90625 0.53125 1.953125 0.53125q1.265625 0 2.140625 -0.734375q0.890625 -0.734375 1.203125 -2.171875zm3.2109375 4.015625l0 -11.453125l1.40625 0l0 4.109375q0.984375 -1.140625 2.484375 -1.140625q0.921875 0 1.59375 0.359375q0.6875 0.359375 0.96875 1.0q0.296875 0.640625 0.296875 1.859375l0 5.265625l-1.40625 0l0 -5.265625q0 -1.046875 -0.453125 -1.53125q-0.453125 -0.484375 -1.296875 -0.484375q-0.625 0 -1.171875 0.328125q-0.546875 0.328125 -0.78125 0.890625q-0.234375 0.546875 -0.234375 1.515625l0 4.546875l-1.40625 0zm8.8984375 -9.84375l0 -1.609375l1.40625 0l0 1.609375l-1.40625 0zm0 9.84375l0 -8.296875l1.40625 0l0 8.296875l-1.40625 0zm3.5234375 0l0 -11.453125l1.40625 0l0 11.453125l-1.40625 0zm8.9609375 0l0 -1.046875q-0.78125 1.234375 -2.3125 1.234375q-1.0 0 -1.828125 -0.546875q-0.828125 -0.546875 -1.296875 -1.53125q-0.453125 -0.984375 -0.453125 -2.25q0 -1.25 0.40625 -2.25q0.421875 -1.015625 1.25 -1.546875q0.828125 -0.546875 1.859375 -0.546875q0.75 0 1.328125 0.3125q0.59375 0.3125 0.953125 0.828125l0 -4.109375l1.40625 0l0 11.453125l-1.3125 0zm-4.4375 -4.140625q0 1.59375 0.671875 2.390625q0.671875 0.78125 1.578125 0.78125q0.921875 0 1.5625 -0.75q0.65625 -0.765625 0.65625 -2.3125q0 -1.703125 -0.65625 -2.5q-0.65625 -0.796875 -1.625 -0.796875q-0.9375 0 -1.5625 0.765625q-0.625 0.765625 -0.625 2.421875zm7.5703125 1.109375l1.40625 -0.1875q0.25 1.203125 0.828125 1.734375q0.578125 0.515625 1.421875 0.515625q0.984375 0 1.671875 -0.6875q0.6875 -0.6875 0.6875 -1.703125q0 -0.96875 -0.640625 -1.59375q-0.625 -0.625 -1.609375 -0.625q-0.390625 0 -0.984375 0.15625l0.15625 -1.234375q0.140625 0.015625 0.21875 0.015625q0.90625 0 1.625 -0.46875q0.71875 -0.46875 0.71875 -1.453125q0 -0.765625 -0.53125 -1.265625q-0.515625 -0.515625 -1.34375 -0.515625q-0.828125 0 -1.375 0.515625q-0.546875 0.515625 -0.703125 1.546875l-1.40625 -0.25q0.265625 -1.421875 1.171875 -2.1875q0.921875 -0.78125 2.28125 -0.78125q0.9375 0 1.71875 0.40625q0.796875 0.390625 1.203125 1.09375q0.421875 0.6875 0.421875 1.46875q0 0.75 -0.40625 1.359375q-0.390625 0.609375 -1.171875 0.96875q1.015625 0.234375 1.578125 0.96875q0.5625 0.734375 0.5625 1.84375q0 1.5 -1.09375 2.546875q-1.09375 1.046875 -2.765625 1.046875q-1.5 0 -2.5 -0.890625q-1.0 -0.90625 -1.140625 -2.34375z" fill-rule="nonzero"></path><path fill="#000000" fill-opacity="0.0" d="m591.90027 238.021l51.93701 0l0 39.212585l-51.93701 0z" fill-rule="nonzero"></path><path fill="#cc4125" d="m612.07214 260.17538l1.796875 0.453125q-0.5625 2.21875 -2.03125 3.390625q-1.46875 1.15625 -3.59375 1.15625q-2.203125 0 -3.578125 -0.890625q-1.375 -0.90625 -2.09375 -2.59375q-0.71875 -1.703125 -0.71875 -3.65625q0 -2.1250153 0.796875 -3.7031403q0.8125 -1.578125 2.3125 -2.390625q1.5 -0.828125 3.296875 -0.828125q2.046875 0 3.4375 1.046875q1.390625 1.03125 1.9375 2.90625l-1.765625 0.421875q-0.46875 -1.484375 -1.375 -2.15625q-0.90625 -0.6875 -2.265625 -0.6875q-1.5625 0 -2.625 0.75q-1.046875 0.75 -1.484375 2.03125q-0.421875 1.2656403 -0.421875 2.6093903q0 1.734375 0.5 3.03125q0.515625 1.28125 1.578125 1.921875q1.078125 0.640625 2.3125 0.640625q1.515625 0 2.5625 -0.859375q1.046875 -0.875 1.421875 -2.59375zm3.7698364 4.765625l0 -13.593765l4.6875 0q1.578125 0 2.421875 0.1875q1.15625 0.265625 1.984375 0.96875q1.078125 0.921875 1.609375 2.34375q0.53125 1.4062653 0.53125 3.2187653q0 1.546875 -0.359375 2.75q-0.359375 1.1875 -0.921875 1.984375q-0.5625 0.78125 -1.234375 1.234375q-0.671875 0.4375 -1.625 0.671875q-0.953125 0.234375 -2.1875 0.234375l-4.90625 0zm1.796875 -1.609375l2.90625 0q1.34375 0 2.109375 -0.25q0.765625 -0.25 1.21875 -0.703125q0.640625 -0.640625 1.0 -1.71875q0.359375 -1.078125 0.359375 -2.625q0 -2.1250153 -0.703125 -3.2656403q-0.703125 -1.15625 -1.703125 -1.546875q-0.71875 -0.28125 -2.328125 -0.28125l-2.859375 0l0 10.39064z" fill-rule="nonzero"></path><path fill="#000000" fill-opacity="0.0" d="m223.82803 117.378944c4.245697 -4.1884766 6.5810394 -20.104744 25.474182 -25.130867c18.893127 -5.026123 69.41617 -2.6802597 87.88464 -5.0258713c18.468475 -2.345604 19.105133 -7.539818 22.926178 -9.047783" fill-rule="nonzero"></path><path stroke="#000000" stroke-width="1.0" stroke-linejoin="round" stroke-linecap="butt" d="m223.82803 117.378944c4.245697 -4.1884766 6.5810394 -20.104744 25.474182 -25.130867c18.893127 -5.026123 69.41617 -2.6802597 87.88464 -5.0258713c18.468475 -2.345604 19.105133 -7.539818 22.926178 -9.047783" fill-rule="nonzero"></path><path fill="#000000" fill-opacity="0.0" d="m496.3987 117.378944c-4.245697 -4.1884766 -6.581024 -20.104744 -25.474152 -25.130867c-18.893158 -5.026123 -69.41617 -2.6802597 -87.88464 -5.0258713c-18.468475 -2.345604 -19.105164 -7.539818 -22.926178 -9.047783" fill-rule="nonzero"></path><path stroke="#000000" stroke-width="1.0" stroke-linejoin="round" stroke-linecap="butt" d="m496.3987 117.378944c-4.245697 -4.1884766 -6.581024 -20.104744 -25.474152 -25.130867c-18.893158 -5.026123 -69.41617 -2.6802597 -87.88464 -5.0258713c-18.468475 -2.345604 -19.105164 -7.539818 -22.926178 -9.047783" fill-rule="nonzero"></path><path fill="#000000" fill-opacity="0.0" d="m194.86089 144.62204l0 0c0 -15.046494 12.669998 -27.244087 28.299225 -27.244087l0 0c7.505417 0 14.70343 2.8703537 20.01056 7.9796143c5.307129 5.1092606 8.2886505 12.038902 8.2886505 19.264473l0 0c0 15.046509 -12.669998 27.244095 -28.29921 27.244095l0 0c-15.629227 0 -28.299225 -12.197586 -28.299225 -27.244095z" fill-rule="nonzero"></path><path stroke="#000000" stroke-width="1.0" stroke-linejoin="round" stroke-linecap="butt" d="m194.86089 144.62204l0 0c0 -15.046494 12.669998 -27.244087 28.299225 -27.244087l0 0c7.505417 0 14.70343 2.8703537 20.01056 7.9796143c5.307129 5.1092606 8.2886505 12.038902 8.2886505 19.264473l0 0c0 15.046509 -12.669998 27.244095 -28.29921 27.244095l0 0c-15.629227 0 -28.299225 -12.197586 -28.299225 -27.244095z" fill-rule="nonzero"></path><path fill="#000000" d="m213.86829 151.54205l0 -1.90625l1.90625 0l0 1.90625l-1.90625 0zm5.183304 0l0 -1.90625l1.90625 0l0 1.90625l-1.90625 0zm5.183304 0l0 -1.90625l1.90625 0l0 1.90625l-1.90625 0z" fill-rule="nonzero"></path><path fill="#000000" fill-opacity="0.0" d="m439.80054 342.60367l0 0c0 -15.046478 12.669983 -27.24408 28.299194 -27.24408l0 0c7.505432 0 14.70343 2.8703308 20.01056 7.9796143c5.307129 5.109253 8.288666 12.038879 8.288666 19.264465l0 0c0 15.046509 -12.669983 27.24411 -28.299225 27.24411l0 0c-15.629211 0 -28.299194 -12.197601 -28.299194 -27.24411z" fill-rule="nonzero"></path><path stroke="#000000" stroke-width="1.0" stroke-linejoin="round" stroke-linecap="butt" d="m439.80054 342.60367l0 0c0 -15.046478 12.669983 -27.24408 28.299194 -27.24408l0 0c7.505432 0 14.70343 2.8703308 20.01056 7.9796143c5.307129 5.109253 8.288666 12.038879 8.288666 19.264465l0 0c0 15.046509 -12.669983 27.24411 -28.299225 27.24411l0 0c-15.629211 0 -28.299194 -12.197601 -28.299194 -27.24411z" fill-rule="nonzero"></path><path fill="#000000" d="m458.80792 349.52368l0 -1.90625l1.90625 0l0 1.90625l-1.90625 0zm5.183319 0l0 -1.90625l1.90625 0l0 1.90625l-1.90625 0zm5.1832886 0l0 -1.90625l1.90625 0l0 1.90625l-1.90625 0z" fill-rule="nonzero"></path><path fill="#000000" fill-opacity="0.0" d="m340.3322 315.36005c1.9901733 -4.073395 3.0849 -19.552246 11.941193 -24.440247c8.856293 -4.88797 32.539337 -2.606598 41.196564 -4.887726c8.657227 -2.2811584 8.955658 -7.332611 10.746796 -8.799133" fill-rule="nonzero"></path><path stroke="#000000" stroke-width="1.0" stroke-linejoin="round" stroke-linecap="butt" d="m340.3322 315.36005c1.9901733 -4.073395 3.0849 -19.552246 11.941193 -24.440247c8.856293 -4.88797 32.539337 -2.606598 41.196564 -4.887726c8.657227 -2.2811584 8.955658 -7.332611 10.746796 -8.799133" fill-rule="nonzero"></path><path fill="#000000" fill-opacity="0.0" d="m468.10168 315.36005c-1.9902039 -4.073395 -3.0849304 -19.552246 -11.941223 -24.440247c-8.856293 -4.88797 -32.539337 -2.606598 -41.196564 -4.887726c-8.657227 -2.2811584 -8.955658 -7.332611 -10.746796 -8.799133" fill-rule="nonzero"></path><path stroke="#000000" stroke-width="1.0" stroke-linejoin="round" stroke-linecap="butt" d="m468.10168 315.36005c-1.9902039 -4.073395 -3.0849304 -19.552246 -11.941223 -24.440247c-8.856293 -4.88797 -32.539337 -2.606598 -41.196564 -4.887726c-8.657227 -2.2811584 -8.955658 -7.332611 -10.746796 -8.799133" fill-rule="nonzero"></path><path fill="#000000" fill-opacity="0.0" d="m527.69965 315.36005c1.9902344 -4.073395 3.0849 -19.552246 11.941223 -24.440247c8.856262 -4.88797 32.539307 -2.606598 41.196533 -4.887726c8.657227 -2.2811584 8.955688 -7.332611 10.746826 -8.799133" fill-rule="nonzero"></path><path stroke="#000000" stroke-width="1.0" stroke-linejoin="round" stroke-linecap="butt" d="m527.69965 315.36005c1.9902344 -4.073395 3.0849 -19.552246 11.941223 -24.440247c8.856262 -4.88797 32.539307 -2.606598 41.196533 -4.887726c8.657227 -2.2811584 8.955688 -7.332611 10.746826 -8.799133" fill-rule="nonzero"></path><path fill="#000000" fill-opacity="0.0" d="m655.4691 315.36005c-1.9901733 -4.073395 -3.0849 -19.552246 -11.941162 -24.440247c-8.856323 -4.88797 -32.539368 -2.606598 -41.196594 -4.887726c-8.657227 -2.2811584 -8.955688 -7.332611 -10.746826 -8.799133" fill-rule="nonzero"></path><path stroke="#000000" stroke-width="1.0" stroke-linejoin="round" stroke-linecap="butt" d="m655.4691 315.36005c-1.9901733 -4.073395 -3.0849 -19.552246 -11.941162 -24.440247c-8.856323 -4.88797 -32.539368 -2.606598 -41.196594 -4.887726c-8.657227 -2.2811584 -8.955688 -7.332611 -10.746826 -8.799133" fill-rule="nonzero"></path><path fill="#000000" fill-opacity="0.0" d="m313.79266 342.60367l0 0c0 -15.046478 12.669983 -27.24408 28.299194 -27.24408l0 0c7.505432 0 14.70343 2.8703308 20.01056 7.9796143c5.307129 5.109253 8.288666 12.038879 8.288666 19.264465l0 0c0 15.046509 -12.669983 27.24411 -28.299225 27.24411l0 0c-15.629211 0 -28.299194 -12.197601 -28.299194 -27.24411z" fill-rule="nonzero"></path><path stroke="#000000" stroke-width="1.0" stroke-linejoin="round" stroke-linecap="butt" d="m313.79266 342.60367l0 0c0 -15.046478 12.669983 -27.24408 28.299194 -27.24408l0 0c7.505432 0 14.70343 2.8703308 20.01056 7.9796143c5.307129 5.109253 8.288666 12.038879 8.288666 19.264465l0 0c0 15.046509 -12.669983 27.24411 -28.299225 27.24411l0 0c-15.629211 0 -28.299194 -12.197601 -28.299194 -27.24411z" fill-rule="nonzero"></path><path fill="#000000" d="m332.80005 349.52368l0 -1.90625l1.90625 0l0 1.90625l-1.90625 0zm5.1832886 0l0 -1.90625l1.90625 0l0 1.90625l-1.90625 0zm5.183319 0l0 -1.90625l1.90625 0l0 1.90625l-1.90625 0z" fill-rule="nonzero"></path><path fill="#000000" fill-opacity="0.0" d="m500.72177 342.60367l0 0c0 -15.046478 12.670013 -27.24408 28.299225 -27.24408l0 0c7.505432 0 14.70343 2.8703308 20.01056 7.9796143c5.307129 5.109253 8.288635 12.038879 8.288635 19.264465l0 0c0 15.046509 -12.669983 27.24411 -28.299194 27.24411l0 0c-15.629211 0 -28.299225 -12.197601 -28.299225 -27.24411z" fill-rule="nonzero"></path><path stroke="#000000" stroke-width="1.0" stroke-linejoin="round" stroke-linecap="butt" d="m500.72177 342.60367l0 0c0 -15.046478 12.670013 -27.24408 28.299225 -27.24408l0 0c7.505432 0 14.70343 2.8703308 20.01056 7.9796143c5.307129 5.109253 8.288635 12.038879 8.288635 19.264465l0 0c0 15.046509 -12.669983 27.24411 -28.299194 27.24411l0 0c-15.629211 0 -28.299225 -12.197601 -28.299225 -27.24411z" fill-rule="nonzero"></path><path fill="#000000" d="m519.7292 349.52368l0 -1.90625l1.90625 0l0 1.90625l-1.90625 0zm5.1832886 0l0 -1.90625l1.90625 0l0 1.90625l-1.90625 0zm5.1832886 0l0 -1.90625l1.90625 0l0 1.90625l-1.90625 0z" fill-rule="nonzero"></path><path fill="#000000" fill-opacity="0.0" d="m626.4042 342.60367l0 0c0 -15.046478 12.670044 -27.24408 28.299255 -27.24408l0 0c7.505371 0 14.70343 2.8703308 20.01056 7.9796143c5.307129 5.109253 8.288635 12.038879 8.288635 19.264465l0 0c0 15.046509 -12.669983 27.24411 -28.299194 27.24411l0 0c-15.629211 0 -28.299255 -12.197601 -28.299255 -27.24411z" fill-rule="nonzero"></path><path stroke="#000000" stroke-width="1.0" stroke-linejoin="round" stroke-linecap="butt" d="m626.4042 342.60367l0 0c0 -15.046478 12.670044 -27.24408 28.299255 -27.24408l0 0c7.505371 0 14.70343 2.8703308 20.01056 7.9796143c5.307129 5.109253 8.288635 12.038879 8.288635 19.264465l0 0c0 15.046509 -12.669983 27.24411 -28.299194 27.24411l0 0c-15.629211 0 -28.299255 -12.197601 -28.299255 -27.24411z" fill-rule="nonzero"></path><path fill="#000000" d="m645.4116 349.52368l0 -1.90625l1.90625 0l0 1.90625l-1.90625 0zm5.1832886 0l0 -1.90625l1.90625 0l0 1.90625l-1.90625 0zm5.1832886 0l0 -1.90625l1.90625 0l0 1.90625l-1.90625 0z" fill-rule="nonzero"></path></g></svg>

