<?xml version="1.0" standalone="yes"?>

<svg version="1.1" viewBox="0.0 0.0 725.5590551181102 486.56692913385825" fill="none" stroke="none" stroke-linecap="square" stroke-miterlimit="10" xmlns="http://www.w3.org/2000/svg" xmlns:xlink="http://www.w3.org/1999/xlink"><clipPath id="p.0"><path d="m0 0l725.5591 0l0 486.56693l-725.5591 0l0 -486.56693z" clip-rule="nonzero"></path></clipPath><g clip-path="url(#p.0)"><path fill="#000000" fill-opacity="0.0" d="m0 0l725.5591 0l0 486.56693l-725.5591 0z" fill-rule="nonzero"></path><path fill="#cfe2f3" d="m262.41208 349.58035l0 0c0 -8.184418 6.6347656 -14.819183 14.819183 -14.819183l167.212 0c3.9302979 0 7.6996155 1.5612793 10.47876 4.3404236c2.7791443 2.7791443 4.340454 6.548462 4.340454 10.47876l0 59.274994c0 8.184418 -6.634796 14.819183 -14.819214 14.819183l-167.212 0c-8.184418 0 -14.819183 -6.6347656 -14.819183 -14.819183z" fill-rule="nonzero"></path><path stroke="#000000" stroke-width="1.0" stroke-linejoin="round" stroke-linecap="butt" d="m262.41208 349.58035l0 0c0 -8.184418 6.6347656 -14.819183 14.819183 -14.819183l167.212 0c3.9302979 0 7.6996155 1.5612793 10.47876 4.3404236c2.7791443 2.7791443 4.340454 6.548462 4.340454 10.47876l0 59.274994c0 8.184418 -6.634796 14.819183 -14.819214 14.819183l-167.212 0c-8.184418 0 -14.819183 -6.6347656 -14.819183 -14.819183z" fill-rule="nonzero"></path><path fill="#000000" d="m332.0132 386.13785l0 -13.59375l1.8125 0l0 13.59375l-1.8125 0zm4.6676636 0l0 -9.859375l1.5 0l0 1.40625q1.09375 -1.625 3.140625 -1.625q0.890625 0 1.640625 0.328125q0.75 0.3125 1.109375 0.84375q0.375 0.515625 0.53125 1.21875q0.09375 0.46875 0.09375 1.625l0 6.0625l-1.671875 0l0 -6.0q0 -1.015625 -0.203125 -1.515625q-0.1875 -0.515625 -0.6875 -0.8125q-0.5 -0.296875 -1.171875 -0.296875q-1.0625 0 -1.84375 0.671875q-0.765625 0.671875 -0.765625 2.578125l0 5.375l-1.671875 0zm10.375732 -11.65625l0 -1.9375l1.65625 0l0 1.9375l-1.65625 0zm-2.125 15.484375l0.3125 -1.421875q0.5 0.125 0.796875 0.125q0.515625 0 0.765625 -0.34375q0.25 -0.328125 0.25 -1.6875l0 -10.359375l1.65625 0l0 10.390625q0 1.828125 -0.46875 2.546875q-0.59375 0.921875 -2.0 0.921875q-0.671875 0 -1.3125 -0.171875zm13.019806 -7.0l1.71875 0.21875q-0.40625 1.5 -1.515625 2.34375q-1.09375 0.828125 -2.8125 0.828125q-2.15625 0 -3.421875 -1.328125q-1.265625 -1.328125 -1.265625 -3.734375q0 -2.484375 1.265625 -3.859375q1.28125 -1.375 3.328125 -1.375q1.984375 0 3.234375 1.34375q1.25 1.34375 1.25 3.796875q0 0.140625 -0.015625 0.4375l-7.34375 0q0.09375 1.625 0.921875 2.484375q0.828125 0.859375 2.0625 0.859375q0.90625 0 1.546875 -0.46875q0.65625 -0.484375 1.046875 -1.546875zm-5.484375 -2.703125l5.5 0q-0.109375 -1.234375 -0.625 -1.859375q-0.796875 -0.96875 -2.078125 -0.96875q-1.140625 0 -1.9375 0.78125q-0.78125 0.765625 -0.859375 2.046875zm15.547607 2.265625l1.640625 0.21875q-0.265625 1.6875 -1.375 2.65625q-1.109375 0.953125 -2.734375 0.953125q-2.015625 0 -3.25 -1.3125q-1.21875 -1.328125 -1.21875 -3.796875q0 -1.59375 0.515625 -2.78125q0.53125 -1.203125 1.609375 -1.796875q1.09375 -0.609375 2.359375 -0.609375q1.609375 0 2.625 0.8125q1.015625 0.8125 1.3125 2.3125l-1.625 0.25q-0.234375 -1.0 -0.828125 -1.5q-0.59375 -0.5 -1.421875 -0.5q-1.265625 0 -2.0625 0.90625q-0.78125 0.90625 -0.78125 2.859375q0 1.984375 0.765625 2.890625q0.765625 0.890625 1.984375 0.890625q0.984375 0 1.640625 -0.59375q0.65625 -0.609375 0.84375 -1.859375zm6.546875 2.109375l0.234375 1.484375q-0.703125 0.140625 -1.265625 0.140625q-0.90625 0 -1.40625 -0.28125q-0.5 -0.296875 -0.703125 -0.75q-0.203125 -0.46875 -0.203125 -1.984375l0 -5.65625l-1.234375 0l0 -1.3125l1.234375 0l0 -2.4375l1.65625 -1.0l0 3.4375l1.6875 0l0 1.3125l-1.6875 0l0 5.75q0 0.71875 0.078125 0.921875q0.09375 0.203125 0.296875 0.328125q0.203125 0.125 0.578125 0.125q0.265625 0 0.734375 -0.078125zm0.9020386 -3.421875q0 -2.734375 1.53125 -4.0625q1.265625 -1.09375 3.09375 -1.09375q2.03125 0 3.3125 1.34375q1.296875 1.328125 1.296875 3.671875q0 1.90625 -0.578125 3.0q-0.5625 1.078125 -1.65625 1.6875q-1.078125 0.59375 -2.375 0.59375q-2.0625 0 -3.34375 -1.328125q-1.28125 -1.328125 -1.28125 -3.8125zm1.71875 0q0 1.890625 0.828125 2.828125q0.828125 0.9375 2.078125 0.9375q1.25 0 2.0625 -0.9375q0.828125 -0.953125 0.828125 -2.890625q0 -1.828125 -0.828125 -2.765625q-0.828125 -0.9375 -2.0625 -0.9375q-1.25 0 -2.078125 0.9375q-0.828125 0.9375 -0.828125 2.828125zm9.266357 4.921875l0 -9.859375l1.5 0l0 1.5q0.578125 -1.046875 1.0625 -1.375q0.484375 -0.34375 1.078125 -0.34375q0.84375 0 1.71875 0.546875l-0.578125 1.546875q-0.609375 -0.359375 -1.234375 -0.359375q-0.546875 0 -0.984375 0.328125q-0.421875 0.328125 -0.609375 0.90625q-0.28125 0.890625 -0.28125 1.953125l0 5.15625l-1.671875 0z" fill-rule="nonzero"></path><path fill="#000000" fill-opacity="0.0" d="m42.50656 263.9239c9.7894745 7.194214 15.174171 34.53238 58.736855 43.165344c43.562675 8.632996 160.05573 4.603668 202.63925 8.632538c42.583527 4.0289 44.051514 12.950592 52.861816 15.54071" fill-rule="nonzero"></path><path stroke="#000000" stroke-width="1.0" stroke-linejoin="round" stroke-linecap="butt" d="m42.50656 263.9239c9.7894745 7.194214 15.174171 34.53238 58.736855 43.165344c43.562675 8.632996 160.05573 4.603668 202.63925 8.632538c42.583527 4.0289 44.051514 12.950592 52.861816 15.54071" fill-rule="nonzero"></path><path fill="#000000" fill-opacity="0.0" d="m670.984 263.9239c-9.789429 7.194214 -15.174133 34.53238 -58.736816 43.165344c-43.562683 8.632996 -160.05576 4.603668 -202.63925 8.632538c-42.583527 4.0289 -44.051544 12.950592 -52.861847 15.54071" fill-rule="nonzero"></path><path stroke="#000000" stroke-width="1.0" stroke-linejoin="round" stroke-linecap="butt" d="m670.984 263.9239c-9.789429 7.194214 -15.174133 34.53238 -58.736816 43.165344c-43.562683 8.632996 -160.05576 4.603668 -202.63925 8.632538c-42.583527 4.0289 -44.051544 12.950592 -52.861847 15.54071" fill-rule="nonzero"></path><path fill="#cfe2f3" d="m124.65879 189.6798l66.4882 0l0 82.01573l-66.4882 0z" fill-rule="nonzero"></path><path stroke="#000000" stroke-width="1.0" stroke-linejoin="round" stroke-linecap="butt" d="m124.65879 189.6798l66.4882 0l0 82.01573l-66.4882 0z" fill-rule="nonzero"></path><path fill="#000000" fill-opacity="0.0" d="m140.2021 271.69553l0 -90.64566l35.401566 0l0 90.64566z" fill-rule="nonzero"></path><path fill="#000000" d="m170.90335 261.44553l-13.640625 0l0 -1.53125l1.28125 0q-0.75 -0.53125 -1.125 -1.203125q-0.375 -0.6875 -0.375 -1.640625q0 -1.2656097 0.65625 -2.2343597q0.640625 -0.96875 1.828125 -1.453125q1.1875 -0.5 2.59375 -0.5q1.515625 0 2.734375 0.546875q1.203125 0.546875 1.84375 1.578125q0.640625 1.0312347 0.640625 2.1718597q0 0.84375 -0.34375 1.515625q-0.359375 0.65625 -0.890625 1.078125l4.796875 0l0 1.671875zm-8.65625 -1.515625q1.90625 0 2.8125 -0.765625q0.90625 -0.78125 0.90625 -1.875q0 -1.109375 -0.9375 -1.8906097q-0.9375 -0.796875 -2.921875 -0.796875q-1.875 0 -2.8125 0.78125q-0.9375 0.76560974 -0.9375 1.8437347q0 1.0625 1.0 1.890625q1.0 0.8125 2.890625 0.8125zm4.875 -8.844452l-9.859375 0l0 -1.5l1.5 0q-1.046875 -0.578125 -1.375 -1.0625q-0.34375 -0.484375 -0.34375 -1.078125q0 -0.84375 0.546875 -1.71875l1.546875 0.578125q-0.359375 0.609375 -0.359375 1.234375q0 0.546875 0.328125 0.984375q0.328125 0.421875 0.90625 0.609375q0.890625 0.28125 1.953125 0.28125l5.15625 0l0 1.671875zm-4.921875 -5.603302q-2.734375 0 -4.0625 -1.53125q-1.09375 -1.265625 -1.09375 -3.09375q0 -2.03125 1.34375 -3.3125q1.328125 -1.296875 3.671875 -1.296875q1.90625 0 3.0 0.578125q1.078125 0.5625 1.6875 1.65625q0.59375 1.078125 0.59375 2.375q0 2.0625 -1.328125 3.34375q-1.328125 1.28125 -3.8125 1.28125zm0 -1.71875q1.890625 0 2.828125 -0.828125q0.9375 -0.828125 0.9375 -2.078125q0 -1.25 -0.9375 -2.0625q-0.953125 -0.828125 -2.890625 -0.828125q-1.828125 0 -2.765625 0.828125q-0.9375 0.828125 -0.9375 2.0625q0 1.25 0.9375 2.078125q0.9375 0.828125 2.828125 0.828125zm4.921875 -12.016342l-9.859375 3.75l0 -1.765625l5.90625 -2.125q0.953125 -0.34375 1.984375 -0.625q-0.78125 -0.21875 -1.875 -0.625l-6.015625 -2.1875l0 -1.71875l9.859375 3.734375l0 1.5625zm-11.6875 -6.609375l-1.90625 0l0 -1.671875l1.90625 0l0 1.671875zm11.6875 0l-9.859375 0l0 -1.671875l9.859375 0l0 1.671875zm0 -10.519821l-1.25 0q1.46875 0.9375 1.46875 2.75q0 1.171875 -0.640625 2.171875q-0.65625 0.984375 -1.8125 1.53125q-1.171875 0.53125 -2.6875 0.53125q-1.46875 0 -2.671875 -0.484375q-1.203125 -0.5 -1.84375 -1.46875q-0.640625 -0.984375 -0.640625 -2.203125q0 -0.890625 0.375 -1.578125q0.375 -0.703125 0.984375 -1.140625l-4.875 0l0 -1.65625l13.59375 0l0 1.546875zm-4.921875 5.28125q1.890625 0 2.828125 -0.796875q0.9375 -0.8125 0.9375 -1.890625q0 -1.09375 -0.890625 -1.859375q-0.890625 -0.765625 -2.734375 -0.765625q-2.015625 0 -2.953125 0.78125q-0.953125 0.78125 -0.953125 1.921875q0 1.109375 0.90625 1.859375q0.90625 0.75 2.859375 0.75zm1.75 -16.016342l0.21875 -1.71875q1.5 0.40625 2.34375 1.515625q0.828125 1.09375 0.828125 2.8125q0 2.15625 -1.328125 3.421875q-1.328125 1.265625 -3.734375 1.265625q-2.484375 0 -3.859375 -1.265625q-1.375 -1.28125 -1.375 -3.328125q0 -1.984375 1.34375 -3.234375q1.34375 -1.25 3.796875 -1.25q0.140625 0 0.4375 0.015625l0 7.34375q1.625 -0.09375 2.484375 -0.921875q0.859375 -0.828125 0.859375 -2.0625q0 -0.90625 -0.46875 -1.546875q-0.484375 -0.65625 -1.546875 -1.046875zm-2.703125 5.484375l0 -5.5q-1.234375 0.109375 -1.859375 0.625q-0.96875 0.796875 -0.96875 2.078125q0 1.140625 0.78125 1.9375q0.765625 0.78125 2.046875 0.859375zm5.875 -9.094467l-9.859375 0l0 -1.5l1.5 0q-1.046875 -0.578125 -1.375 -1.0625q-0.34375 -0.484375 -0.34375 -1.078125q0 -0.84375 0.546875 -1.71875l1.546875 0.578125q-0.359375 0.609375 -0.359375 1.234375q0 0.546875 0.328125 0.984375q0.328125 0.421875 0.90625 0.609375q0.890625 0.28125 1.953125 0.28125l5.15625 0l0 1.671875z" fill-rule="nonzero"></path><path fill="#cfe2f3" d="m226.12599 189.6798l66.488174 0l0 82.01573l-66.488174 0z" fill-rule="nonzero"></path><path stroke="#000000" stroke-width="1.0" stroke-linejoin="round" stroke-linecap="butt" d="m226.12599 189.6798l66.488174 0l0 82.01573l-66.488174 0z" fill-rule="nonzero"></path><path fill="#000000" fill-opacity="0.0" d="m241.6693 271.69553l0 -90.64566l35.401566 0l0 90.64566z" fill-rule="nonzero"></path><path fill="#000000" d="m272.37054 261.44553l-13.640625 0l0 -1.53125l1.28125 0q-0.75 -0.53125 -1.125 -1.203125q-0.375 -0.6875 -0.375 -1.640625q0 -1.2656097 0.65625 -2.2343597q0.640625 -0.96875 1.828125 -1.453125q1.1875 -0.5 2.59375 -0.5q1.515625 0 2.734375 0.546875q1.203125 0.546875 1.84375 1.578125q0.640625 1.0312347 0.640625 2.1718597q0 0.84375 -0.34375 1.515625q-0.359375 0.65625 -0.890625 1.078125l4.796875 0l0 1.671875zm-8.65625 -1.515625q1.90625 0 2.8125 -0.765625q0.90625 -0.78125 0.90625 -1.875q0 -1.109375 -0.9375 -1.8906097q-0.9375 -0.796875 -2.921875 -0.796875q-1.875 0 -2.8125 0.78125q-0.9375 0.76560974 -0.9375 1.8437347q0 1.0625 1.0 1.890625q1.0 0.8125 2.890625 0.8125zm4.875 -8.844452l-9.859375 0l0 -1.5l1.5 0q-1.046875 -0.578125 -1.375 -1.0625q-0.34375 -0.484375 -0.34375 -1.078125q0 -0.84375 0.546875 -1.71875l1.546875 0.578125q-0.359375 0.609375 -0.359375 1.234375q0 0.546875 0.328125 0.984375q0.328125 0.421875 0.90625 0.609375q0.890625 0.28125 1.953125 0.28125l5.15625 0l0 1.671875zm-4.921875 -5.603302q-2.734375 0 -4.0625 -1.53125q-1.09375 -1.265625 -1.09375 -3.09375q0 -2.03125 1.34375 -3.3125q1.328125 -1.296875 3.671875 -1.296875q1.90625 0 3.0 0.578125q1.078125 0.5625 1.6875 1.65625q0.59375 1.078125 0.59375 2.375q0 2.0625 -1.328125 3.34375q-1.328125 1.28125 -3.8125 1.28125zm0 -1.71875q1.890625 0 2.828125 -0.828125q0.9375 -0.828125 0.9375 -2.078125q0 -1.25 -0.9375 -2.0625q-0.953125 -0.828125 -2.890625 -0.828125q-1.828125 0 -2.765625 0.828125q-0.9375 0.828125 -0.9375 2.0625q0 1.25 0.9375 2.078125q0.9375 0.828125 2.828125 0.828125zm4.921875 -12.016342l-9.859375 3.75l0 -1.765625l5.90625 -2.125q0.953125 -0.34375 1.984375 -0.625q-0.78125 -0.21875 -1.875 -0.625l-6.015625 -2.1875l0 -1.71875l9.859375 3.734375l0 1.5625zm-11.6875 -6.609375l-1.90625 0l0 -1.671875l1.90625 0l0 1.671875zm11.6875 0l-9.859375 0l0 -1.671875l9.859375 0l0 1.671875zm0 -10.519821l-1.25 0q1.46875 0.9375 1.46875 2.75q0 1.171875 -0.640625 2.171875q-0.65625 0.984375 -1.8125 1.53125q-1.171875 0.53125 -2.6875 0.53125q-1.46875 0 -2.671875 -0.484375q-1.203125 -0.5 -1.84375 -1.46875q-0.640625 -0.984375 -0.640625 -2.203125q0 -0.890625 0.375 -1.578125q0.375 -0.703125 0.984375 -1.140625l-4.875 0l0 -1.65625l13.59375 0l0 1.546875zm-4.921875 5.28125q1.890625 0 2.828125 -0.796875q0.9375 -0.8125 0.9375 -1.890625q0 -1.09375 -0.890625 -1.859375q-0.890625 -0.765625 -2.734375 -0.765625q-2.015625 0 -2.953125 0.78125q-0.953125 0.78125 -0.953125 1.921875q0 1.109375 0.90625 1.859375q0.90625 0.75 2.859375 0.75zm1.75 -16.016342l0.21875 -1.71875q1.5 0.40625 2.34375 1.515625q0.828125 1.09375 0.828125 2.8125q0 2.15625 -1.328125 3.421875q-1.328125 1.265625 -3.734375 1.265625q-2.484375 0 -3.859375 -1.265625q-1.375 -1.28125 -1.375 -3.328125q0 -1.984375 1.34375 -3.234375q1.34375 -1.25 3.796875 -1.25q0.140625 0 0.4375 0.015625l0 7.34375q1.625 -0.09375 2.484375 -0.921875q0.859375 -0.828125 0.859375 -2.0625q0 -0.90625 -0.46875 -1.546875q-0.484375 -0.65625 -1.546875 -1.046875zm-2.703125 5.484375l0 -5.5q-1.234375 0.109375 -1.859375 0.625q-0.96875 0.796875 -0.96875 2.078125q0 1.140625 0.78125 1.9375q0.765625 0.78125 2.046875 0.859375zm5.875 -9.094467l-9.859375 0l0 -1.5l1.5 0q-1.046875 -0.578125 -1.375 -1.0625q-0.34375 -0.484375 -0.34375 -1.078125q0 -0.84375 0.546875 -1.71875l1.546875 0.578125q-0.359375 0.609375 -0.359375 1.234375q0 0.546875 0.328125 0.984375q0.328125 0.421875 0.90625 0.609375q0.890625 0.28125 1.953125 0.28125l5.15625 0l0 1.671875z" fill-rule="nonzero"></path><path fill="#cfe2f3" d="m327.59317 189.6798l66.48819 0l0 82.01573l-66.48819 0z" fill-rule="nonzero"></path><path stroke="#000000" stroke-width="1.0" stroke-linejoin="round" stroke-linecap="butt" d="m327.59317 189.6798l66.48819 0l0 82.01573l-66.48819 0z" fill-rule="nonzero"></path><path fill="#000000" fill-opacity="0.0" d="m343.13647 271.69553l0 -90.64566l35.40158 0l0 90.64566z" fill-rule="nonzero"></path><path fill="#000000" d="m373.83774 261.44553l-13.640625 0l0 -1.53125l1.28125 0q-0.75 -0.53125 -1.125 -1.203125q-0.375 -0.6875 -0.375 -1.640625q0 -1.2656097 0.65625 -2.2343597q0.640625 -0.96875 1.828125 -1.453125q1.1875 -0.5 2.59375 -0.5q1.515625 0 2.734375 0.546875q1.203125 0.546875 1.84375 1.578125q0.640625 1.0312347 0.640625 2.1718597q0 0.84375 -0.34375 1.515625q-0.359375 0.65625 -0.890625 1.078125l4.796875 0l0 1.671875zm-8.65625 -1.515625q1.90625 0 2.8125 -0.765625q0.90625 -0.78125 0.90625 -1.875q0 -1.109375 -0.9375 -1.8906097q-0.9375 -0.796875 -2.921875 -0.796875q-1.875 0 -2.8125 0.78125q-0.9375 0.76560974 -0.9375 1.8437347q0 1.0625 1.0 1.890625q1.0 0.8125 2.890625 0.8125zm4.875 -8.844452l-9.859375 0l0 -1.5l1.5 0q-1.046875 -0.578125 -1.375 -1.0625q-0.34375 -0.484375 -0.34375 -1.078125q0 -0.84375 0.546875 -1.71875l1.546875 0.578125q-0.359375 0.609375 -0.359375 1.234375q0 0.546875 0.328125 0.984375q0.328125 0.421875 0.90625 0.609375q0.890625 0.28125 1.953125 0.28125l5.15625 0l0 1.671875zm-4.921875 -5.603302q-2.734375 0 -4.0625 -1.53125q-1.09375 -1.265625 -1.09375 -3.09375q0 -2.03125 1.34375 -3.3125q1.328125 -1.296875 3.671875 -1.296875q1.90625 0 3.0 0.578125q1.078125 0.5625 1.6875 1.65625q0.59375 1.078125 0.59375 2.375q0 2.0625 -1.328125 3.34375q-1.328125 1.28125 -3.8125 1.28125zm0 -1.71875q1.890625 0 2.828125 -0.828125q0.9375 -0.828125 0.9375 -2.078125q0 -1.25 -0.9375 -2.0625q-0.953125 -0.828125 -2.890625 -0.828125q-1.828125 0 -2.765625 0.828125q-0.9375 0.828125 -0.9375 2.0625q0 1.25 0.9375 2.078125q0.9375 0.828125 2.828125 0.828125zm4.921875 -12.016342l-9.859375 3.75l0 -1.765625l5.90625 -2.125q0.953125 -0.34375 1.984375 -0.625q-0.78125 -0.21875 -1.875 -0.625l-6.015625 -2.1875l0 -1.71875l9.859375 3.734375l0 1.5625zm-11.6875 -6.609375l-1.90625 0l0 -1.671875l1.90625 0l0 1.671875zm11.6875 0l-9.859375 0l0 -1.671875l9.859375 0l0 1.671875zm0 -10.519821l-1.25 0q1.46875 0.9375 1.46875 2.75q0 1.171875 -0.640625 2.171875q-0.65625 0.984375 -1.8125 1.53125q-1.171875 0.53125 -2.6875 0.53125q-1.46875 0 -2.671875 -0.484375q-1.203125 -0.5 -1.84375 -1.46875q-0.640625 -0.984375 -0.640625 -2.203125q0 -0.890625 0.375 -1.578125q0.375 -0.703125 0.984375 -1.140625l-4.875 0l0 -1.65625l13.59375 0l0 1.546875zm-4.921875 5.28125q1.890625 0 2.828125 -0.796875q0.9375 -0.8125 0.9375 -1.890625q0 -1.09375 -0.890625 -1.859375q-0.890625 -0.765625 -2.734375 -0.765625q-2.015625 0 -2.953125 0.78125q-0.953125 0.78125 -0.953125 1.921875q0 1.109375 0.90625 1.859375q0.90625 0.75 2.859375 0.75zm1.75 -16.016342l0.21875 -1.71875q1.5 0.40625 2.34375 1.515625q0.828125 1.09375 0.828125 2.8125q0 2.15625 -1.328125 3.421875q-1.328125 1.265625 -3.734375 1.265625q-2.484375 0 -3.859375 -1.265625q-1.375 -1.28125 -1.375 -3.328125q0 -1.984375 1.34375 -3.234375q1.34375 -1.25 3.796875 -1.25q0.140625 0 0.4375 0.015625l0 7.34375q1.625 -0.09375 2.484375 -0.921875q0.859375 -0.828125 0.859375 -2.0625q0 -0.90625 -0.46875 -1.546875q-0.484375 -0.65625 -1.546875 -1.046875zm-2.703125 5.484375l0 -5.5q-1.234375 0.109375 -1.859375 0.625q-0.96875 0.796875 -0.96875 2.078125q0 1.140625 0.78125 1.9375q0.765625 0.78125 2.046875 0.859375zm5.875 -9.094467l-9.859375 0l0 -1.5l1.5 0q-1.046875 -0.578125 -1.375 -1.0625q-0.34375 -0.484375 -0.34375 -1.078125q0 -0.84375 0.546875 -1.71875l1.546875 0.578125q-0.359375 0.609375 -0.359375 1.234375q0 0.546875 0.328125 0.984375q0.328125 0.421875 0.90625 0.609375q0.890625 0.28125 1.953125 0.28125l5.15625 0l0 1.671875z" fill-rule="nonzero"></path><path fill="#cfe2f3" d="m429.06036 189.6798l66.48819 0l0 82.01573l-66.48819 0z" fill-rule="nonzero"></path><path stroke="#000000" stroke-width="1.0" stroke-linejoin="round" stroke-linecap="butt" d="m429.06036 189.6798l66.48819 0l0 82.01573l-66.48819 0z" fill-rule="nonzero"></path><path fill="#000000" fill-opacity="0.0" d="m444.60367 271.69553l0 -90.64566l35.40158 0l0 90.64566z" fill-rule="nonzero"></path><path fill="#000000" d="m475.30493 261.44553l-13.640625 0l0 -1.53125l1.28125 0q-0.75 -0.53125 -1.125 -1.203125q-0.375 -0.6875 -0.375 -1.640625q0 -1.2656097 0.65625 -2.2343597q0.640625 -0.96875 1.828125 -1.453125q1.1875 -0.5 2.59375 -0.5q1.515625 0 2.734375 0.546875q1.203125 0.546875 1.84375 1.578125q0.640625 1.0312347 0.640625 2.1718597q0 0.84375 -0.34375 1.515625q-0.359375 0.65625 -0.890625 1.078125l4.796875 0l0 1.671875zm-8.65625 -1.515625q1.90625 0 2.8125 -0.765625q0.90625 -0.78125 0.90625 -1.875q0 -1.109375 -0.9375 -1.8906097q-0.9375 -0.796875 -2.921875 -0.796875q-1.875 0 -2.8125 0.78125q-0.9375 0.76560974 -0.9375 1.8437347q0 1.0625 1.0 1.890625q1.0 0.8125 2.890625 0.8125zm4.875 -8.844452l-9.859375 0l0 -1.5l1.5 0q-1.046875 -0.578125 -1.375 -1.0625q-0.34375 -0.484375 -0.34375 -1.078125q0 -0.84375 0.546875 -1.71875l1.546875 0.578125q-0.359375 0.609375 -0.359375 1.234375q0 0.546875 0.328125 0.984375q0.328125 0.421875 0.90625 0.609375q0.890625 0.28125 1.953125 0.28125l5.15625 0l0 1.671875zm-4.921875 -5.603302q-2.734375 0 -4.0625 -1.53125q-1.09375 -1.265625 -1.09375 -3.09375q0 -2.03125 1.34375 -3.3125q1.328125 -1.296875 3.671875 -1.296875q1.90625 0 3.0 0.578125q1.078125 0.5625 1.6875 1.65625q0.59375 1.078125 0.59375 2.375q0 2.0625 -1.328125 3.34375q-1.328125 1.28125 -3.8125 1.28125zm0 -1.71875q1.890625 0 2.828125 -0.828125q0.9375 -0.828125 0.9375 -2.078125q0 -1.25 -0.9375 -2.0625q-0.953125 -0.828125 -2.890625 -0.828125q-1.828125 0 -2.765625 0.828125q-0.9375 0.828125 -0.9375 2.0625q0 1.25 0.9375 2.078125q0.9375 0.828125 2.828125 0.828125zm4.921875 -12.016342l-9.859375 3.75l0 -1.765625l5.90625 -2.125q0.953125 -0.34375 1.984375 -0.625q-0.78125 -0.21875 -1.875 -0.625l-6.015625 -2.1875l0 -1.71875l9.859375 3.734375l0 1.5625zm-11.6875 -6.609375l-1.90625 0l0 -1.671875l1.90625 0l0 1.671875zm11.6875 0l-9.859375 0l0 -1.671875l9.859375 0l0 1.671875zm0 -10.519821l-1.25 0q1.46875 0.9375 1.46875 2.75q0 1.171875 -0.640625 2.171875q-0.65625 0.984375 -1.8125 1.53125q-1.171875 0.53125 -2.6875 0.53125q-1.46875 0 -2.671875 -0.484375q-1.203125 -0.5 -1.84375 -1.46875q-0.640625 -0.984375 -0.640625 -2.203125q0 -0.890625 0.375 -1.578125q0.375 -0.703125 0.984375 -1.140625l-4.875 0l0 -1.65625l13.59375 0l0 1.546875zm-4.921875 5.28125q1.890625 0 2.828125 -0.796875q0.9375 -0.8125 0.9375 -1.890625q0 -1.09375 -0.890625 -1.859375q-0.890625 -0.765625 -2.734375 -0.765625q-2.015625 0 -2.953125 0.78125q-0.953125 0.78125 -0.953125 1.921875q0 1.109375 0.90625 1.859375q0.90625 0.75 2.859375 0.75zm1.75 -16.016342l0.21875 -1.71875q1.5 0.40625 2.34375 1.515625q0.828125 1.09375 0.828125 2.8125q0 2.15625 -1.328125 3.421875q-1.328125 1.265625 -3.734375 1.265625q-2.484375 0 -3.859375 -1.265625q-1.375 -1.28125 -1.375 -3.328125q0 -1.984375 1.34375 -3.234375q1.34375 -1.25 3.796875 -1.25q0.140625 0 0.4375 0.015625l0 7.34375q1.625 -0.09375 2.484375 -0.921875q0.859375 -0.828125 0.859375 -2.0625q0 -0.90625 -0.46875 -1.546875q-0.484375 -0.65625 -1.546875 -1.046875zm-2.703125 5.484375l0 -5.5q-1.234375 0.109375 -1.859375 0.625q-0.96875 0.796875 -0.96875 2.078125q0 1.140625 0.78125 1.9375q0.765625 0.78125 2.046875 0.859375zm5.875 -9.094467l-9.859375 0l0 -1.5l1.5 0q-1.046875 -0.578125 -1.375 -1.0625q-0.34375 -0.484375 -0.34375 -1.078125q0 -0.84375 0.546875 -1.71875l1.546875 0.578125q-0.359375 0.609375 -0.359375 1.234375q0 0.546875 0.328125 0.984375q0.328125 0.421875 0.90625 0.609375q0.890625 0.28125 1.953125 0.28125l5.15625 0l0 1.671875z" fill-rule="nonzero"></path><path fill="#cfe2f3" d="m530.5276 189.6798l66.48816 0l0 82.01573l-66.48816 0z" fill-rule="nonzero"></path><path stroke="#000000" stroke-width="1.0" stroke-linejoin="round" stroke-linecap="butt" d="m530.5276 189.6798l66.48816 0l0 82.01573l-66.48816 0z" fill-rule="nonzero"></path><path fill="#000000" fill-opacity="0.0" d="m546.07086 271.69553l0 -90.64566l35.40155 0l0 90.64566z" fill-rule="nonzero"></path><path fill="#000000" d="m576.7721 261.44553l-13.640625 0l0 -1.53125l1.28125 0q-0.75 -0.53125 -1.125 -1.203125q-0.375 -0.6875 -0.375 -1.640625q0 -1.2656097 0.65625 -2.2343597q0.640625 -0.96875 1.828125 -1.453125q1.1875 -0.5 2.59375 -0.5q1.515625 0 2.734375 0.546875q1.203125 0.546875 1.84375 1.578125q0.640625 1.0312347 0.640625 2.1718597q0 0.84375 -0.34375 1.515625q-0.359375 0.65625 -0.890625 1.078125l4.796875 0l0 1.671875zm-8.65625 -1.515625q1.90625 0 2.8125 -0.765625q0.90625 -0.78125 0.90625 -1.875q0 -1.109375 -0.9375 -1.8906097q-0.9375 -0.796875 -2.921875 -0.796875q-1.875 0 -2.8125 0.78125q-0.9375 0.76560974 -0.9375 1.8437347q0 1.0625 1.0 1.890625q1.0 0.8125 2.890625 0.8125zm4.875 -8.844452l-9.859375 0l0 -1.5l1.5 0q-1.046875 -0.578125 -1.375 -1.0625q-0.34375 -0.484375 -0.34375 -1.078125q0 -0.84375 0.546875 -1.71875l1.546875 0.578125q-0.359375 0.609375 -0.359375 1.234375q0 0.546875 0.328125 0.984375q0.328125 0.421875 0.90625 0.609375q0.890625 0.28125 1.953125 0.28125l5.15625 0l0 1.671875zm-4.921875 -5.603302q-2.734375 0 -4.0625 -1.53125q-1.09375 -1.265625 -1.09375 -3.09375q0 -2.03125 1.34375 -3.3125q1.328125 -1.296875 3.671875 -1.296875q1.90625 0 3.0 0.578125q1.078125 0.5625 1.6875 1.65625q0.59375 1.078125 0.59375 2.375q0 2.0625 -1.328125 3.34375q-1.328125 1.28125 -3.8125 1.28125zm0 -1.71875q1.890625 0 2.828125 -0.828125q0.9375 -0.828125 0.9375 -2.078125q0 -1.25 -0.9375 -2.0625q-0.953125 -0.828125 -2.890625 -0.828125q-1.828125 0 -2.765625 0.828125q-0.9375 0.828125 -0.9375 2.0625q0 1.25 0.9375 2.078125q0.9375 0.828125 2.828125 0.828125zm4.921875 -12.016342l-9.859375 3.75l0 -1.765625l5.90625 -2.125q0.953125 -0.34375 1.984375 -0.625q-0.78125 -0.21875 -1.875 -0.625l-6.015625 -2.1875l0 -1.71875l9.859375 3.734375l0 1.5625zm-11.6875 -6.609375l-1.90625 0l0 -1.671875l1.90625 0l0 1.671875zm11.6875 0l-9.859375 0l0 -1.671875l9.859375 0l0 1.671875zm0 -10.519821l-1.25 0q1.46875 0.9375 1.46875 2.75q0 1.171875 -0.640625 2.171875q-0.65625 0.984375 -1.8125 1.53125q-1.171875 0.53125 -2.6875 0.53125q-1.46875 0 -2.671875 -0.484375q-1.203125 -0.5 -1.84375 -1.46875q-0.640625 -0.984375 -0.640625 -2.203125q0 -0.890625 0.375 -1.578125q0.375 -0.703125 0.984375 -1.140625l-4.875 0l0 -1.65625l13.59375 0l0 1.546875zm-4.921875 5.28125q1.890625 0 2.828125 -0.796875q0.9375 -0.8125 0.9375 -1.890625q0 -1.09375 -0.890625 -1.859375q-0.890625 -0.765625 -2.734375 -0.765625q-2.015625 0 -2.953125 0.78125q-0.953125 0.78125 -0.953125 1.921875q0 1.109375 0.90625 1.859375q0.90625 0.75 2.859375 0.75zm1.75 -16.016342l0.21875 -1.71875q1.5 0.40625 2.34375 1.515625q0.828125 1.09375 0.828125 2.8125q0 2.15625 -1.328125 3.421875q-1.328125 1.265625 -3.734375 1.265625q-2.484375 0 -3.859375 -1.265625q-1.375 -1.28125 -1.375 -3.328125q0 -1.984375 1.34375 -3.234375q1.34375 -1.25 3.796875 -1.25q0.140625 0 0.4375 0.015625l0 7.34375q1.625 -0.09375 2.484375 -0.921875q0.859375 -0.828125 0.859375 -2.0625q0 -0.90625 -0.46875 -1.546875q-0.484375 -0.65625 -1.546875 -1.046875zm-2.703125 5.484375l0 -5.5q-1.234375 0.109375 -1.859375 0.625q-0.96875 0.796875 -0.96875 2.078125q0 1.140625 0.78125 1.9375q0.765625 0.78125 2.046875 0.859375zm5.875 -9.094467l-9.859375 0l0 -1.5l1.5 0q-1.046875 -0.578125 -1.375 -1.0625q-0.34375 -0.484375 -0.34375 -1.078125q0 -0.84375 0.546875 -1.71875l1.546875 0.578125q-0.359375 0.609375 -0.359375 1.234375q0 0.546875 0.328125 0.984375q0.328125 0.421875 0.90625 0.609375q0.890625 0.28125 1.953125 0.28125l5.15625 0l0 1.671875z" fill-rule="nonzero"></path><path fill="#efefef" d="m205.14008 79.60818l0 0c0 -28.846184 32.782944 -52.23064 73.22278 -52.23064l0 0c40.43982 0 73.22275 23.384457 73.22275 52.23064l0 0c0 28.846191 -32.78293 52.230644 -73.22275 52.230644l0 0c-40.439835 0 -73.22278 -23.384453 -73.22278 -52.230644z" fill-rule="nonzero"></path><path stroke="#000000" stroke-width="1.0" stroke-linejoin="round" stroke-linecap="butt" d="m205.14008 79.60818l0 0c0 -28.846184 32.782944 -52.23064 73.22278 -52.23064l0 0c40.43982 0 73.22275 23.384457 73.22275 52.23064l0 0c0 28.846191 -32.78293 52.230644 -73.22275 52.230644l0 0c-40.439835 0 -73.22278 -23.384453 -73.22278 -52.230644z" fill-rule="nonzero"></path><path fill="#000000" fill-opacity="0.0" d="m227.4185 92.739334c-1.2086334 0 -2.1884308 -0.97979736 -2.1884308 -2.1884384l0 -8.75428c0 -1.208641 -0.97979736 -2.1884384 -2.188446 -2.1884384c1.2086487 0 2.188446 -0.97979736 2.188446 -2.1884384l0 -8.75428l0 0c0 -1.208641 0.97979736 -2.1884384 2.1884308 -2.1884384l101.886246 0c0.5804138 0 1.1370544 0.23056793 1.5474548 0.6409836c0.4104309 0.41040802 0.6409912 0.96704865 0.6409912 1.5474548l0 8.75428c0 1.208641 0.97979736 2.1884384 2.188446 2.1884384c-1.2086487 0 -2.188446 0.97979736 -2.188446 2.1884384l0 8.75428c0 1.208641 -0.97979736 2.1884384 -2.188446 2.1884384z" fill-rule="nonzero"></path><path fill="#000000" fill-opacity="0.0" d="m227.4185 92.739334c-1.2086334 0 -2.1884308 -0.97979736 -2.1884308 -2.1884384l0 -8.75428c0 -1.208641 -0.97979736 -2.1884384 -2.188446 -2.1884384c1.2086487 0 2.188446 -0.97979736 2.188446 -2.1884384l0 -8.75428l0 0c0 -1.208641 0.97979736 -2.1884384 2.1884308 -2.1884384m101.886246 0c0.5804138 0 1.1370544 0.23056793 1.5474548 0.6409836c0.4104309 0.41040802 0.6409912 0.96704865 0.6409912 1.5474548l0 8.75428c0 1.208641 0.97979736 2.1884384 2.188446 2.1884384c-1.2086487 0 -2.188446 0.97979736 -2.188446 2.1884384l0 8.75428c0 1.208641 -0.97979736 2.1884384 -2.188446 2.1884384" fill-rule="nonzero"></path><path stroke="#000000" stroke-width="1.0" stroke-linejoin="round" stroke-linecap="butt" d="m227.4185 92.739334c-1.2086334 0 -2.1884308 -0.97979736 -2.1884308 -2.1884384l0 -8.75428c0 -1.208641 -0.97979736 -2.1884384 -2.188446 -2.1884384c1.2086487 0 2.188446 -0.97979736 2.188446 -2.1884384l0 -8.75428l0 0c0 -1.208641 0.97979736 -2.1884384 2.1884308 -2.1884384m101.886246 0c0.5804138 0 1.1370544 0.23056793 1.5474548 0.6409836c0.4104309 0.41040802 0.6409912 0.96704865 0.6409912 1.5474548l0 8.75428c0 1.208641 0.97979736 2.1884384 2.188446 2.1884384c-1.2086487 0 -2.188446 0.97979736 -2.188446 2.1884384l0 8.75428c0 1.208641 -0.97979736 2.1884384 -2.188446 2.1884384" fill-rule="nonzero"></path><path fill="#000000" d="m235.93355 86.5624l0 -11.453125l1.40625 0l0 6.53125l3.328125 -3.375l1.828125 0l-3.171875 3.078125l3.484375 5.21875l-1.734375 0l-2.734375 -4.25l-1.0 0.953125l0 3.296875l-1.40625 0zm13.671875 -2.671875l1.453125 0.171875q-0.34375 1.28125 -1.28125 1.984375q-0.921875 0.703125 -2.359375 0.703125q-1.828125 0 -2.890625 -1.125q-1.0625 -1.125 -1.0625 -3.140625q0 -2.09375 1.078125 -3.25q1.078125 -1.15625 2.796875 -1.15625q1.65625 0 2.703125 1.140625q1.0625 1.125 1.0625 3.171875q0 0.125 0 0.375l-6.1875 0q0.078125 1.375 0.765625 2.109375q0.703125 0.71875 1.734375 0.71875q0.78125 0 1.328125 -0.40625q0.546875 -0.40625 0.859375 -1.296875zm-4.609375 -2.28125l4.625 0q-0.09375 -1.046875 -0.53125 -1.5625q-0.671875 -0.8125 -1.734375 -0.8125q-0.96875 0 -1.640625 0.65625q-0.65625 0.640625 -0.71875 1.71875zm7.7734375 8.15625l-0.15625 -1.328125q0.453125 0.125 0.796875 0.125q0.46875 0 0.75 -0.15625q0.28125 -0.15625 0.46875 -0.4375q0.125 -0.203125 0.421875 -1.046875q0.046875 -0.109375 0.125 -0.34375l-3.140625 -8.3125l1.515625 0l1.71875 4.796875q0.34375 0.921875 0.609375 1.921875q0.23435974 -0.96875 0.57810974 -1.890625l1.765625 -4.828125l1.40625 0l-3.15625 8.4375q-0.49998474 1.375 -0.78123474 1.890625q-0.375 0.6875 -0.859375 1.015625q-0.484375 0.328125 -1.15625 0.328125q-0.40625 0 -0.90625 -0.171875zm8.45311 -9.90625l0 -1.59375l1.59375 0l0 1.59375l-1.59375 0zm0 6.703125l0 -1.609375l1.59375 0l0 1.609375l-1.59375 0zm10.796875 0l-3.15625 -8.296875l1.484375 0l1.78125 4.96875q0.296875 0.796875 0.53125 1.671875q0.1875 -0.65625 0.53125 -1.578125l1.84375 -5.0625l1.4375 0l-3.140625 8.296875l-1.3125 0zm11.109375 -1.03125q-0.78125 0.671875 -1.5 0.953125q-0.71875 0.265625 -1.546875 0.265625q-1.375 0 -2.109375 -0.671875q-0.734375 -0.671875 -0.734375 -1.703125q0 -0.609375 0.28125 -1.109375q0.28125 -0.515625 0.71875 -0.8125q0.453125 -0.3125 1.015625 -0.46875q0.421875 -0.109375 1.25 -0.203125q1.703125 -0.203125 2.515625 -0.484375q0 -0.296875 0 -0.375q0 -0.859375 -0.390625 -1.203125q-0.546875 -0.484375 -1.609375 -0.484375q-0.984375 0 -1.46875 0.359375q-0.46875 0.34375 -0.6875 1.21875l-1.375 -0.1875q0.1875 -0.875 0.609375 -1.421875q0.4375 -0.546875 1.25 -0.828125q0.8125 -0.296875 1.875 -0.296875q1.0625 0 1.71875 0.25q0.671875 0.25 0.984375 0.625q0.3125 0.375 0.4375 0.953125q0.078125 0.359375 0.078125 1.296875l0 1.875q0 1.96875 0.078125 2.484375q0.09375 0.515625 0.359375 1.0l-1.46875 0q-0.21875 -0.4375 -0.28125 -1.03125zm-0.109375 -3.140625q-0.765625 0.3125 -2.296875 0.53125q-0.875 0.125 -1.234375 0.28125q-0.359375 0.15625 -0.5625 0.46875q-0.1875 0.296875 -0.1875 0.65625q0 0.5625 0.421875 0.9375q0.4375 0.375 1.25 0.375q0.8125 0 1.4375 -0.34375q0.640625 -0.359375 0.9375 -0.984375q0.234375 -0.46875 0.234375 -1.40625l0 -0.515625zm3.5703125 4.171875l0 -11.453125l1.40625 0l0 11.453125l-1.40625 0zm9.0234375 0l0 -1.21875q-0.96875 1.40625 -2.640625 1.40625q-0.734375 0 -1.375 -0.28125q-0.625 -0.28125 -0.9375 -0.703125q-0.3125 -0.4375 -0.4375 -1.046875q-0.078125 -0.421875 -0.078125 -1.3125l0 -5.140625l1.40625 0l0 4.59375q0 1.109375 0.078125 1.484375q0.140625 0.5625 0.5625 0.875q0.4375 0.3125 1.0625 0.3125q0.640625 0 1.1875 -0.3125q0.5625 -0.328125 0.78125 -0.890625q0.234375 -0.5625 0.234375 -1.625l0 -4.4375l1.40625 0l0 8.296875l-1.25 0zm9.1328125 -2.671875l1.453125 0.171875q-0.34375 1.28125 -1.28125 1.984375q-0.921875 0.703125 -2.359375 0.703125q-1.828125 0 -2.890625 -1.125q-1.0625 -1.125 -1.0625 -3.140625q0 -2.09375 1.078125 -3.25q1.078125 -1.15625 2.796875 -1.15625q1.65625 0 2.703125 1.140625q1.0625 1.125 1.0625 3.171875q0 0.125 0 0.375l-6.1875 0q0.078125 1.375 0.765625 2.109375q0.703125 0.71875 1.734375 0.71875q0.78125 0 1.328125 -0.40625q0.546875 -0.40625 0.859375 -1.296875zm-4.609375 -2.28125l4.625 0q-0.09375 -1.046875 -0.53125 -1.5625q-0.671875 -0.8125 -1.734375 -0.8125q-0.96875 0 -1.640625 0.65625q-0.65625 0.640625 -0.71875 1.71875z" fill-rule="nonzero"></path><path fill="#000000" fill-opacity="0.0" d="m176.3188 190.55656l50.267715 -74.01575" fill-rule="nonzero"></path><path stroke="#000000" stroke-width="1.0" stroke-linejoin="round" stroke-linecap="butt" d="m176.3188 190.55656l50.267715 -74.01575" fill-rule="nonzero"></path></g></svg>

