<?xml version="1.0" standalone="yes"?>

<svg version="1.1" viewBox="0.0 0.0 1180.5590551181103 354.5196850393701" fill="none" stroke="none" stroke-linecap="square" stroke-miterlimit="10" xmlns="http://www.w3.org/2000/svg" xmlns:xlink="http://www.w3.org/1999/xlink"><clipPath id="p.0"><path d="m0 0l1180.5591 0l0 354.51968l-1180.5591 0l0 -354.51968z" clip-rule="nonzero"></path></clipPath><g clip-path="url(#p.0)"><path fill="#000000" fill-opacity="0.0" d="m0 0l1180.5591 0l0 354.51968l-1180.5591 0z" fill-rule="nonzero"></path><path fill="#cfe2f3" d="m251.2231 217.55661l0 0c0 -4.7691803 3.8661804 -8.635345 8.63533 -8.635345l131.20175 0c2.2902527 0 4.4866943 0.90979004 6.1061096 2.5292358c1.6194458 1.6194305 2.5292358 3.8158722 2.5292358 6.1061096l0 34.54033c0 4.7691803 -3.86615 8.63533 -8.635345 8.63533l-131.20175 0l0 0c-4.76915 0 -8.63533 -3.86615 -8.63533 -8.63533z" fill-rule="nonzero"></path><path stroke="#000000" stroke-width="1.0" stroke-linejoin="round" stroke-linecap="butt" d="m251.2231 217.55661l0 0c0 -4.7691803 3.8661804 -8.635345 8.63533 -8.635345l131.20175 0c2.2902527 0 4.4866943 0.90979004 6.1061096 2.5292358c1.6194458 1.6194305 2.5292358 3.8158722 2.5292358 6.1061096l0 34.54033c0 4.7691803 -3.86615 8.63533 -8.635345 8.63533l-131.20175 0l0 0c-4.76915 0 -8.63533 -3.86615 -8.63533 -8.63533z" fill-rule="nonzero"></path><path fill="#000000" d="m264.3148 241.74677l0 -13.59375l9.171875 0l0 1.59375l-7.375 0l0 4.21875l6.375 0l0 1.609375l-6.375 0l0 6.171875l-1.796875 0zm11.099121 -11.6875l0 -1.90625l1.671875 0l0 1.90625l-1.671875 0zm0 11.6875l0 -9.859375l1.671875 0l0 9.859375l-1.671875 0zm4.097931 0l0 -13.59375l1.671875 0l0 13.59375l-1.671875 0zm7.8323364 -1.5l0.234375 1.484375q-0.703125 0.140625 -1.265625 0.140625q-0.90625 0 -1.40625 -0.28125q-0.5 -0.296875 -0.703125 -0.75q-0.203125 -0.46875 -0.203125 -1.984375l0 -5.65625l-1.234375 0l0 -1.3125l1.234375 0l0 -2.4375l1.65625 -1.0l0 3.4375l1.6875 0l0 1.3125l-1.6875 0l0 5.75q0 0.71875 0.078125 0.921875q0.09375 0.203125 0.296875 0.328125q0.203125 0.125 0.578125 0.125q0.265625 0 0.734375 -0.078125zm8.277039 -1.671875l1.71875 0.21875q-0.40625 1.5 -1.515625 2.34375q-1.09375 0.828125 -2.8125 0.828125q-2.15625 0 -3.421875 -1.328125q-1.265625 -1.328125 -1.265625 -3.734375q0 -2.484375 1.265625 -3.859375q1.28125 -1.375 3.328125 -1.375q1.984375 0 3.234375 1.34375q1.25 1.34375 1.25 3.796875q0 0.140625 -0.015625 0.4375l-7.34375 0q0.09375 1.625 0.921875 2.484375q0.828125 0.859375 2.0625 0.859375q0.90625 0 1.546875 -0.46875q0.65625 -0.484375 1.046875 -1.546875zm-5.484375 -2.703125l5.5 0q-0.109375 -1.234375 -0.625 -1.859375q-0.796875 -0.96875 -2.078125 -0.96875q-1.140625 0 -1.9375 0.78125q-0.78125 0.765625 -0.859375 2.046875zm9.094482 5.875l0 -9.859375l1.5 0l0 1.5q0.578125 -1.046875 1.0625 -1.375q0.484375 -0.34375 1.078125 -0.34375q0.84375 0 1.71875 0.546875l-0.578125 1.546875q-0.609375 -0.359375 -1.234375 -0.359375q-0.546875 0 -0.984375 0.328125q-0.421875 0.328125 -0.609375 0.90625q-0.28125 0.890625 -0.28125 1.953125l0 5.15625l-1.671875 0zm6.540802 0l0 -13.59375l9.171875 0l0 1.59375l-7.375 0l0 4.21875l6.375 0l0 1.609375l-6.375 0l0 6.171875l-1.796875 0zm11.099091 -11.6875l0 -1.90625l1.671875 0l0 1.90625l-1.671875 0zm0 11.6875l0 -9.859375l1.671875 0l0 9.859375l-1.671875 0zm10.879211 -3.171875l1.71875 0.21875q-0.40625 1.5 -1.515625 2.34375q-1.09375 0.828125 -2.8125 0.828125q-2.15625 0 -3.421875 -1.328125q-1.265625 -1.328125 -1.265625 -3.734375q0 -2.484375 1.265625 -3.859375q1.28125 -1.375 3.328125 -1.375q1.984375 0 3.234375 1.34375q1.25 1.34375 1.25 3.796875q0 0.140625 -0.015625 0.4375l-7.34375 0q0.09375 1.625 0.921875 2.484375q0.828125 0.859375 2.0625 0.859375q0.90625 0 1.546875 -0.46875q0.65625 -0.484375 1.046875 -1.546875zm-5.484375 -2.703125l5.5 0q-0.109375 -1.234375 -0.625 -1.859375q-0.796875 -0.96875 -2.078125 -0.96875q-1.140625 0 -1.9375 0.78125q-0.78125 0.765625 -0.859375 2.046875zm9.078827 5.875l0 -13.59375l1.671875 0l0 13.59375l-1.671875 0zm10.566711 0l0 -1.25q-0.9375 1.46875 -2.75 1.46875q-1.171875 0 -2.171875 -0.640625q-0.984375 -0.65625 -1.53125 -1.8125q-0.53125 -1.171875 -0.53125 -2.6875q0 -1.46875 0.484375 -2.671875q0.5 -1.203125 1.46875 -1.84375q0.984375 -0.640625 2.203125 -0.640625q0.890625 0 1.578125 0.375q0.703125 0.375 1.140625 0.984375l0 -4.875l1.65625 0l0 13.59375l-1.546875 0zm-5.28125 -4.921875q0 1.890625 0.796875 2.828125q0.8125 0.9375 1.890625 0.9375q1.09375 0 1.859375 -0.890625q0.765625 -0.890625 0.765625 -2.734375q0 -2.015625 -0.78125 -2.953125q-0.78125 -0.953125 -1.921875 -0.953125q-1.109375 0 -1.859375 0.90625q-0.75 0.90625 -0.75 2.859375zm9.485077 4.921875l0 -13.59375l5.125 0q1.359375 0 2.078125 0.125q1.0 0.171875 1.671875 0.640625q0.671875 0.46875 1.078125 1.3125q0.421875 0.84375 0.421875 1.84375q0 1.734375 -1.109375 2.9375q-1.09375 1.203125 -3.984375 1.203125l-3.484375 0l0 5.53125l-1.796875 0zm1.796875 -7.140625l3.515625 0q1.75 0 2.46875 -0.640625q0.734375 -0.65625 0.734375 -1.828125q0 -0.859375 -0.4375 -1.46875q-0.421875 -0.609375 -1.125 -0.796875q-0.453125 -0.125 -1.671875 -0.125l-3.484375 0l0 4.859375zm10.443573 -4.546875l0 -1.90625l1.671875 0l0 1.90625l-1.671875 0zm0 11.6875l0 -9.859375l1.671875 0l0 9.859375l-1.671875 0zm4.1292114 3.78125l0 -13.640625l1.53125 0l0 1.28125q0.53125 -0.75 1.203125 -1.125q0.6875 -0.375 1.640625 -0.375q1.265625 0 2.234375 0.65625q0.96875 0.640625 1.453125 1.828125q0.5 1.1875 0.5 2.59375q0 1.515625 -0.546875 2.734375q-0.546875 1.203125 -1.578125 1.84375q-1.03125 0.640625 -2.171875 0.640625q-0.84375 0 -1.515625 -0.34375q-0.65625 -0.359375 -1.078125 -0.890625l0 4.796875l-1.671875 0zm1.515625 -8.65625q0 1.90625 0.765625 2.8125q0.78125 0.90625 1.875 0.90625q1.109375 0 1.890625 -0.9375q0.796875 -0.9375 0.796875 -2.921875q0 -1.875 -0.78125 -2.8125q-0.765625 -0.9375 -1.84375 -0.9375q-1.0625 0 -1.890625 1.0q-0.8125 1.0 -0.8125 2.890625zm15.610077 1.703125l1.71875 0.21875q-0.40625 1.5 -1.515625 2.34375q-1.09375 0.828125 -2.8125 0.828125q-2.15625 0 -3.421875 -1.328125q-1.265625 -1.328125 -1.265625 -3.734375q0 -2.484375 1.265625 -3.859375q1.28125 -1.375 3.328125 -1.375q1.984375 0 3.234375 1.34375q1.25 1.34375 1.25 3.796875q0 0.140625 -0.015625 0.4375l-7.34375 0q0.09375 1.625 0.921875 2.484375q0.828125 0.859375 2.0625 0.859375q0.90625 0 1.546875 -0.46875q0.65625 -0.484375 1.046875 -1.546875zm-5.484375 -2.703125l5.5 0q-0.109375 -1.234375 -0.625 -1.859375q-0.796875 -0.96875 -2.078125 -0.96875q-1.140625 0 -1.9375 0.78125q-0.78125 0.765625 -0.859375 2.046875z" fill-rule="nonzero"></path><path fill="#cfe2f3" d="m39.765747 294.38846l0 0c3.3669815 0 6.0964584 -2.7294922 6.0964584 -6.096466l-6.0964584 0c1.6834908 0 3.0482292 -1.3647461 3.0482292 -3.0482178c0 -1.6835022 -1.3647385 -3.0482483 -3.0482292 -3.0482483l6.0964584 0l0 -120.70274l0 0c0 -3.3669739 2.729477 -6.096451 6.0964546 -6.096451l73.157486 0c3.3669815 0 6.0964584 2.729477 6.0964584 6.096451c0 3.3669739 -2.729477 6.096451 -6.0964584 6.096451l-6.0964584 0l0 120.70276c0 3.3669739 -2.729477 6.096466 -6.0964584 6.096466zm18.289371 -132.89568l0 0c0 3.3669739 -2.729477 6.096451 -6.0964584 6.096451c-1.6834869 0 -3.0482254 -1.3647308 -3.0482254 -3.0482178c0 -1.6835022 1.3647385 -3.048233 3.0482254 -3.048233z" fill-rule="nonzero"></path><path fill="#a5b4c2" d="m58.05512 161.49278l0 0c0 3.3669739 -2.729477 6.096451 -6.0964584 6.096451c-1.6834869 0 -3.0482254 -1.3647308 -3.0482254 -3.0482178c0 -1.6835022 1.3647385 -3.048233 3.0482254 -3.048233zm-12.192913 126.79921c0 3.3669739 -2.729477 6.096466 -6.0964584 6.096466c-3.3669777 0 -6.0964546 -2.7294922 -6.0964546 -6.096466c0 -3.3669739 2.729477 -6.096466 6.0964546 -6.096466l0 0c1.6834908 0 3.0482292 1.3647461 3.0482292 3.0482483c0 1.6834717 -1.3647385 3.0482178 -3.0482292 3.0482178z" fill-rule="nonzero"></path><path fill="#000000" fill-opacity="0.0" d="m45.862206 282.19553l0 -120.70274l0 0c0 -3.3669739 2.729477 -6.096451 6.0964546 -6.096451l73.157486 0c3.3669815 0 6.0964584 2.729477 6.0964584 6.096451c0 3.3669739 -2.729477 6.096451 -6.0964584 6.096451l-6.0964584 0l0 120.70276c0 3.3669739 -2.729477 6.096466 -6.0964584 6.096466l-73.15748 0l0 0c-3.3669777 0 -6.0964546 -2.7294922 -6.0964546 -6.096466c0 -3.3669739 2.729477 -6.096466 6.0964546 -6.096466zm6.0964546 -126.799194l0 0c3.3669815 0 6.0964584 2.729477 6.0964584 6.096451c0 3.3669739 -2.729477 6.096451 -6.0964584 6.096451c-1.6834869 0 -3.0482254 -1.3647308 -3.0482254 -3.0482178c0 -1.6835022 1.3647385 -3.048233 3.0482254 -3.048233l6.0964584 0m60.964565 6.096451l-67.06102 0m-12.192913 114.60629l0 0c1.6834908 0 3.0482292 1.3647461 3.0482292 3.0482483c0 1.6834717 -1.3647385 3.0482178 -3.0482292 3.0482178l6.0964584 0m-6.0964584 6.096466l0 0c3.3669815 0 6.0964584 -2.7294922 6.0964584 -6.096466l0 -6.096466" fill-rule="nonzero"></path><path stroke="#000000" stroke-width="1.0" stroke-linejoin="round" stroke-linecap="butt" d="m45.862206 282.19553l0 -120.70274l0 0c0 -3.3669739 2.729477 -6.096451 6.0964546 -6.096451l73.157486 0c3.3669815 0 6.0964584 2.729477 6.0964584 6.096451c0 3.3669739 -2.729477 6.096451 -6.0964584 6.096451l-6.0964584 0l0 120.70276c0 3.3669739 -2.729477 6.096466 -6.0964584 6.096466l-73.15748 0l0 0c-3.3669777 0 -6.0964546 -2.7294922 -6.0964546 -6.096466c0 -3.3669739 2.729477 -6.096466 6.0964546 -6.096466zm6.0964546 -126.799194l0 0c3.3669815 0 6.0964584 2.729477 6.0964584 6.096451c0 3.3669739 -2.729477 6.096451 -6.0964584 6.096451c-1.6834869 0 -3.0482254 -1.3647308 -3.0482254 -3.0482178c0 -1.6835022 1.3647385 -3.048233 3.0482254 -3.048233l6.0964584 0m60.964565 6.096451l-67.06102 0m-12.192913 114.60629l0 0c1.6834908 0 3.0482292 1.3647461 3.0482292 3.0482483c0 1.6834717 -1.3647385 3.0482178 -3.0482292 3.0482178l6.0964584 0m-6.0964584 6.096466l0 0c3.3669815 0 6.0964584 -2.7294922 6.0964584 -6.096466l0 -6.096466" fill-rule="nonzero"></path><path fill="#cfe2f3" d="m55.765747 310.38846l0 0c3.3669815 0 6.0964584 -2.7294922 6.0964584 -6.096466l-6.0964584 0c1.6834908 0 3.0482292 -1.3647461 3.0482292 -3.0482178c0 -1.6835022 -1.3647385 -3.0482483 -3.0482292 -3.0482483l6.0964584 0l0 -120.70274l0 0c0 -3.3669739 2.729477 -6.096451 6.0964584 -6.096451l73.15747 0c3.3669891 0 6.096466 2.729477 6.096466 6.096451c0 3.3669739 -2.729477 6.096451 -6.096466 6.096451l-6.096451 0l0 120.70276c0 3.3669739 -2.729477 6.096466 -6.096451 6.096466zm18.289368 -132.89568l0 0c0 3.3669739 -2.729477 6.096451 -6.096451 6.096451c-1.6834946 0 -3.048233 -1.3647308 -3.048233 -3.0482178c0 -1.6835022 1.3647385 -3.048233 3.048233 -3.048233z" fill-rule="nonzero"></path><path fill="#a5b4c2" d="m74.055115 177.49278l0 0c0 3.3669739 -2.729477 6.096451 -6.096451 6.096451c-1.6834946 0 -3.048233 -1.3647308 -3.048233 -3.0482178c0 -1.6835022 1.3647385 -3.048233 3.048233 -3.048233zm-12.192909 126.79921c0 3.3669739 -2.729477 6.096466 -6.0964584 6.096466c-3.3669777 0 -6.0964546 -2.7294922 -6.0964546 -6.096466c0 -3.3669739 2.729477 -6.096466 6.0964546 -6.096466l0 0c1.6834908 0 3.0482292 1.3647461 3.0482292 3.0482483c0 1.6834717 -1.3647385 3.0482178 -3.0482292 3.0482178z" fill-rule="nonzero"></path><path fill="#000000" fill-opacity="0.0" d="m61.862206 298.19553l0 -120.70274l0 0c0 -3.3669739 2.729477 -6.096451 6.0964584 -6.096451l73.15747 0c3.3669891 0 6.096466 2.729477 6.096466 6.096451c0 3.3669739 -2.729477 6.096451 -6.096466 6.096451l-6.096451 0l0 120.70276c0 3.3669739 -2.729477 6.096466 -6.096451 6.096466l-73.157486 0l0 0c-3.3669777 0 -6.0964546 -2.7294922 -6.0964546 -6.096466c0 -3.3669739 2.729477 -6.096466 6.0964546 -6.096466zm6.0964584 -126.799194l0 0c3.3669739 0 6.096451 2.729477 6.096451 6.096451c0 3.3669739 -2.729477 6.096451 -6.096451 6.096451c-1.6834946 0 -3.048233 -1.3647308 -3.048233 -3.0482178c0 -1.6835022 1.3647385 -3.048233 3.048233 -3.048233l6.096451 0m60.96457 6.096451l-67.06102 0m-12.192917 114.60629l0 0c1.6834908 0 3.0482292 1.3647461 3.0482292 3.0482483c0 1.6834717 -1.3647385 3.0482178 -3.0482292 3.0482178l6.0964584 0m-6.0964584 6.096466l0 0c3.3669815 0 6.0964584 -2.7294922 6.0964584 -6.096466l0 -6.096466" fill-rule="nonzero"></path><path stroke="#000000" stroke-width="1.0" stroke-linejoin="round" stroke-linecap="butt" d="m61.862206 298.19553l0 -120.70274l0 0c0 -3.3669739 2.729477 -6.096451 6.0964584 -6.096451l73.15747 0c3.3669891 0 6.096466 2.729477 6.096466 6.096451c0 3.3669739 -2.729477 6.096451 -6.096466 6.096451l-6.096451 0l0 120.70276c0 3.3669739 -2.729477 6.096466 -6.096451 6.096466l-73.157486 0l0 0c-3.3669777 0 -6.0964546 -2.7294922 -6.0964546 -6.096466c0 -3.3669739 2.729477 -6.096466 6.0964546 -6.096466zm6.0964584 -126.799194l0 0c3.3669739 0 6.096451 2.729477 6.096451 6.096451c0 3.3669739 -2.729477 6.096451 -6.096451 6.096451c-1.6834946 0 -3.048233 -1.3647308 -3.048233 -3.0482178c0 -1.6835022 1.3647385 -3.048233 3.048233 -3.048233l6.096451 0m60.96457 6.096451l-67.06102 0m-12.192917 114.60629l0 0c1.6834908 0 3.0482292 1.3647461 3.0482292 3.0482483c0 1.6834717 -1.3647385 3.0482178 -3.0482292 3.0482178l6.0964584 0m-6.0964584 6.096466l0 0c3.3669815 0 6.0964584 -2.7294922 6.0964584 -6.096466l0 -6.096466" fill-rule="nonzero"></path><path fill="#cfe2f3" d="m71.76575 326.38846l0 0c3.3669815 0 6.0964584 -2.7294922 6.0964584 -6.096466l-6.0964584 0c1.6834946 0 3.048233 -1.3647461 3.048233 -3.0482178c0 -1.6835022 -1.3647385 -3.0482483 -3.048233 -3.0482483l6.0964584 0l0 -120.70274l0 0c0 -3.3669739 2.729477 -6.096451 6.0964584 -6.096451l73.15747 0c3.3669891 0 6.096466 2.729477 6.096466 6.096451c0 3.3669739 -2.729477 6.096451 -6.096466 6.096451l-6.096451 0l0 120.70276c0 3.3669739 -2.729477 6.096466 -6.096451 6.096466zm18.289368 -132.89568l0 0c0 3.3669739 -2.729477 6.096451 -6.096451 6.096451c-1.6834946 0 -3.048233 -1.3647308 -3.048233 -3.0482178c0 -1.6835022 1.3647385 -3.048233 3.048233 -3.048233z" fill-rule="nonzero"></path><path fill="#a5b4c2" d="m90.055115 193.49278l0 0c0 3.3669739 -2.729477 6.096451 -6.096451 6.096451c-1.6834946 0 -3.048233 -1.3647308 -3.048233 -3.0482178c0 -1.6835022 1.3647385 -3.048233 3.048233 -3.048233zm-12.192909 126.79921c0 3.3669739 -2.729477 6.096466 -6.0964584 6.096466c-3.3669815 0 -6.0964584 -2.7294922 -6.0964584 -6.096466c0 -3.3669739 2.729477 -6.096466 6.0964584 -6.096466l0 0c1.6834946 0 3.048233 1.3647461 3.048233 3.0482483c0 1.6834717 -1.3647385 3.0482178 -3.048233 3.0482178z" fill-rule="nonzero"></path><path fill="#000000" fill-opacity="0.0" d="m77.862206 314.19553l0 -120.70274l0 0c0 -3.3669739 2.729477 -6.096451 6.0964584 -6.096451l73.15747 0c3.3669891 0 6.096466 2.729477 6.096466 6.096451c0 3.3669739 -2.729477 6.096451 -6.096466 6.096451l-6.096451 0l0 120.70276c0 3.3669739 -2.729477 6.096466 -6.096451 6.096466l-73.157486 0l0 0c-3.3669815 0 -6.0964584 -2.7294922 -6.0964584 -6.096466c0 -3.3669739 2.729477 -6.096466 6.0964584 -6.096466zm6.0964584 -126.799194l0 0c3.3669739 0 6.096451 2.729477 6.096451 6.096451c0 3.3669739 -2.729477 6.096451 -6.096451 6.096451c-1.6834946 0 -3.048233 -1.3647308 -3.048233 -3.0482178c0 -1.6835022 1.3647385 -3.048233 3.048233 -3.048233l6.096451 0m60.96457 6.096451l-67.06102 0m-12.192917 114.60629l0 0c1.6834946 0 3.048233 1.3647461 3.048233 3.0482483c0 1.6834717 -1.3647385 3.0482178 -3.048233 3.0482178l6.0964584 0m-6.0964584 6.096466l0 0c3.3669815 0 6.0964584 -2.7294922 6.0964584 -6.096466l0 -6.096466" fill-rule="nonzero"></path><path stroke="#000000" stroke-width="1.0" stroke-linejoin="round" stroke-linecap="butt" d="m77.862206 314.19553l0 -120.70274l0 0c0 -3.3669739 2.729477 -6.096451 6.0964584 -6.096451l73.15747 0c3.3669891 0 6.096466 2.729477 6.096466 6.096451c0 3.3669739 -2.729477 6.096451 -6.096466 6.096451l-6.096451 0l0 120.70276c0 3.3669739 -2.729477 6.096466 -6.096451 6.096466l-73.157486 0l0 0c-3.3669815 0 -6.0964584 -2.7294922 -6.0964584 -6.096466c0 -3.3669739 2.729477 -6.096466 6.0964584 -6.096466zm6.0964584 -126.799194l0 0c3.3669739 0 6.096451 2.729477 6.096451 6.096451c0 3.3669739 -2.729477 6.096451 -6.096451 6.096451c-1.6834946 0 -3.048233 -1.3647308 -3.048233 -3.0482178c0 -1.6835022 1.3647385 -3.048233 3.048233 -3.048233l6.096451 0m60.96457 6.096451l-67.06102 0m-12.192917 114.60629l0 0c1.6834946 0 3.048233 1.3647461 3.048233 3.0482483c0 1.6834717 -1.3647385 3.0482178 -3.048233 3.0482178l6.0964584 0m-6.0964584 6.096466l0 0c3.3669815 0 6.0964584 -2.7294922 6.0964584 -6.096466l0 -6.096466" fill-rule="nonzero"></path><path fill="#000000" d="m93.94033 255.86061l-1.671875 0l0 -10.640625q-0.59375 0.578125 -1.578125 1.15625q-0.984375 0.5625 -1.765625 0.859375l0 -1.625q1.40625 -0.65625 2.453125 -1.59375q1.046875 -0.9375 1.484375 -1.8125l1.078125 0l0 13.65625zm4.078842 -6.703125q0 -2.421875 0.5 -3.890625q0.5 -1.46875 1.46875 -2.265625q0.984375 -0.796875 2.46875 -0.796875q1.09375 0 1.921875 0.4375q0.828125 0.4375 1.359375 1.28125q0.546875 0.828125 0.84375 2.015625q0.3125 1.1875 0.3125 3.21875q0 2.390625 -0.5 3.859375q-0.484375 1.46875 -1.46875 2.28125q-0.96875 0.79689026 -2.46875 0.79689026q-1.96875 0 -3.078125 -1.4062653q-1.359375 -1.703125 -1.359375 -5.53125zm1.71875 0q0 3.34375 0.78125 4.453125q0.796875 1.109375 1.9375 1.109375q1.15625 0 1.9375 -1.109375q0.78125 -1.125 0.78125 -4.453125q0 -3.359375 -0.78125 -4.46875q-0.78125 -1.109375 -1.953125 -1.109375q-1.15625 0 -1.828125 0.984375q-0.875 1.234375 -0.875 4.59375z" fill-rule="nonzero"></path><path fill="#000000" d="m88.25283 277.86063l0 -13.59375l5.109375 0q1.546875 0 2.484375 0.40625q0.953125 0.40625 1.484375 1.265625q0.53125 0.859375 0.53125 1.796875q0 0.875 -0.46875 1.65625q-0.46875 0.765625 -1.4375 1.234375q1.234375 0.359375 1.890625 1.234375q0.671875 0.875 0.671875 2.0625q0 0.953125 -0.40625 1.78125q-0.390625 0.8125 -0.984375 1.265625q-0.59375 0.4375 -1.5 0.671875q-0.890625 0.21875 -2.1875 0.21875l-5.1875 0zm1.796875 -7.890625l2.9375 0q1.203125 0 1.71875 -0.15625q0.6875 -0.203125 1.03125 -0.671875q0.359375 -0.46875 0.359375 -1.1875q0 -0.671875 -0.328125 -1.1875q-0.328125 -0.515625 -0.9375 -0.703125q-0.59375 -0.203125 -2.0625 -0.203125l-2.71875 0l0 4.109375zm0 6.28125l3.390625 0q0.875 0 1.21875 -0.0625q0.625 -0.109375 1.046875 -0.359375q0.421875 -0.265625 0.6875 -0.765625q0.265625 -0.5 0.265625 -1.140625q0 -0.765625 -0.390625 -1.328125q-0.390625 -0.5625 -1.078125 -0.78125q-0.6875 -0.234375 -1.984375 -0.234375l-3.15625 0l0 4.671875zm9.881073 -3.3125q0 -2.734375 1.53125 -4.0625q1.265625 -1.09375 3.09375 -1.09375q2.03125 0 3.3125 1.34375q1.296875 1.328125 1.296875 3.671875q0 1.90625 -0.578125 3.0q-0.5625 1.078125 -1.65625 1.6875q-1.078125 0.59375 -2.375 0.59375q-2.0625 0 -3.34375 -1.328125q-1.28125 -1.328125 -1.28125 -3.8125zm1.71875 0q0 1.890625 0.828125 2.828125q0.828125 0.9375 2.078125 0.9375q1.25 0 2.0625 -0.9375q0.828125 -0.953125 0.828125 -2.890625q0 -1.828125 -0.828125 -2.765625q-0.828125 -0.9375 -2.0625 -0.9375q-1.25 0 -2.078125 0.9375q-0.828125 0.9375 -0.828125 2.828125zm8.656967 0q0 -2.734375 1.53125 -4.0625q1.265625 -1.09375 3.09375 -1.09375q2.03125 0 3.3125 1.34375q1.296875 1.328125 1.296875 3.671875q0 1.90625 -0.578125 3.0q-0.5625 1.078125 -1.65625 1.6875q-1.078125 0.59375 -2.375 0.59375q-2.0625 0 -3.34375 -1.328125q-1.28125 -1.328125 -1.28125 -3.8125zm1.71875 0q0 1.890625 0.828125 2.828125q0.828125 0.9375 2.078125 0.9375q1.25 0 2.0625 -0.9375q0.828125 -0.953125 0.828125 -2.890625q0 -1.828125 -0.828125 -2.765625q-0.828125 -0.9375 -2.0625 -0.9375q-1.25 0 -2.078125 0.9375q-0.828125 0.9375 -0.828125 2.828125zm9.297592 4.921875l0 -13.59375l1.671875 0l0 7.75l3.953125 -4.015625l2.1562424 0l-3.7656174 3.65625l4.1406174 6.203125l-2.0624924 0l-3.25 -5.03125l-1.171875 1.125l0 3.90625l-1.671875 0zm8.640617 -2.9375l1.65625 -0.265625q0.140625 1.0 0.765625 1.53125q0.640625 0.515625 1.78125 0.515625q1.15625 0 1.703125 -0.46875q0.5625 -0.46875 0.5625 -1.09375q0 -0.5625 -0.484375 -0.890625q-0.34375 -0.21875 -1.703125 -0.5625q-1.84375 -0.46875 -2.5625 -0.796875q-0.703125 -0.34375 -1.078125 -0.9375q-0.359375 -0.609375 -0.359375 -1.328125q0 -0.65625 0.296875 -1.21875q0.3125 -0.5625 0.828125 -0.9375q0.390625 -0.28125 1.0625 -0.484375q0.671875 -0.203125 1.4375 -0.203125q1.171875 0 2.046875 0.34375q0.875 0.328125 1.28125 0.90625q0.421875 0.5625 0.578125 1.515625l-1.625 0.21875q-0.109375 -0.75 -0.65625 -1.171875q-0.53125 -0.4375 -1.5 -0.4375q-1.15625 0 -1.640625 0.390625q-0.484375 0.375 -0.484375 0.875q0 0.328125 0.203125 0.59375q0.203125 0.265625 0.640625 0.4375q0.25 0.09375 1.46875 0.4375q1.765625 0.46875 2.46875 0.765625q0.703125 0.296875 1.09375 0.875q0.40625 0.578125 0.40625 1.4375q0 0.828125 -0.484375 1.578125q-0.484375 0.734375 -1.40625 1.140625q-0.921875 0.390625 -2.078125 0.390625q-1.921875 0 -2.9375 -0.796875q-1.0 -0.796875 -1.28125 -2.359375z" fill-rule="nonzero"></path><path fill="#000000" fill-opacity="0.0" d="m176.979 235.68242l58.708664 -0.85040283" fill-rule="nonzero"></path><path stroke="#000000" stroke-width="1.0" stroke-linejoin="round" stroke-linecap="butt" d="m176.979 235.68242l52.70929 -0.763504" fill-rule="evenodd"></path><path fill="#000000" stroke="#000000" stroke-width="1.0" stroke-linecap="butt" d="m229.71222 236.57048l4.5137024 -1.7172852l-4.561554 -1.5858307z" fill-rule="evenodd"></path><path fill="#000000" fill-opacity="0.0" d="m417.44095 235.25197l58.70865 -0.8503876" fill-rule="nonzero"></path><path stroke="#000000" stroke-width="1.0" stroke-linejoin="round" stroke-linecap="butt" d="m417.44095 235.25197l52.70926 -0.76348877" fill-rule="evenodd"></path><path fill="#000000" stroke="#000000" stroke-width="1.0" stroke-linecap="butt" d="m470.17416 236.14003l4.5137024 -1.7172852l-4.561554 -1.5858307z" fill-rule="evenodd"></path><path fill="#cfe2f3" d="m499.99146 288.7533l0 0c3.3670044 0 6.096466 -2.7294922 6.096466 -6.096466l-6.096466 0c1.6835022 0 3.0482483 -1.3647461 3.0482483 -3.0482483c0 -1.6834717 -1.3647461 -3.0482178 -3.0482483 -3.0482178l6.096466 0l0 -120.70276l0 0c0 -3.3669739 2.7294922 -6.096451 6.096466 -6.096451l73.15747 0c3.3670044 0 6.0964355 2.729477 6.0964355 6.096451c0 3.3669891 -2.7294312 6.096466 -6.0964355 6.096466l-6.0964355 0l0 120.70276c0 3.3669739 -2.7294922 6.096466 -6.0964966 6.096466zm18.289368 -132.89569l0 0c0 3.3669891 -2.7294312 6.096466 -6.0964355 6.096466c-1.6835022 0 -3.0482178 -1.3647461 -3.0482178 -3.048233c0 -1.6834869 1.3647156 -3.048233 3.0482178 -3.048233z" fill-rule="nonzero"></path><path fill="#a5b4c2" d="m518.2808 155.8576l0 0c0 3.3669891 -2.7294312 6.096466 -6.0964355 6.096466c-1.6835022 0 -3.0482178 -1.3647461 -3.0482178 -3.048233c0 -1.6834869 1.3647156 -3.048233 3.0482178 -3.048233zm-12.192902 126.799225c0 3.3669739 -2.7294617 6.096466 -6.096466 6.096466c-3.3669739 0 -6.0964355 -2.7294922 -6.0964355 -6.096466c0 -3.3669739 2.7294617 -6.096466 6.0964355 -6.096466l0 0c1.6835022 0 3.0482483 1.3647461 3.0482483 3.0482178c0 1.6835022 -1.3647461 3.0482483 -3.0482483 3.0482483z" fill-rule="nonzero"></path><path fill="#000000" fill-opacity="0.0" d="m506.08792 276.56036l0 -120.70276l0 0c0 -3.3669739 2.7294922 -6.096451 6.096466 -6.096451l73.15747 0c3.3670044 0 6.0964355 2.729477 6.0964355 6.096451c0 3.3669891 -2.7294312 6.096466 -6.0964355 6.096466l-6.0964355 0l0 120.70276c0 3.3669739 -2.7294922 6.096466 -6.0964966 6.096466l-73.15747 0l0 0c-3.3669739 0 -6.0964355 -2.7294922 -6.0964355 -6.096466c0 -3.3669739 2.7294617 -6.096466 6.0964355 -6.096466zm6.096466 -126.79921l0 0c3.3670044 0 6.0964355 2.729477 6.0964355 6.096451c0 3.3669891 -2.7294312 6.096466 -6.0964355 6.096466c-1.6835022 0 -3.0482178 -1.3647461 -3.0482178 -3.048233c0 -1.6834869 1.3647156 -3.048233 3.0482178 -3.048233l6.0964355 0m60.9646 6.096466l-67.061035 0m-12.192932 114.60629l0 0c1.6835022 0 3.0482483 1.3647461 3.0482483 3.0482178c0 1.6835022 -1.3647461 3.0482483 -3.0482483 3.0482483l6.096466 0m-6.096466 6.096466l0 0c3.3670044 0 6.096466 -2.7294922 6.096466 -6.096466l0 -6.096466" fill-rule="nonzero"></path><path stroke="#000000" stroke-width="1.0" stroke-linejoin="round" stroke-linecap="butt" d="m506.08792 276.56036l0 -120.70276l0 0c0 -3.3669739 2.7294922 -6.096451 6.096466 -6.096451l73.15747 0c3.3670044 0 6.0964355 2.729477 6.0964355 6.096451c0 3.3669891 -2.7294312 6.096466 -6.0964355 6.096466l-6.0964355 0l0 120.70276c0 3.3669739 -2.7294922 6.096466 -6.0964966 6.096466l-73.15747 0l0 0c-3.3669739 0 -6.0964355 -2.7294922 -6.0964355 -6.096466c0 -3.3669739 2.7294617 -6.096466 6.0964355 -6.096466zm6.096466 -126.79921l0 0c3.3670044 0 6.0964355 2.729477 6.0964355 6.096451c0 3.3669891 -2.7294312 6.096466 -6.0964355 6.096466c-1.6835022 0 -3.0482178 -1.3647461 -3.0482178 -3.048233c0 -1.6834869 1.3647156 -3.048233 3.0482178 -3.048233l6.0964355 0m60.9646 6.096466l-67.061035 0m-12.192932 114.60629l0 0c1.6835022 0 3.0482483 1.3647461 3.0482483 3.0482178c0 1.6835022 -1.3647461 3.0482483 -3.0482483 3.0482483l6.096466 0m-6.096466 6.096466l0 0c3.3670044 0 6.096466 -2.7294922 6.096466 -6.096466l0 -6.096466" fill-rule="nonzero"></path><path fill="#cfe2f3" d="m515.99146 304.7533l0 0c3.3670044 0 6.0964966 -2.7294922 6.0964966 -6.096466l-6.0964966 0c1.6835327 0 3.0482178 -1.3647461 3.0482178 -3.0482483c0 -1.6834717 -1.364685 -3.0482178 -3.0482178 -3.0482178l6.0964966 0l0 -120.70276l0 0c0 -3.3669739 2.7294312 -6.096451 6.0964355 -6.096451l73.15747 0c3.3670044 0 6.0964355 2.729477 6.0964355 6.096451c0 3.3669891 -2.7294312 6.096466 -6.0964355 6.096466l-6.0964355 0l0 120.70276c0 3.3669739 -2.7294922 6.096466 -6.0964966 6.096466zm18.289368 -132.89569l0 0c0 3.3669891 -2.7294312 6.096466 -6.0964355 6.096466c-1.6834717 0 -3.0482178 -1.3647461 -3.0482178 -3.048233c0 -1.6834869 1.3647461 -3.048233 3.0482178 -3.048233z" fill-rule="nonzero"></path><path fill="#a5b4c2" d="m534.2808 171.8576l0 0c0 3.3669891 -2.7294312 6.096466 -6.0964355 6.096466c-1.6834717 0 -3.0482178 -1.3647461 -3.0482178 -3.048233c0 -1.6834869 1.3647461 -3.048233 3.0482178 -3.048233zm-12.192871 126.799225c0 3.3669739 -2.7294922 6.096466 -6.0964966 6.096466c-3.3669434 0 -6.0964355 -2.7294922 -6.0964355 -6.096466c0 -3.3669739 2.7294922 -6.096466 6.0964355 -6.096466l0 0c1.6835327 0 3.0482178 1.3647461 3.0482178 3.0482178c0 1.6835022 -1.364685 3.0482483 -3.0482178 3.0482483z" fill-rule="nonzero"></path><path fill="#000000" fill-opacity="0.0" d="m522.08795 292.56036l0 -120.70276l0 0c0 -3.3669739 2.7294312 -6.096451 6.0964355 -6.096451l73.15747 0c3.3670044 0 6.0964355 2.729477 6.0964355 6.096451c0 3.3669891 -2.7294312 6.096466 -6.0964355 6.096466l-6.0964355 0l0 120.70276c0 3.3669739 -2.7294922 6.096466 -6.0964966 6.096466l-73.15747 0l0 0c-3.3669434 0 -6.0964355 -2.7294922 -6.0964355 -6.096466c0 -3.3669739 2.7294922 -6.096466 6.0964355 -6.096466zm6.0964355 -126.79921l0 0c3.3670044 0 6.0964355 2.729477 6.0964355 6.096451c0 3.3669891 -2.7294312 6.096466 -6.0964355 6.096466c-1.6834717 0 -3.0482178 -1.3647461 -3.0482178 -3.048233c0 -1.6834869 1.3647461 -3.048233 3.0482178 -3.048233l6.0964355 0m60.9646 6.096466l-67.061035 0m-12.192932 114.60629l0 0c1.6835327 0 3.0482178 1.3647461 3.0482178 3.0482178c0 1.6835022 -1.364685 3.0482483 -3.0482178 3.0482483l6.0964966 0m-6.0964966 6.096466l0 0c3.3670044 0 6.0964966 -2.7294922 6.0964966 -6.096466l0 -6.096466" fill-rule="nonzero"></path><path stroke="#000000" stroke-width="1.0" stroke-linejoin="round" stroke-linecap="butt" d="m522.08795 292.56036l0 -120.70276l0 0c0 -3.3669739 2.7294312 -6.096451 6.0964355 -6.096451l73.15747 0c3.3670044 0 6.0964355 2.729477 6.0964355 6.096451c0 3.3669891 -2.7294312 6.096466 -6.0964355 6.096466l-6.0964355 0l0 120.70276c0 3.3669739 -2.7294922 6.096466 -6.0964966 6.096466l-73.15747 0l0 0c-3.3669434 0 -6.0964355 -2.7294922 -6.0964355 -6.096466c0 -3.3669739 2.7294922 -6.096466 6.0964355 -6.096466zm6.0964355 -126.79921l0 0c3.3670044 0 6.0964355 2.729477 6.0964355 6.096451c0 3.3669891 -2.7294312 6.096466 -6.0964355 6.096466c-1.6834717 0 -3.0482178 -1.3647461 -3.0482178 -3.048233c0 -1.6834869 1.3647461 -3.048233 3.0482178 -3.048233l6.0964355 0m60.9646 6.096466l-67.061035 0m-12.192932 114.60629l0 0c1.6835327 0 3.0482178 1.3647461 3.0482178 3.0482178c0 1.6835022 -1.364685 3.0482483 -3.0482178 3.0482483l6.0964966 0m-6.0964966 6.096466l0 0c3.3670044 0 6.0964966 -2.7294922 6.0964966 -6.096466l0 -6.096466" fill-rule="nonzero"></path><path fill="#cfe2f3" d="m531.99146 320.7533l0 0c3.3670044 0 6.0964966 -2.7294922 6.0964966 -6.096466l-6.0964966 0c1.6835327 0 3.0482178 -1.3647461 3.0482178 -3.0482483c0 -1.6834717 -1.364685 -3.0482178 -3.0482178 -3.0482178l6.0964966 0l0 -120.70276l0 0c0 -3.3669739 2.7294312 -6.096451 6.0964355 -6.096451l73.15747 0c3.3670044 0 6.0964355 2.729477 6.0964355 6.096451c0 3.3669891 -2.7294312 6.096466 -6.0964355 6.096466l-6.0964355 0l0 120.70276c0 3.3669739 -2.7294922 6.096466 -6.0964966 6.096466zm18.289368 -132.89569l0 0c0 3.3669891 -2.7294312 6.096466 -6.0964355 6.096466c-1.6834717 0 -3.0482178 -1.3647461 -3.0482178 -3.048233c0 -1.6834869 1.3647461 -3.048233 3.0482178 -3.048233z" fill-rule="nonzero"></path><path fill="#a5b4c2" d="m550.2808 187.8576l0 0c0 3.3669891 -2.7294312 6.096466 -6.0964355 6.096466c-1.6834717 0 -3.0482178 -1.3647461 -3.0482178 -3.048233c0 -1.6834869 1.3647461 -3.048233 3.0482178 -3.048233zm-12.192871 126.799225c0 3.3669739 -2.7294922 6.096466 -6.0964966 6.096466c-3.3669434 0 -6.0964355 -2.7294922 -6.0964355 -6.096466c0 -3.3669739 2.7294922 -6.096466 6.0964355 -6.096466l0 0c1.6835327 0 3.0482178 1.3647461 3.0482178 3.0482178c0 1.6835022 -1.364685 3.0482483 -3.0482178 3.0482483z" fill-rule="nonzero"></path><path fill="#000000" fill-opacity="0.0" d="m538.08795 308.56036l0 -120.70276l0 0c0 -3.3669739 2.7294312 -6.096451 6.0964355 -6.096451l73.15747 0c3.3670044 0 6.0964355 2.729477 6.0964355 6.096451c0 3.3669891 -2.7294312 6.096466 -6.0964355 6.096466l-6.0964355 0l0 120.70276c0 3.3669739 -2.7294922 6.096466 -6.0964966 6.096466l-73.15747 0l0 0c-3.3669434 0 -6.0964355 -2.7294922 -6.0964355 -6.096466c0 -3.3669739 2.7294922 -6.096466 6.0964355 -6.096466zm6.0964355 -126.79921l0 0c3.3670044 0 6.0964355 2.729477 6.0964355 6.096451c0 3.3669891 -2.7294312 6.096466 -6.0964355 6.096466c-1.6834717 0 -3.0482178 -1.3647461 -3.0482178 -3.048233c0 -1.6834869 1.3647461 -3.048233 3.0482178 -3.048233l6.0964355 0m60.9646 6.096466l-67.061035 0m-12.192932 114.60629l0 0c1.6835327 0 3.0482178 1.3647461 3.0482178 3.0482178c0 1.6835022 -1.364685 3.0482483 -3.0482178 3.0482483l6.0964966 0m-6.0964966 6.096466l0 0c3.3670044 0 6.0964966 -2.7294922 6.0964966 -6.096466l0 -6.096466" fill-rule="nonzero"></path><path stroke="#000000" stroke-width="1.0" stroke-linejoin="round" stroke-linecap="butt" d="m538.08795 308.56036l0 -120.70276l0 0c0 -3.3669739 2.7294312 -6.096451 6.0964355 -6.096451l73.15747 0c3.3670044 0 6.0964355 2.729477 6.0964355 6.096451c0 3.3669891 -2.7294312 6.096466 -6.0964355 6.096466l-6.0964355 0l0 120.70276c0 3.3669739 -2.7294922 6.096466 -6.0964966 6.096466l-73.15747 0l0 0c-3.3669434 0 -6.0964355 -2.7294922 -6.0964355 -6.096466c0 -3.3669739 2.7294922 -6.096466 6.0964355 -6.096466zm6.0964355 -126.79921l0 0c3.3670044 0 6.0964355 2.729477 6.0964355 6.096451c0 3.3669891 -2.7294312 6.096466 -6.0964355 6.096466c-1.6834717 0 -3.0482178 -1.3647461 -3.0482178 -3.048233c0 -1.6834869 1.3647461 -3.048233 3.0482178 -3.048233l6.0964355 0m60.9646 6.096466l-67.061035 0m-12.192932 114.60629l0 0c1.6835327 0 3.0482178 1.3647461 3.0482178 3.0482178c0 1.6835022 -1.364685 3.0482483 -3.0482178 3.0482483l6.0964966 0m-6.0964966 6.096466l0 0c3.3670044 0 6.0964966 -2.7294922 6.0964966 -6.096466l0 -6.096466" fill-rule="nonzero"></path><path fill="#000000" d="m547.8692 246.66295l1.765625 -0.15625q0.1875 1.28125 0.890625 1.9375q0.71875 0.640625 1.71875 0.640625q1.203125 0 2.03125 -0.90625q0.84375 -0.90625 0.84375 -2.421875q0 -1.421875 -0.8125 -2.25q-0.796875 -0.828125 -2.09375 -0.828125q-0.796875 0 -1.453125 0.375q-0.640625 0.359375 -1.015625 0.953125l-1.578125 -0.203125l1.328125 -7.0l6.765625 0l0 1.609375l-5.4375 0l-0.734375 3.640625q1.234375 -0.84375 2.578125 -0.84375q1.78125 0 3.0 1.234375q1.234375 1.234375 1.234375 3.171875q0 1.84375 -1.078125 3.1875q-1.3125 1.65625 -3.578125 1.65625q-1.859375 0 -3.03125 -1.03125q-1.171875 -1.046875 -1.34375 -2.765625z" fill-rule="nonzero"></path><path fill="#000000" d="m548.4786 272.22543l0 -13.59375l5.109375 0q1.546875 0 2.484375 0.40625q0.953125 0.40625 1.484375 1.265625q0.53125 0.859375 0.53125 1.796875q0 0.875 -0.46875 1.65625q-0.46875 0.765625 -1.4375 1.234375q1.234375 0.359375 1.890625 1.234375q0.671875 0.875 0.671875 2.0625q0 0.953125 -0.40625 1.78125q-0.390625 0.8125 -0.984375 1.265625q-0.59375 0.4375 -1.5 0.671875q-0.890625 0.21875 -2.1875 0.21875l-5.1875 0zm1.796875 -7.890625l2.9375 0q1.203125 0 1.71875 -0.15625q0.6875 -0.203125 1.03125 -0.671875q0.359375 -0.46875 0.359375 -1.1875q0 -0.671875 -0.328125 -1.1875q-0.328125 -0.515625 -0.9375 -0.703125q-0.59375 -0.203125 -2.0625 -0.203125l-2.71875 0l0 4.109375zm0 6.28125l3.390625 0q0.875 0 1.21875 -0.0625q0.625 -0.109375 1.046875 -0.359375q0.421875 -0.265625 0.6875 -0.765625q0.265625 -0.5 0.265625 -1.140625q0 -0.765625 -0.390625 -1.328125q-0.390625 -0.5625 -1.078125 -0.78125q-0.6875 -0.234375 -1.984375 -0.234375l-3.15625 0l0 4.671875zm9.8810425 -3.3125q0 -2.734375 1.53125 -4.0625q1.265625 -1.09375 3.09375 -1.09375q2.03125 0 3.3125 1.34375q1.296875 1.328125 1.296875 3.671875q0 1.90625 -0.578125 3.0q-0.5625 1.078125 -1.65625 1.6875q-1.078125 0.59375 -2.375 0.59375q-2.0625 0 -3.34375 -1.328125q-1.28125 -1.328125 -1.28125 -3.8125zm1.71875 0q0 1.890625 0.828125 2.828125q0.828125 0.9375 2.078125 0.9375q1.25 0 2.0625 -0.9375q0.828125 -0.953125 0.828125 -2.890625q0 -1.828125 -0.828125 -2.765625q-0.828125 -0.9375 -2.0625 -0.9375q-1.25 0 -2.078125 0.9375q-0.828125 0.9375 -0.828125 2.828125zm8.656982 0q0 -2.734375 1.53125 -4.0625q1.265625 -1.09375 3.09375 -1.09375q2.03125 0 3.3125 1.34375q1.296875 1.328125 1.296875 3.671875q0 1.90625 -0.578125 3.0q-0.5625 1.078125 -1.65625 1.6875q-1.078125 0.59375 -2.375 0.59375q-2.0625 0 -3.34375 -1.328125q-1.28125 -1.328125 -1.28125 -3.8125zm1.71875 0q0 1.890625 0.828125 2.828125q0.828125 0.9375 2.078125 0.9375q1.25 0 2.0625 -0.9375q0.828125 -0.953125 0.828125 -2.890625q0 -1.828125 -0.828125 -2.765625q-0.828125 -0.9375 -2.0625 -0.9375q-1.25 0 -2.078125 0.9375q-0.828125 0.9375 -0.828125 2.828125zm9.297607 4.921875l0 -13.59375l1.671875 0l0 7.75l3.953125 -4.015625l2.15625 0l-3.765625 3.65625l4.140625 6.203125l-2.0625 0l-3.25 -5.03125l-1.171875 1.125l0 3.90625l-1.671875 0zm8.640625 -2.9375l1.65625 -0.265625q0.140625 1.0 0.765625 1.53125q0.640625 0.515625 1.78125 0.515625q1.15625 0 1.703125 -0.46875q0.5625 -0.46875 0.5625 -1.09375q0 -0.5625 -0.484375 -0.890625q-0.34375 -0.21875 -1.703125 -0.5625q-1.84375 -0.46875 -2.5625 -0.796875q-0.703125 -0.34375 -1.078125 -0.9375q-0.359375 -0.609375 -0.359375 -1.328125q0 -0.65625 0.296875 -1.21875q0.3125 -0.5625 0.828125 -0.9375q0.390625 -0.28125 1.0625 -0.484375q0.671875 -0.203125 1.4375 -0.203125q1.171875 0 2.046875 0.34375q0.875 0.328125 1.28125 0.90625q0.421875 0.5625 0.578125 1.515625l-1.625 0.21875q-0.109375 -0.75 -0.65625 -1.171875q-0.53125 -0.4375 -1.5 -0.4375q-1.15625 0 -1.640625 0.390625q-0.484375 0.375 -0.484375 0.875q0 0.328125 0.203125 0.59375q0.203125 0.265625 0.640625 0.4375q0.25 0.09375 1.46875 0.4375q1.765625 0.46875 2.46875 0.765625q0.703125 0.296875 1.09375 0.875q0.40625 0.578125 0.40625 1.4375q0 0.828125 -0.484375 1.578125q-0.484375 0.734375 -1.40625 1.140625q-0.921875 0.390625 -2.078125 0.390625q-1.921875 0 -2.9375 -0.796875q-1.0 -0.796875 -1.28125 -2.359375z" fill-rule="nonzero"></path><path fill="#cfe2f3" d="m697.68243 217.98705l0 0c0 -4.769165 3.86615 -8.635345 8.635315 -8.635345l131.20178 0c2.2902222 0 4.4866333 0.9098053 6.106079 2.5292358c1.6194458 1.6194458 2.5292358 3.8158722 2.5292358 6.1061096l0 34.540344c0 4.7691803 -3.86615 8.63533 -8.635315 8.63533l-131.20178 0l0 0c-4.769165 0 -8.635315 -3.86615 -8.635315 -8.63533z" fill-rule="nonzero"></path><path stroke="#000000" stroke-width="1.0" stroke-linejoin="round" stroke-linecap="butt" d="m697.68243 217.98705l0 0c0 -4.769165 3.86615 -8.635345 8.635315 -8.635345l131.20178 0c2.2902222 0 4.4866333 0.9098053 6.106079 2.5292358c1.6194458 1.6194458 2.5292358 3.8158722 2.5292358 6.1061096l0 34.540344c0 4.7691803 -3.86615 8.63533 -8.635315 8.63533l-131.20178 0l0 0c-4.769165 0 -8.635315 -3.86615 -8.635315 -8.63533z" fill-rule="nonzero"></path><path fill="#000000" d="m719.60223 217.58347l1.796875 0l0 7.84375q0 2.0625 -0.46875 3.265625q-0.453125 1.203125 -1.671875 1.96875q-1.203125 0.75 -3.171875 0.75q-1.90625 0 -3.125 -0.65625q-1.21875 -0.65625 -1.734375 -1.90625q-0.515625 -1.25 -0.515625 -3.421875l0 -7.84375l1.796875 0l0 7.84375q0 1.765625 0.328125 2.609375q0.328125 0.84375 1.125 1.296875q0.8125 0.453125 1.96875 0.453125q1.984375 0 2.828125 -0.890625q0.84375 -0.90625 0.84375 -3.46875l0 -7.84375zm4.3323364 17.375l0 -13.640625l1.53125 0l0 1.28125q0.53125 -0.75 1.203125 -1.125q0.6875 -0.375 1.640625 -0.375q1.265625 0 2.234375 0.65625q0.96875 0.640625 1.453125 1.828125q0.5 1.1875 0.5 2.59375q0 1.515625 -0.546875 2.734375q-0.546875 1.203125 -1.578125 1.84375q-1.03125 0.640625 -2.171875 0.640625q-0.84375 0 -1.515625 -0.34375q-0.65625 -0.359375 -1.078125 -0.890625l0 4.796875l-1.671875 0zm1.515625 -8.65625q0 1.90625 0.765625 2.8125q0.78125 0.90625 1.875 0.90625q1.109375 0 1.890625 -0.9375q0.796875 -0.9375 0.796875 -2.921875q0 -1.875 -0.78125 -2.8125q-0.765625 -0.9375 -1.84375 -0.9375q-1.0625 0 -1.890625 1.0q-0.8125 1.0 -0.8125 2.890625zm15.250732 4.875l0 -1.25q-0.9375 1.46875 -2.75 1.46875q-1.171875 0 -2.171875 -0.640625q-0.984375 -0.65625 -1.53125 -1.8125q-0.53125 -1.171875 -0.53125 -2.6875q0 -1.46875 0.484375 -2.671875q0.5 -1.203125 1.46875 -1.84375q0.984375 -0.640625 2.203125 -0.640625q0.890625 0 1.578125 0.375q0.703125 0.375 1.140625 0.984375l0 -4.875l1.65625 0l0 13.59375l-1.546875 0zm-5.28125 -4.921875q0 1.890625 0.796875 2.828125q0.8125 0.9375 1.890625 0.9375q1.09375 0 1.859375 -0.890625q0.765625 -0.890625 0.765625 -2.734375q0 -2.015625 -0.78125 -2.953125q-0.78125 -0.953125 -1.921875 -0.953125q-1.109375 0 -1.859375 0.90625q-0.75 0.90625 -0.75 2.859375zm15.703796 3.703125q-0.9375 0.796875 -1.796875 1.125q-0.859375 0.3125 -1.84375 0.3125q-1.609375 0 -2.484375 -0.78125q-0.875 -0.796875 -0.875 -2.03125q0 -0.734375 0.328125 -1.328125q0.328125 -0.59375 0.859375 -0.953125q0.53125 -0.359375 1.203125 -0.546875q0.5 -0.140625 1.484375 -0.25q2.03125 -0.25 2.984375 -0.578125q0 -0.34375 0 -0.4375q0 -1.015625 -0.46875 -1.4375q-0.640625 -0.5625 -1.90625 -0.5625q-1.171875 0 -1.734375 0.40625q-0.5625 0.40625 -0.828125 1.46875l-1.640625 -0.234375q0.234375 -1.046875 0.734375 -1.6875q0.515625 -0.640625 1.46875 -0.984375q0.96875 -0.359375 2.25 -0.359375q1.265625 0 2.046875 0.296875q0.78125 0.296875 1.15625 0.75q0.375 0.453125 0.515625 1.140625q0.09375 0.421875 0.09375 1.53125l0 2.234375q0 2.328125 0.09375 2.953125q0.109375 0.609375 0.4375 1.171875l-1.75 0q-0.265625 -0.515625 -0.328125 -1.21875zm-0.140625 -3.71875q-0.90625 0.359375 -2.734375 0.625q-1.03125 0.140625 -1.453125 0.328125q-0.421875 0.1875 -0.65625 0.546875q-0.234375 0.359375 -0.234375 0.796875q0 0.671875 0.5 1.125q0.515625 0.4375 1.484375 0.4375q0.96875 0 1.71875 -0.421875q0.75 -0.4375 1.109375 -1.15625q0.265625 -0.578125 0.265625 -1.671875l0 -0.609375zm7.7351074 3.4375l0.234375 1.484375q-0.703125 0.140625 -1.265625 0.140625q-0.90625 0 -1.40625 -0.28125q-0.5 -0.296875 -0.703125 -0.75q-0.203125 -0.46875 -0.203125 -1.984375l0 -5.65625l-1.234375 0l0 -1.3125l1.234375 0l0 -2.4375l1.65625 -1.0l0 3.4375l1.6875 0l0 1.3125l-1.6875 0l0 5.75q0 0.71875 0.078125 0.921875q0.09375 0.203125 0.296875 0.328125q0.203125 0.125 0.578125 0.125q0.265625 0 0.734375 -0.078125zm8.277039 -1.671875l1.71875 0.21875q-0.40625 1.5 -1.515625 2.34375q-1.09375 0.828125 -2.8125 0.828125q-2.15625 0 -3.421875 -1.328125q-1.265625 -1.328125 -1.265625 -3.734375q0 -2.484375 1.265625 -3.859375q1.28125 -1.375 3.328125 -1.375q1.984375 0 3.234375 1.34375q1.25 1.34375 1.25 3.796875q0 0.140625 -0.015625 0.4375l-7.34375 0q0.09375 1.625 0.921875 2.484375q0.828125 0.859375 2.0625 0.859375q0.90625 0 1.546875 -0.46875q0.65625 -0.484375 1.046875 -1.546875zm-5.484375 -2.703125l5.5 0q-0.109375 -1.234375 -0.625 -1.859375q-0.796875 -0.96875 -2.078125 -0.96875q-1.140625 0 -1.9375 0.78125q-0.78125 0.765625 -0.859375 2.046875zm9.328857 5.875l0 -13.59375l4.6875 0q1.578125 0 2.421875 0.1875q1.15625 0.265625 1.984375 0.96875q1.078125 0.921875 1.609375 2.34375q0.53125 1.40625 0.53125 3.21875q0 1.546875 -0.359375 2.75q-0.359375 1.1875 -0.921875 1.984375q-0.5625 0.78125 -1.234375 1.234375q-0.671875 0.4375 -1.625 0.671875q-0.953125 0.234375 -2.1875 0.234375l-4.90625 0zm1.796875 -1.609375l2.90625 0q1.34375 0 2.109375 -0.25q0.765625 -0.25 1.21875 -0.703125q0.640625 -0.640625 1.0 -1.71875q0.359375 -1.078125 0.359375 -2.625q0 -2.125 -0.703125 -3.265625q-0.703125 -1.15625 -1.703125 -1.546875q-0.71875 -0.28125 -2.328125 -0.28125l-2.859375 0l0 10.390625zm17.894836 0.390625q-0.9375 0.796875 -1.796875 1.125q-0.859375 0.3125 -1.84375 0.3125q-1.609375 0 -2.484375 -0.78125q-0.875 -0.796875 -0.875 -2.03125q0 -0.734375 0.328125 -1.328125q0.328125 -0.59375 0.859375 -0.953125q0.53125 -0.359375 1.203125 -0.546875q0.5 -0.140625 1.484375 -0.25q2.03125 -0.25 2.984375 -0.578125q0 -0.34375 0 -0.4375q0 -1.015625 -0.46875 -1.4375q-0.640625 -0.5625 -1.90625 -0.5625q-1.171875 0 -1.734375 0.40625q-0.5625 0.40625 -0.828125 1.46875l-1.640625 -0.234375q0.234375 -1.046875 0.734375 -1.6875q0.515625 -0.640625 1.46875 -0.984375q0.96875 -0.359375 2.25 -0.359375q1.265625 0 2.046875 0.296875q0.78125 0.296875 1.15625 0.75q0.375 0.453125 0.515625 1.140625q0.09375 0.421875 0.09375 1.53125l0 2.234375q0 2.328125 0.09375 2.953125q0.109375 0.609375 0.4375 1.171875l-1.75 0q-0.265625 -0.515625 -0.328125 -1.21875zm-0.140625 -3.71875q-0.90625 0.359375 -2.734375 0.625q-1.03125 0.140625 -1.453125 0.328125q-0.421875 0.1875 -0.65625 0.546875q-0.234375 0.359375 -0.234375 0.796875q0 0.671875 0.5 1.125q0.515625 0.4375 1.484375 0.4375q0.96875 0 1.71875 -0.421875q0.75 -0.4375 1.109375 -1.15625q0.265625 -0.578125 0.265625 -1.671875l0 -0.609375zm7.7351074 3.4375l0.234375 1.484375q-0.703125 0.140625 -1.265625 0.140625q-0.90625 0 -1.40625 -0.28125q-0.5 -0.296875 -0.703125 -0.75q-0.203125 -0.46875 -0.203125 -1.984375l0 -5.65625l-1.234375 0l0 -1.3125l1.234375 0l0 -2.4375l1.65625 -1.0l0 3.4375l1.6875 0l0 1.3125l-1.6875 0l0 5.75q0 0.71875 0.078125 0.921875q0.09375 0.203125 0.296875 0.328125q0.203125 0.125 0.578125 0.125q0.265625 0 0.734375 -0.078125zm7.9645386 0.28125q-0.9375 0.796875 -1.796875 1.125q-0.859375 0.3125 -1.84375 0.3125q-1.609375 0 -2.484375 -0.78125q-0.875 -0.796875 -0.875 -2.03125q0 -0.734375 0.328125 -1.328125q0.328125 -0.59375 0.859375 -0.953125q0.53125 -0.359375 1.203125 -0.546875q0.5 -0.140625 1.484375 -0.25q2.03125 -0.25 2.984375 -0.578125q0 -0.34375 0 -0.4375q0 -1.015625 -0.46875 -1.4375q-0.640625 -0.5625 -1.90625 -0.5625q-1.171875 0 -1.734375 0.40625q-0.5625 0.40625 -0.828125 1.46875l-1.640625 -0.234375q0.234375 -1.046875 0.734375 -1.6875q0.515625 -0.640625 1.46875 -0.984375q0.96875 -0.359375 2.25 -0.359375q1.265625 0 2.046875 0.296875q0.78125 0.296875 1.15625 0.75q0.375 0.453125 0.515625 1.140625q0.09375 0.421875 0.09375 1.53125l0 2.234375q0 2.328125 0.09375 2.953125q0.109375 0.609375 0.4375 1.171875l-1.75 0q-0.265625 -0.515625 -0.328125 -1.21875zm-0.140625 -3.71875q-0.90625 0.359375 -2.734375 0.625q-1.03125 0.140625 -1.453125 0.328125q-0.421875 0.1875 -0.65625 0.546875q-0.234375 0.359375 -0.234375 0.796875q0 0.671875 0.5 1.125q0.515625 0.4375 1.484375 0.4375q0.96875 0 1.71875 -0.421875q0.75 -0.4375 1.109375 -1.15625q0.265625 -0.578125 0.265625 -1.671875l0 -0.609375zm4.2976074 4.9375l0 -13.59375l5.125 0q1.359375 0 2.078125 0.125q1.0 0.171875 1.671875 0.640625q0.671875 0.46875 1.078125 1.3125q0.421875 0.84375 0.421875 1.84375q0 1.734375 -1.109375 2.9375q-1.09375 1.203125 -3.984375 1.203125l-3.484375 0l0 5.53125l-1.796875 0zm1.796875 -7.140625l3.515625 0q1.75 0 2.46875 -0.640625q0.734375 -0.65625 0.734375 -1.828125q0 -0.859375 -0.4375 -1.46875q-0.421875 -0.609375 -1.125 -0.796875q-0.453125 -0.125 -1.671875 -0.125l-3.484375 0l0 4.859375zm10.4435425 -4.546875l0 -1.90625l1.671875 0l0 1.90625l-1.671875 0zm0 11.6875l0 -9.859375l1.671875 0l0 9.859375l-1.671875 0z" fill-rule="nonzero"></path><path fill="#000000" d="m710.4616 256.95847l0 -13.640625l1.53125 0l0 1.28125q0.53125 -0.75 1.203125 -1.125q0.6875 -0.375 1.640625 -0.375q1.265625 0 2.234375 0.65625q0.96875 0.640625 1.453125 1.828125q0.5 1.1875 0.5 2.59375q0 1.515625 -0.546875 2.734375q-0.546875 1.203125 -1.578125 1.84375q-1.03125 0.640625 -2.171875 0.640625q-0.84375 0 -1.515625 -0.34375q-0.65625 -0.359375 -1.078125 -0.890625l0 4.796875l-1.671875 0zm1.515625 -8.65625q0 1.90625 0.765625 2.8125q0.78125 0.90625 1.875 0.90625q1.109375 0 1.890625 -0.9375q0.796875 -0.9375 0.796875 -2.921875q0 -1.875 -0.78125 -2.8125q-0.765625 -0.9375 -1.84375 -0.9375q-1.0625 0 -1.890625 1.0q-0.8125 1.0 -0.8125 2.890625zm15.610107 1.703125l1.71875 0.21875q-0.40625 1.5 -1.515625 2.34375q-1.09375 0.828125 -2.8125 0.828125q-2.15625 0 -3.421875 -1.328125q-1.265625 -1.328125 -1.265625 -3.734375q0 -2.484375 1.265625 -3.859375q1.28125 -1.375 3.328125 -1.375q1.984375 0 3.234375 1.34375q1.25 1.34375 1.25 3.796875q0 0.140625 -0.015625 0.4375l-7.34375 0q0.09375 1.625 0.921875 2.484375q0.828125 0.859375 2.0625 0.859375q0.90625 0 1.546875 -0.46875q0.65625 -0.484375 1.046875 -1.546875zm-5.484375 -2.703125l5.5 0q-0.109375 -1.234375 -0.625 -1.859375q-0.796875 -0.96875 -2.078125 -0.96875q-1.140625 0 -1.9375 0.78125q-0.78125 0.765625 -0.859375 2.046875z" fill-rule="nonzero"></path><path fill="#000000" fill-opacity="0.0" d="m623.4383 236.11285l58.70868 -0.8503876" fill-rule="nonzero"></path><path stroke="#000000" stroke-width="1.0" stroke-linejoin="round" stroke-linecap="butt" d="m623.4383 236.11285l52.70929 -0.76348877" fill-rule="evenodd"></path><path fill="#000000" stroke="#000000" stroke-width="1.0" stroke-linecap="butt" d="m676.1715 237.00093l4.513733 -1.7172852l-4.5615234 -1.5858307z" fill-rule="evenodd"></path><path fill="#000000" fill-opacity="0.0" d="m863.90027 235.68242l58.70868 -0.85040283" fill-rule="nonzero"></path><path stroke="#000000" stroke-width="1.0" stroke-linejoin="round" stroke-linecap="butt" d="m863.90027 235.68242l52.70929 -0.763504" fill-rule="evenodd"></path><path fill="#000000" stroke="#000000" stroke-width="1.0" stroke-linecap="butt" d="m916.6335 236.57048l4.513672 -1.7172852l-4.5615234 -1.5858307z" fill-rule="evenodd"></path><path fill="#000000" fill-opacity="0.0" d="m773.52496 195.97113l0 -61.291336" fill-rule="nonzero"></path><path stroke="#000000" stroke-width="1.0" stroke-linejoin="round" stroke-linecap="butt" d="m773.52496 195.97113l0 -55.291336" fill-rule="evenodd"></path><path fill="#000000" stroke="#000000" stroke-width="1.0" stroke-linecap="butt" d="m775.1767 140.6798l-1.6517334 -4.538101l-1.6517334 4.538101z" fill-rule="evenodd"></path><path fill="#000000" fill-opacity="0.0" d="m781.29395 156.25984l78.55121 0l0 25.51181l-78.55121 0z" fill-rule="nonzero"></path><path fill="#000000" d="m790.8721 180.24234l1.65625 -0.265625q0.140625 1.0 0.765625 1.53125q0.640625 0.515625 1.78125 0.515625q1.15625 0 1.703125 -0.46875q0.5625 -0.46875 0.5625 -1.09375q0 -0.5625 -0.484375 -0.890625q-0.34375 -0.21875 -1.703125 -0.5625q-1.84375 -0.46875 -2.5625 -0.796875q-0.703125 -0.34375 -1.078125 -0.9375q-0.359375 -0.609375 -0.359375 -1.328125q0 -0.65625 0.296875 -1.21875q0.3125 -0.5625 0.828125 -0.9375q0.390625 -0.28125 1.0625 -0.484375q0.671875 -0.203125 1.4375 -0.203125q1.171875 0 2.046875 0.34375q0.875 0.328125 1.28125 0.90625q0.421875 0.5625 0.578125 1.515625l-1.625 0.21875q-0.109375 -0.75 -0.65625 -1.171875q-0.53125 -0.4375 -1.5 -0.4375q-1.15625 0 -1.640625 0.390625q-0.484375 0.375 -0.484375 0.875q0 0.328125 0.203125 0.59375q0.203125 0.265625 0.640625 0.4375q0.25 0.09375 1.46875 0.4375q1.765625 0.46875 2.46875 0.765625q0.703125 0.296875 1.09375 0.875q0.40625 0.578125 0.40625 1.4375q0 0.828125 -0.484375 1.578125q-0.484375 0.734375 -1.40625 1.140625q-0.921875 0.390625 -2.078125 0.390625q-1.921875 0 -2.9375 -0.796875q-1.0 -0.796875 -1.28125 -2.359375zm13.65625 1.4375l0.234375 1.484375q-0.703125 0.140625 -1.265625 0.140625q-0.90625 0 -1.40625 -0.28125q-0.5 -0.296875 -0.703125 -0.75q-0.203125 -0.46875 -0.203125 -1.984375l0 -5.65625l-1.234375 0l0 -1.3125l1.234375 0l0 -2.4375l1.65625 -1.0l0 3.4375l1.6875 0l0 1.3125l-1.6875 0l0 5.75q0 0.71875 0.078125 0.921875q0.09375 0.203125 0.296875 0.328125q0.203125 0.125 0.578125 0.125q0.265625 0 0.734375 -0.078125zm0.9020996 -3.421875q0 -2.734375 1.53125 -4.0625q1.265625 -1.09375 3.09375 -1.09375q2.03125 0 3.3125 1.34375q1.296875 1.328125 1.296875 3.671875q0 1.90625 -0.578125 3.0q-0.5625 1.078125 -1.65625 1.6875q-1.078125 0.59375 -2.375 0.59375q-2.0625 0 -3.34375 -1.328125q-1.28125 -1.328125 -1.28125 -3.8125zm1.71875 0q0 1.890625 0.828125 2.828125q0.828125 0.9375 2.078125 0.9375q1.25 0 2.0625 -0.9375q0.828125 -0.953125 0.828125 -2.890625q0 -1.828125 -0.828125 -2.765625q-0.828125 -0.9375 -2.0625 -0.9375q-1.25 0 -2.078125 0.9375q-0.828125 0.9375 -0.828125 2.828125zm9.266296 4.921875l0 -9.859375l1.5 0l0 1.5q0.578125 -1.046875 1.0625 -1.375q0.484375 -0.34375 1.078125 -0.34375q0.84375 0 1.71875 0.546875l-0.578125 1.546875q-0.609375 -0.359375 -1.234375 -0.359375q-0.546875 0 -0.984375 0.328125q-0.421875 0.328125 -0.609375 0.90625q-0.28125 0.890625 -0.28125 1.953125l0 5.15625l-1.671875 0zm12.9783325 -3.171875l1.71875 0.21875q-0.40625 1.5 -1.515625 2.34375q-1.09375 0.828125 -2.8125 0.828125q-2.15625 0 -3.421875 -1.328125q-1.265625 -1.328125 -1.265625 -3.734375q0 -2.484375 1.265625 -3.859375q1.28125 -1.375 3.328125 -1.375q1.984375 0 3.234375 1.34375q1.25 1.34375 1.25 3.796875q0 0.140625 -0.015625 0.4375l-7.34375 0q0.09375 1.625 0.921875 2.484375q0.828125 0.859375 2.0625 0.859375q0.90625 0 1.546875 -0.46875q0.65625 -0.484375 1.046875 -1.546875zm-5.484375 -2.703125l5.5 0q-0.109375 -1.234375 -0.625 -1.859375q-0.796875 -0.96875 -2.078125 -0.96875q-1.140625 0 -1.9375 0.78125q-0.78125 0.765625 -0.859375 2.046875z" fill-rule="nonzero"></path><path fill="#cfe2f3" d="m731.2231 18.992126l220.60913 0l0 82.04536c-110.304565 0 -110.304565 31.26078 -220.60913 13.498978z" fill-rule="nonzero"></path><path stroke="#000000" stroke-width="1.0" stroke-linejoin="round" stroke-linecap="butt" d="m731.2231 18.992126l220.60913 0l0 82.04536c-110.304565 0 -110.304565 31.26078 -220.60913 13.498978z" fill-rule="nonzero"></path><path fill="#000000" d="m741.69183 66.9348l0 -13.593746l4.6875 0q1.578125 0 2.421875 0.1875q1.15625 0.265625 1.984375 0.96875q1.078125 0.921875 1.609375 2.34375q0.53125 1.40625 0.53125 3.21875q0 1.546875 -0.359375 2.75q-0.359375 1.1875 -0.921875 1.9843712q-0.5625 0.78125 -1.234375 1.234375q-0.671875 0.4375 -1.625 0.671875q-0.953125 0.234375 -2.1875 0.234375l-4.90625 0zm1.796875 -1.609375l2.90625 0q1.34375 0 2.109375 -0.25q0.765625 -0.25 1.21875 -0.703125q0.640625 -0.6406212 1.0 -1.7187462q0.359375 -1.078125 0.359375 -2.625q0 -2.125 -0.703125 -3.265625q-0.703125 -1.15625 -1.703125 -1.546875q-0.71875 -0.28125 -2.328125 -0.28125l-2.859375 0l0 10.390621zm17.894836 0.390625q-0.9375 0.796875 -1.796875 1.125q-0.859375 0.3125 -1.84375 0.3125q-1.609375 0 -2.484375 -0.78125q-0.875 -0.796875 -0.875 -2.03125q0 -0.7343712 0.328125 -1.3281212q0.328125 -0.59375 0.859375 -0.953125q0.53125 -0.359375 1.203125 -0.546875q0.5 -0.140625 1.484375 -0.25q2.03125 -0.25 2.984375 -0.578125q0 -0.34375 0 -0.4375q0 -1.015625 -0.46875 -1.4375q-0.640625 -0.5625 -1.90625 -0.5625q-1.171875 0 -1.734375 0.40625q-0.5625 0.40625 -0.828125 1.46875l-1.640625 -0.234375q0.234375 -1.046875 0.734375 -1.6875q0.515625 -0.640625 1.46875 -0.984375q0.96875 -0.359375 2.25 -0.359375q1.265625 0 2.046875 0.296875q0.78125 0.296875 1.15625 0.75q0.375 0.453125 0.515625 1.140625q0.09375 0.421875 0.09375 1.53125l0 2.234375q0 2.3281212 0.09375 2.9531212q0.109375 0.609375 0.4375 1.171875l-1.75 0q-0.265625 -0.515625 -0.328125 -1.21875zm-0.140625 -3.7187462q-0.90625 0.359375 -2.734375 0.625q-1.03125 0.140625 -1.453125 0.328125q-0.421875 0.1875 -0.65625 0.546875q-0.234375 0.359375 -0.234375 0.7968712q0 0.671875 0.5 1.125q0.515625 0.4375 1.484375 0.4375q0.96875 0 1.71875 -0.421875q0.75 -0.4375 1.109375 -1.15625q0.265625 -0.5781212 0.265625 -1.6718712l0 -0.609375zm7.7351074 3.4374962l0.234375 1.484375q-0.703125 0.140625 -1.265625 0.140625q-0.90625 0 -1.40625 -0.28125q-0.5 -0.296875 -0.703125 -0.75q-0.203125 -0.46875 -0.203125 -1.984375l0 -5.656246l-1.234375 0l0 -1.3125l1.234375 0l0 -2.4375l1.65625 -1.0l0 3.4375l1.6875 0l0 1.3125l-1.6875 0l0 5.749996q0 0.71875 0.078125 0.921875q0.09375 0.203125 0.296875 0.328125q0.203125 0.125 0.578125 0.125q0.265625 0 0.734375 -0.078125zm7.9645386 0.28125q-0.9375 0.796875 -1.796875 1.125q-0.859375 0.3125 -1.84375 0.3125q-1.609375 0 -2.484375 -0.78125q-0.875 -0.796875 -0.875 -2.03125q0 -0.7343712 0.328125 -1.3281212q0.328125 -0.59375 0.859375 -0.953125q0.53125 -0.359375 1.203125 -0.546875q0.5 -0.140625 1.484375 -0.25q2.03125 -0.25 2.984375 -0.578125q0 -0.34375 0 -0.4375q0 -1.015625 -0.46875 -1.4375q-0.640625 -0.5625 -1.90625 -0.5625q-1.171875 0 -1.734375 0.40625q-0.5625 0.40625 -0.828125 1.46875l-1.640625 -0.234375q0.234375 -1.046875 0.734375 -1.6875q0.515625 -0.640625 1.46875 -0.984375q0.96875 -0.359375 2.25 -0.359375q1.265625 0 2.046875 0.296875q0.78125 0.296875 1.15625 0.75q0.375 0.453125 0.515625 1.140625q0.09375 0.421875 0.09375 1.53125l0 2.234375q0 2.3281212 0.09375 2.9531212q0.109375 0.609375 0.4375 1.171875l-1.75 0q-0.265625 -0.515625 -0.328125 -1.21875zm-0.140625 -3.7187462q-0.90625 0.359375 -2.734375 0.625q-1.03125 0.140625 -1.453125 0.328125q-0.421875 0.1875 -0.65625 0.546875q-0.234375 0.359375 -0.234375 0.7968712q0 0.671875 0.5 1.125q0.515625 0.4375 1.484375 0.4375q0.96875 0 1.71875 -0.421875q0.75 -0.4375 1.109375 -1.15625q0.265625 -0.5781212 0.265625 -1.6718712l0 -0.609375zm14.000732 0.171875l1.796875 0.453125q-0.5625 2.2187462 -2.03125 3.3906212q-1.46875 1.15625 -3.59375 1.15625q-2.203125 0 -3.578125 -0.890625q-1.375 -0.90625 -2.09375 -2.5937462q-0.71875 -1.703125 -0.71875 -3.65625q0 -2.125 0.796875 -3.703125q0.8125 -1.578125 2.3125 -2.390625q1.5 -0.828125 3.296875 -0.828125q2.046875 0 3.4375 1.046875q1.390625 1.03125 1.9375 2.90625l-1.765625 0.421875q-0.46875 -1.484375 -1.375 -2.15625q-0.90625 -0.6875 -2.265625 -0.6875q-1.5625 0 -2.625 0.75q-1.046875 0.75 -1.484375 2.03125q-0.421875 1.265625 -0.421875 2.609375q0 1.734375 0.5 3.03125q0.515625 1.2812462 1.578125 1.9218712q1.078125 0.640625 2.3125 0.640625q1.515625 0 2.5625 -0.859375q1.046875 -0.8749962 1.421875 -2.5937462zm2.9260254 -0.15625q0 -2.734375 1.53125 -4.0625q1.265625 -1.09375 3.09375 -1.09375q2.03125 0 3.3125 1.34375q1.296875 1.328125 1.296875 3.671875q0 1.90625 -0.578125 2.9999962q-0.5625 1.078125 -1.65625 1.6875q-1.078125 0.59375 -2.375 0.59375q-2.0625 0 -3.34375 -1.328125q-1.28125 -1.328125 -1.28125 -3.8124962zm1.71875 0q0 1.890625 0.828125 2.8281212q0.828125 0.9375 2.078125 0.9375q1.25 0 2.0625 -0.9375q0.828125 -0.9531212 0.828125 -2.8906212q0 -1.828125 -0.828125 -2.765625q-0.828125 -0.9375 -2.0625 -0.9375q-1.25 0 -2.078125 0.9375q-0.828125 0.9375 -0.828125 2.828125zm9.281982 4.921871l0 -9.859371l1.5 0l0 1.40625q1.09375 -1.625 3.140625 -1.625q0.890625 0 1.640625 0.328125q0.75 0.3125 1.109375 0.84375q0.375 0.515625 0.53125 1.21875q0.09375 0.46875 0.09375 1.625l0 6.062496l-1.671875 0l0 -5.999996q0 -1.015625 -0.203125 -1.515625q-0.1875 -0.515625 -0.6875 -0.8125q-0.5 -0.296875 -1.171875 -0.296875q-1.0625 0 -1.84375 0.671875q-0.765625 0.671875 -0.765625 2.578125l0 5.374996l-1.671875 0zm14.031982 -1.5l0.234375 1.484375q-0.703125 0.140625 -1.265625 0.140625q-0.90625 0 -1.40625 -0.28125q-0.5 -0.296875 -0.703125 -0.75q-0.203125 -0.46875 -0.203125 -1.984375l0 -5.656246l-1.234375 0l0 -1.3125l1.234375 0l0 -2.4375l1.65625 -1.0l0 3.4375l1.6875 0l0 1.3125l-1.6875 0l0 5.749996q0 0.71875 0.078125 0.921875q0.09375 0.203125 0.296875 0.328125q0.203125 0.125 0.578125 0.125q0.265625 0 0.734375 -0.078125zm7.9645386 0.28125q-0.9375 0.796875 -1.796875 1.125q-0.859375 0.3125 -1.84375 0.3125q-1.609375 0 -2.484375 -0.78125q-0.875 -0.796875 -0.875 -2.03125q0 -0.7343712 0.328125 -1.3281212q0.328125 -0.59375 0.859375 -0.953125q0.53125 -0.359375 1.203125 -0.546875q0.5 -0.140625 1.484375 -0.25q2.03125 -0.25 2.984375 -0.578125q0 -0.34375 0 -0.4375q0 -1.015625 -0.46875 -1.4375q-0.640625 -0.5625 -1.90625 -0.5625q-1.171875 0 -1.734375 0.40625q-0.5625 0.40625 -0.828125 1.46875l-1.640625 -0.234375q0.234375 -1.046875 0.734375 -1.6875q0.515625 -0.640625 1.46875 -0.984375q0.96875 -0.359375 2.25 -0.359375q1.265625 0 2.046875 0.296875q0.78125 0.296875 1.15625 0.75q0.375 0.453125 0.515625 1.140625q0.09375 0.421875 0.09375 1.53125l0 2.234375q0 2.3281212 0.09375 2.9531212q0.109375 0.609375 0.4375 1.171875l-1.75 0q-0.265625 -0.515625 -0.328125 -1.21875zm-0.140625 -3.7187462q-0.90625 0.359375 -2.734375 0.625q-1.03125 0.140625 -1.453125 0.328125q-0.421875 0.1875 -0.65625 0.546875q-0.234375 0.359375 -0.234375 0.7968712q0 0.671875 0.5 1.125q0.515625 0.4375 1.484375 0.4375q0.96875 0 1.71875 -0.421875q0.75 -0.4375 1.109375 -1.15625q0.265625 -0.5781212 0.265625 -1.6718712l0 -0.609375zm4.0944824 -6.75l0 -1.90625l1.671875 0l0 1.90625l-1.671875 0zm0 11.687496l0 -9.859371l1.671875 0l0 9.859371l-1.671875 0zm4.1292114 0l0 -9.859371l1.5 0l0 1.40625q1.09375 -1.625 3.140625 -1.625q0.890625 0 1.640625 0.328125q0.75 0.3125 1.109375 0.84375q0.375 0.515625 0.53125 1.21875q0.09375 0.46875 0.09375 1.625l0 6.062496l-1.671875 0l0 -5.999996q0 -1.015625 -0.203125 -1.515625q-0.1875 -0.515625 -0.6875 -0.8125q-0.5 -0.296875 -1.171875 -0.296875q-1.0625 0 -1.84375 0.671875q-0.765625 0.671875 -0.765625 2.578125l0 5.374996l-1.671875 0zm17.125671 -3.1718712l1.71875 0.21875q-0.40625 1.4999962 -1.515625 2.3437462q-1.09375 0.828125 -2.8125 0.828125q-2.15625 0 -3.421875 -1.328125q-1.265625 -1.328125 -1.265625 -3.7343712q0 -2.484375 1.265625 -3.859375q1.28125 -1.375 3.328125 -1.375q1.984375 0 3.234375 1.34375q1.25 1.34375 1.25 3.796875q0 0.140625 -0.015625 0.4375l-7.34375 0q0.09375 1.6249962 0.921875 2.4843712q0.828125 0.859375 2.0625 0.859375q0.90625 0 1.546875 -0.46875q0.65625 -0.484375 1.046875 -1.5468712zm-5.484375 -2.703125l5.5 0q-0.109375 -1.234375 -0.625 -1.859375q-0.796875 -0.96875 -2.078125 -0.96875q-1.140625 0 -1.9375 0.78125q-0.78125 0.765625 -0.859375 2.046875zm9.094482 5.874996l0 -9.859371l1.5 0l0 1.5q0.578125 -1.046875 1.0625 -1.375q0.484375 -0.34375 1.078125 -0.34375q0.84375 0 1.71875 0.546875l-0.578125 1.546875q-0.609375 -0.359375 -1.234375 -0.359375q-0.546875 0 -0.984375 0.328125q-0.421875 0.328125 -0.609375 0.90625q-0.28125 0.890625 -0.28125 1.953125l0 5.156246l-1.671875 0zm5.8377075 -4.374996l1.6875 -0.140625q0.125 1.015625 0.5625 1.6718712q0.4375 0.65625 1.359375 1.0625q0.9375 0.40625 2.09375 0.40625q1.03125 0 1.8125 -0.3125q0.796875 -0.3125 1.1875 -0.84375q0.390625 -0.5312462 0.390625 -1.1562462q0 -0.640625 -0.375 -1.109375q-0.375 -0.484375 -1.234375 -0.8125q-0.546875 -0.21875 -2.421875 -0.65625q-1.875 -0.453125 -2.625 -0.859375q-0.96875 -0.515625 -1.453125 -1.265625q-0.46875 -0.75 -0.46875 -1.6875q0 -1.03125 0.578125 -1.921875q0.59375 -0.90625 1.703125 -1.359375q1.125 -0.46875 2.5 -0.46875q1.515625 0 2.671875 0.484375q1.15625 0.484375 1.765625 1.4375q0.625 0.9375 0.671875 2.140625l-1.71875 0.125q-0.140625 -1.28125 -0.953125 -1.9375q-0.796875 -0.671875 -2.359375 -0.671875q-1.625 0 -2.375 0.609375q-0.75 0.59375 -0.75 1.4375q0 0.734375 0.53125 1.203125q0.515625 0.46875 2.703125 0.96875q2.203125 0.5 3.015625 0.875q1.1875 0.546875 1.75 1.390625q0.578125 0.828125 0.578125 1.921875q0 1.0937462 -0.625 2.0624962q-0.625 0.953125 -1.796875 1.484375q-1.15625 0.53125 -2.609375 0.53125q-1.84375 0 -3.09375 -0.53125q-1.25 -0.546875 -1.96875 -1.625q-0.703125 -1.0781212 -0.734375 -2.4531212zm19.584167 1.203125l1.71875 0.21875q-0.40625 1.4999962 -1.515625 2.3437462q-1.09375 0.828125 -2.8125 0.828125q-2.15625 0 -3.421875 -1.328125q-1.265625 -1.328125 -1.265625 -3.7343712q0 -2.484375 1.265625 -3.859375q1.28125 -1.375 3.328125 -1.375q1.984375 0 3.234375 1.34375q1.25 1.34375 1.25 3.796875q0 0.140625 -0.015625 0.4375l-7.34375 0q0.09375 1.6249962 0.921875 2.4843712q0.828125 0.859375 2.0625 0.859375q0.90625 0 1.546875 -0.46875q0.65625 -0.484375 1.046875 -1.5468712zm-5.484375 -2.703125l5.5 0q-0.109375 -1.234375 -0.625 -1.859375q-0.796875 -0.96875 -2.078125 -0.96875q-1.140625 0 -1.9375 0.78125q-0.78125 0.765625 -0.859375 2.046875zm9.094482 5.874996l0 -9.859371l1.5 0l0 1.5q0.578125 -1.046875 1.0625 -1.375q0.484375 -0.34375 1.078125 -0.34375q0.84375 0 1.71875 0.546875l-0.578125 1.546875q-0.609375 -0.359375 -1.234375 -0.359375q-0.546875 0 -0.984375 0.328125q-0.421875 0.328125 -0.609375 0.90625q-0.28125 0.890625 -0.28125 1.953125l0 5.156246l-1.671875 0zm8.9626465 0l-3.75 -9.859371l1.765625 0l2.125 5.90625q0.34375 0.953125 0.625 1.9843712q0.21875 -0.78125 0.625 -1.8749962l2.1875 -6.015625l1.71875 0l-3.734375 9.859371l-1.5625 0zm6.609375 -11.687496l0 -1.90625l1.671875 0l0 1.90625l-1.671875 0zm0 11.687496l0 -9.859371l1.671875 0l0 9.859371l-1.671875 0zm10.566711 -3.6093712l1.640625 0.21875q-0.265625 1.6874962 -1.375 2.6562462q-1.109375 0.953125 -2.734375 0.953125q-2.015625 0 -3.25 -1.3125q-1.21875 -1.328125 -1.21875 -3.7968712q0 -1.59375 0.515625 -2.78125q0.53125 -1.203125 1.609375 -1.796875q1.09375 -0.609375 2.359375 -0.609375q1.609375 0 2.625 0.8125q1.015625 0.8125 1.3125 2.3125l-1.625 0.25q-0.234375 -1.0 -0.828125 -1.5q-0.59375 -0.5 -1.421875 -0.5q-1.265625 0 -2.0625 0.90625q-0.78125 0.90625 -0.78125 2.859375q0 1.984375 0.765625 2.8906212q0.765625 0.890625 1.984375 0.890625q0.984375 0 1.640625 -0.59375q0.65625 -0.609375 0.84375 -1.8593712zm9.640625 0.4375l1.71875 0.21875q-0.40625 1.4999962 -1.515625 2.3437462q-1.09375 0.828125 -2.8125 0.828125q-2.15625 0 -3.421875 -1.328125q-1.265625 -1.328125 -1.265625 -3.7343712q0 -2.484375 1.265625 -3.859375q1.28125 -1.375 3.328125 -1.375q1.984375 0 3.234375 1.34375q1.25 1.34375 1.25 3.796875q0 0.140625 -0.015625 0.4375l-7.34375 0q0.09375 1.6249962 0.921875 2.4843712q0.828125 0.859375 2.0625 0.859375q0.90625 0 1.546875 -0.46875q0.65625 -0.484375 1.046875 -1.5468712zm-5.484375 -2.703125l5.5 0q-0.109375 -1.234375 -0.625 -1.859375q-0.796875 -0.96875 -2.078125 -0.96875q-1.140625 0 -1.9375 0.78125q-0.78125 0.765625 -0.859375 2.046875z" fill-rule="nonzero"></path><path fill="#cfe2f3" d="m952.8261 288.32285l0 0c3.3670044 0 6.0964355 -2.7294922 6.0964355 -6.096466l-6.0964355 0c1.6834717 0 3.0482178 -1.3647461 3.0482178 -3.0482178c0 -1.6835022 -1.3647461 -3.0482483 -3.0482178 -3.0482483l6.0964355 0l0 -120.70274l0 0c0 -3.3669891 2.7294922 -6.096466 6.0964966 -6.096466l73.15747 0c3.3669434 0 6.0964355 2.729477 6.0964355 6.096466c0 3.3669739 -2.7294922 6.096451 -6.0964355 6.096451l-6.0964355 0l0 120.70276c0 3.3669739 -2.7294922 6.096466 -6.0964355 6.096466zm18.289368 -132.89568l0 0c0 3.3669739 -2.7294922 6.096451 -6.0964355 6.096451c-1.6835327 0 -3.0482178 -1.3647308 -3.0482178 -3.048233c0 -1.6834869 1.364685 -3.0482178 3.0482178 -3.0482178z" fill-rule="nonzero"></path><path fill="#a5b4c2" d="m971.1155 155.42717l0 0c0 3.3669739 -2.7294922 6.096451 -6.0964355 6.096451c-1.6835327 0 -3.0482178 -1.3647308 -3.0482178 -3.048233c0 -1.6834869 1.364685 -3.0482178 3.0482178 -3.0482178zm-12.192932 126.79921c0 3.3669739 -2.7294312 6.096466 -6.0964355 6.096466c-3.3670044 0 -6.0964355 -2.7294922 -6.0964355 -6.096466c0 -3.3669739 2.7294312 -6.096466 6.0964355 -6.096466l0 0c1.6834717 0 3.0482178 1.3647461 3.0482178 3.0482483c0 1.6834717 -1.3647461 3.0482178 -3.0482178 3.0482178z" fill-rule="nonzero"></path><path fill="#000000" fill-opacity="0.0" d="m958.92255 276.1299l0 -120.70274l0 0c0 -3.3669891 2.7294922 -6.096466 6.0964966 -6.096466l73.15747 0c3.3669434 0 6.0964355 2.729477 6.0964355 6.096466c0 3.3669739 -2.7294922 6.096451 -6.0964355 6.096451l-6.0964355 0l0 120.70276c0 3.3669739 -2.7294922 6.096466 -6.0964355 6.096466l-73.15753 0l0 0c-3.3670044 0 -6.0964355 -2.7294922 -6.0964355 -6.096466c0 -3.3669739 2.7294312 -6.096466 6.0964355 -6.096466zm6.0964966 -126.79921l0 0c3.3669434 0 6.0964355 2.729477 6.0964355 6.096466c0 3.3669739 -2.7294922 6.096451 -6.0964355 6.096451c-1.6835327 0 -3.0482178 -1.3647308 -3.0482178 -3.048233c0 -1.6834869 1.364685 -3.0482178 3.0482178 -3.0482178l6.0964355 0m60.9646 6.096451l-67.061035 0m-12.192932 114.60629l0 0c1.6834717 0 3.0482178 1.3647461 3.0482178 3.0482483c0 1.6834717 -1.3647461 3.0482178 -3.0482178 3.0482178l6.0964355 0m-6.0964355 6.096466l0 0c3.3670044 0 6.0964355 -2.7294922 6.0964355 -6.096466l0 -6.096466" fill-rule="nonzero"></path><path stroke="#000000" stroke-width="1.0" stroke-linejoin="round" stroke-linecap="butt" d="m958.92255 276.1299l0 -120.70274l0 0c0 -3.3669891 2.7294922 -6.096466 6.0964966 -6.096466l73.15747 0c3.3669434 0 6.0964355 2.729477 6.0964355 6.096466c0 3.3669739 -2.7294922 6.096451 -6.0964355 6.096451l-6.0964355 0l0 120.70276c0 3.3669739 -2.7294922 6.096466 -6.0964355 6.096466l-73.15753 0l0 0c-3.3670044 0 -6.0964355 -2.7294922 -6.0964355 -6.096466c0 -3.3669739 2.7294312 -6.096466 6.0964355 -6.096466zm6.0964966 -126.79921l0 0c3.3669434 0 6.0964355 2.729477 6.0964355 6.096466c0 3.3669739 -2.7294922 6.096451 -6.0964355 6.096451c-1.6835327 0 -3.0482178 -1.3647308 -3.0482178 -3.048233c0 -1.6834869 1.364685 -3.0482178 3.0482178 -3.0482178l6.0964355 0m60.9646 6.096451l-67.061035 0m-12.192932 114.60629l0 0c1.6834717 0 3.0482178 1.3647461 3.0482178 3.0482483c0 1.6834717 -1.3647461 3.0482178 -3.0482178 3.0482178l6.0964355 0m-6.0964355 6.096466l0 0c3.3670044 0 6.0964355 -2.7294922 6.0964355 -6.096466l0 -6.096466" fill-rule="nonzero"></path><path fill="#cfe2f3" d="m968.8261 304.32285l0 0c3.3670044 0 6.0964355 -2.7294922 6.0964355 -6.096466l-6.0964355 0c1.6834717 0 3.0482178 -1.3647461 3.0482178 -3.0482178c0 -1.6835022 -1.3647461 -3.0482483 -3.0482178 -3.0482483l6.0964355 0l0 -120.70274l0 0c0 -3.3669891 2.7294922 -6.096466 6.0964966 -6.096466l73.15747 0c3.3669434 0 6.0964355 2.729477 6.0964355 6.096466c0 3.3669739 -2.7294922 6.096451 -6.0964355 6.096451l-6.0964355 0l0 120.70276c0 3.3669739 -2.7294922 6.096466 -6.0964355 6.096466zm18.289368 -132.89568l0 0c0 3.3669739 -2.7294922 6.096451 -6.0964355 6.096451c-1.6835327 0 -3.0482178 -1.3647308 -3.0482178 -3.048233c0 -1.6834869 1.364685 -3.0482178 3.0482178 -3.0482178z" fill-rule="nonzero"></path><path fill="#a5b4c2" d="m987.1155 171.42717l0 0c0 3.3669739 -2.7294922 6.096451 -6.0964355 6.096451c-1.6835327 0 -3.0482178 -1.3647308 -3.0482178 -3.048233c0 -1.6834869 1.364685 -3.0482178 3.0482178 -3.0482178zm-12.192932 126.79921c0 3.3669739 -2.7294312 6.096466 -6.0964355 6.096466c-3.3670044 0 -6.0964355 -2.7294922 -6.0964355 -6.096466c0 -3.3669739 2.7294312 -6.096466 6.0964355 -6.096466l0 0c1.6834717 0 3.0482178 1.3647461 3.0482178 3.0482483c0 1.6834717 -1.3647461 3.0482178 -3.0482178 3.0482178z" fill-rule="nonzero"></path><path fill="#000000" fill-opacity="0.0" d="m974.92255 292.1299l0 -120.70274l0 0c0 -3.3669891 2.7294922 -6.096466 6.0964966 -6.096466l73.15747 0c3.3669434 0 6.0964355 2.729477 6.0964355 6.096466c0 3.3669739 -2.7294922 6.096451 -6.0964355 6.096451l-6.0964355 0l0 120.70276c0 3.3669739 -2.7294922 6.096466 -6.0964355 6.096466l-73.15753 0l0 0c-3.3670044 0 -6.0964355 -2.7294922 -6.0964355 -6.096466c0 -3.3669739 2.7294312 -6.096466 6.0964355 -6.096466zm6.0964966 -126.79921l0 0c3.3669434 0 6.0964355 2.729477 6.0964355 6.096466c0 3.3669739 -2.7294922 6.096451 -6.0964355 6.096451c-1.6835327 0 -3.0482178 -1.3647308 -3.0482178 -3.048233c0 -1.6834869 1.364685 -3.0482178 3.0482178 -3.0482178l6.0964355 0m60.9646 6.096451l-67.061035 0m-12.192932 114.60629l0 0c1.6834717 0 3.0482178 1.3647461 3.0482178 3.0482483c0 1.6834717 -1.3647461 3.0482178 -3.0482178 3.0482178l6.0964355 0m-6.0964355 6.096466l0 0c3.3670044 0 6.0964355 -2.7294922 6.0964355 -6.096466l0 -6.096466" fill-rule="nonzero"></path><path stroke="#000000" stroke-width="1.0" stroke-linejoin="round" stroke-linecap="butt" d="m974.92255 292.1299l0 -120.70274l0 0c0 -3.3669891 2.7294922 -6.096466 6.0964966 -6.096466l73.15747 0c3.3669434 0 6.0964355 2.729477 6.0964355 6.096466c0 3.3669739 -2.7294922 6.096451 -6.0964355 6.096451l-6.0964355 0l0 120.70276c0 3.3669739 -2.7294922 6.096466 -6.0964355 6.096466l-73.15753 0l0 0c-3.3670044 0 -6.0964355 -2.7294922 -6.0964355 -6.096466c0 -3.3669739 2.7294312 -6.096466 6.0964355 -6.096466zm6.0964966 -126.79921l0 0c3.3669434 0 6.0964355 2.729477 6.0964355 6.096466c0 3.3669739 -2.7294922 6.096451 -6.0964355 6.096451c-1.6835327 0 -3.0482178 -1.3647308 -3.0482178 -3.048233c0 -1.6834869 1.364685 -3.0482178 3.0482178 -3.0482178l6.0964355 0m60.9646 6.096451l-67.061035 0m-12.192932 114.60629l0 0c1.6834717 0 3.0482178 1.3647461 3.0482178 3.0482483c0 1.6834717 -1.3647461 3.0482178 -3.0482178 3.0482178l6.0964355 0m-6.0964355 6.096466l0 0c3.3670044 0 6.0964355 -2.7294922 6.0964355 -6.096466l0 -6.096466" fill-rule="nonzero"></path><path fill="#cfe2f3" d="m984.8261 320.32285l0 0c3.3670044 0 6.0964355 -2.7294922 6.0964355 -6.096466l-6.0964355 0c1.6834717 0 3.0482178 -1.3647461 3.0482178 -3.0482178c0 -1.6835022 -1.3647461 -3.0482483 -3.0482178 -3.0482483l6.0964355 0l0 -120.70274l0 0c0 -3.3669891 2.7294922 -6.096466 6.0964966 -6.096466l73.15747 0c3.3669434 0 6.0964355 2.729477 6.0964355 6.096466c0 3.3669739 -2.7294922 6.096451 -6.0964355 6.096451l-6.0964355 0l0 120.70276c0 3.3669739 -2.7294922 6.096466 -6.0964355 6.096466zm18.289368 -132.89568l0 0c0 3.3669739 -2.7294922 6.096451 -6.0964355 6.096451c-1.6835327 0 -3.0482178 -1.3647308 -3.0482178 -3.048233c0 -1.6834869 1.364685 -3.0482178 3.0482178 -3.0482178z" fill-rule="nonzero"></path><path fill="#a5b4c2" d="m1003.1155 187.42717l0 0c0 3.3669739 -2.7294922 6.096451 -6.0964355 6.096451c-1.6835327 0 -3.0482178 -1.3647308 -3.0482178 -3.048233c0 -1.6834869 1.364685 -3.0482178 3.0482178 -3.0482178zm-12.192932 126.79921c0 3.3669739 -2.7294312 6.096466 -6.0964355 6.096466c-3.3670044 0 -6.0964355 -2.7294922 -6.0964355 -6.096466c0 -3.3669739 2.7294312 -6.096466 6.0964355 -6.096466l0 0c1.6834717 0 3.0482178 1.3647461 3.0482178 3.0482483c0 1.6834717 -1.3647461 3.0482178 -3.0482178 3.0482178z" fill-rule="nonzero"></path><path fill="#000000" fill-opacity="0.0" d="m990.92255 308.1299l0 -120.70274l0 0c0 -3.3669891 2.7294922 -6.096466 6.0964966 -6.096466l73.15747 0c3.3669434 0 6.0964355 2.729477 6.0964355 6.096466c0 3.3669739 -2.7294922 6.096451 -6.0964355 6.096451l-6.0964355 0l0 120.70276c0 3.3669739 -2.7294922 6.096466 -6.0964355 6.096466l-73.15753 0l0 0c-3.3670044 0 -6.0964355 -2.7294922 -6.0964355 -6.096466c0 -3.3669739 2.7294312 -6.096466 6.0964355 -6.096466zm6.0964966 -126.79921l0 0c3.3669434 0 6.0964355 2.729477 6.0964355 6.096466c0 3.3669739 -2.7294922 6.096451 -6.0964355 6.096451c-1.6835327 0 -3.0482178 -1.3647308 -3.0482178 -3.048233c0 -1.6834869 1.364685 -3.0482178 3.0482178 -3.0482178l6.0964355 0m60.9646 6.096451l-67.061035 0m-12.192932 114.60629l0 0c1.6834717 0 3.0482178 1.3647461 3.0482178 3.0482483c0 1.6834717 -1.3647461 3.0482178 -3.0482178 3.0482178l6.0964355 0m-6.0964355 6.096466l0 0c3.3670044 0 6.0964355 -2.7294922 6.0964355 -6.096466l0 -6.096466" fill-rule="nonzero"></path><path stroke="#000000" stroke-width="1.0" stroke-linejoin="round" stroke-linecap="butt" d="m990.92255 308.1299l0 -120.70274l0 0c0 -3.3669891 2.7294922 -6.096466 6.0964966 -6.096466l73.15747 0c3.3669434 0 6.0964355 2.729477 6.0964355 6.096466c0 3.3669739 -2.7294922 6.096451 -6.0964355 6.096451l-6.0964355 0l0 120.70276c0 3.3669739 -2.7294922 6.096466 -6.0964355 6.096466l-73.15753 0l0 0c-3.3670044 0 -6.0964355 -2.7294922 -6.0964355 -6.096466c0 -3.3669739 2.7294312 -6.096466 6.0964355 -6.096466zm6.0964966 -126.79921l0 0c3.3669434 0 6.0964355 2.729477 6.0964355 6.096466c0 3.3669739 -2.7294922 6.096451 -6.0964355 6.096451c-1.6835327 0 -3.0482178 -1.3647308 -3.0482178 -3.048233c0 -1.6834869 1.364685 -3.0482178 3.0482178 -3.0482178l6.0964355 0m60.9646 6.096451l-67.061035 0m-12.192932 114.60629l0 0c1.6834717 0 3.0482178 1.3647461 3.0482178 3.0482483c0 1.6834717 -1.3647461 3.0482178 -3.0482178 3.0482178l6.0964355 0m-6.0964355 6.096466l0 0c3.3670044 0 6.0964355 -2.7294922 6.0964355 -6.096466l0 -6.096466" fill-rule="nonzero"></path><path fill="#000000" d="m1000.7038 246.2325l1.765625 -0.15625q0.1875 1.28125 0.890625 1.9375q0.71875 0.640625 1.71875 0.640625q1.203125 0 2.03125 -0.90625q0.84375 -0.90625 0.84375 -2.421875q0 -1.421875 -0.8125 -2.25q-0.796875 -0.828125 -2.09375 -0.828125q-0.796875 0 -1.453125 0.375q-0.640625 0.359375 -1.015625 0.953125l-1.578125 -0.203125l1.328125 -7.0l6.765625 0l0 1.609375l-5.4375 0l-0.734375 3.640625q1.234375 -0.84375 2.578125 -0.84375q1.78125 0 3.0 1.234375q1.234375 1.234375 1.234375 3.171875q0 1.84375 -1.078125 3.1875q-1.3125 1.65625 -3.578125 1.65625q-1.859375 0 -3.03125 -1.03125q-1.171875 -1.046875 -1.34375 -2.765625z" fill-rule="nonzero"></path><path fill="#000000" d="m1001.3132 271.795l0 -13.59375l5.109375 0q1.546875 0 2.484375 0.40625q0.953125 0.40625 1.484375 1.265625q0.53125 0.859375 0.53125 1.796875q0 0.875 -0.46875 1.65625q-0.46875 0.765625 -1.4375 1.234375q1.234375 0.359375 1.890625 1.234375q0.671875 0.875 0.671875 2.0625q0 0.953125 -0.40625 1.78125q-0.390625 0.8125 -0.984375 1.265625q-0.59375 0.4375 -1.5 0.671875q-0.890625 0.21875 -2.1875 0.21875l-5.1875 0zm1.796875 -7.890625l2.9375 0q1.203125 0 1.71875 -0.15625q0.6875 -0.203125 1.03125 -0.671875q0.359375 -0.46875 0.359375 -1.1875q0 -0.671875 -0.328125 -1.1875q-0.328125 -0.515625 -0.9375 -0.703125q-0.59375 -0.203125 -2.0625 -0.203125l-2.71875 0l0 4.109375zm0 6.28125l3.390625 0q0.875 0 1.21875 -0.0625q0.625 -0.109375 1.046875 -0.359375q0.421875 -0.265625 0.6875 -0.765625q0.265625 -0.5 0.265625 -1.140625q0 -0.765625 -0.390625 -1.328125q-0.390625 -0.5625 -1.078125 -0.78125q-0.6875 -0.234375 -1.984375 -0.234375l-3.15625 0l0 4.671875zm9.8811035 -3.3125q0 -2.734375 1.53125 -4.0625q1.265625 -1.09375 3.09375 -1.09375q2.03125 0 3.3125 1.34375q1.296875 1.328125 1.296875 3.671875q0 1.90625 -0.578125 3.0q-0.5625 1.078125 -1.65625 1.6875q-1.078125 0.59375 -2.375 0.59375q-2.0625 0 -3.34375 -1.328125q-1.28125 -1.328125 -1.28125 -3.8125zm1.71875 0q0 1.890625 0.828125 2.828125q0.828125 0.9375 2.078125 0.9375q1.25 0 2.0625 -0.9375q0.828125 -0.953125 0.828125 -2.890625q0 -1.828125 -0.828125 -2.765625q-0.828125 -0.9375 -2.0625 -0.9375q-1.25 0 -2.078125 0.9375q-0.828125 0.9375 -0.828125 2.828125zm8.656982 0q0 -2.734375 1.531189 -4.0625q1.265625 -1.09375 3.09375 -1.09375q2.03125 0 3.3125 1.34375q1.296875 1.328125 1.296875 3.671875q0 1.90625 -0.578125 3.0q-0.5625 1.078125 -1.65625 1.6875q-1.078125 0.59375 -2.375 0.59375q-2.0625 0 -3.34375 -1.328125q-1.281189 -1.328125 -1.281189 -3.8125zm1.718689 0q0 1.890625 0.828125 2.828125q0.828125 0.9375 2.078125 0.9375q1.25 0 2.0625 -0.9375q0.828125 -0.953125 0.828125 -2.890625q0 -1.828125 -0.828125 -2.765625q-0.828125 -0.9375 -2.0625 -0.9375q-1.25 0 -2.078125 0.9375q-0.828125 0.9375 -0.828125 2.828125zm9.297607 4.921875l0 -13.59375l1.671875 0l0 7.75l3.953125 -4.015625l2.15625 0l-3.765625 3.65625l4.140625 6.203125l-2.0625 0l-3.25 -5.03125l-1.171875 1.125l0 3.90625l-1.671875 0zm8.640625 -2.9375l1.65625 -0.265625q0.140625 1.0 0.765625 1.53125q0.640625 0.515625 1.78125 0.515625q1.15625 0 1.703125 -0.46875q0.5625 -0.46875 0.5625 -1.09375q0 -0.5625 -0.484375 -0.890625q-0.34375 -0.21875 -1.703125 -0.5625q-1.84375 -0.46875 -2.5625 -0.796875q-0.703125 -0.34375 -1.078125 -0.9375q-0.359375 -0.609375 -0.359375 -1.328125q0 -0.65625 0.296875 -1.21875q0.3125 -0.5625 0.828125 -0.9375q0.390625 -0.28125 1.0625 -0.484375q0.671875 -0.203125 1.4375 -0.203125q1.171875 0 2.046875 0.34375q0.875 0.328125 1.28125 0.90625q0.421875 0.5625 0.578125 1.515625l-1.625 0.21875q-0.109375 -0.75 -0.65625 -1.171875q-0.53125 -0.4375 -1.5 -0.4375q-1.15625 0 -1.640625 0.390625q-0.484375 0.375 -0.484375 0.875q0 0.328125 0.203125 0.59375q0.203125 0.265625 0.640625 0.4375q0.25 0.09375 1.46875 0.4375q1.765625 0.46875 2.46875 0.765625q0.703125 0.296875 1.09375 0.875q0.40625 0.578125 0.40625 1.4375q0 0.828125 -0.484375 1.578125q-0.484375 0.734375 -1.40625 1.140625q-0.921875 0.390625 -2.078125 0.390625q-1.921875 0 -2.9375 -0.796875q-1.0 -0.796875 -1.28125 -2.359375z" fill-rule="nonzero"></path></g></svg>

